<svg width="270" height="71" viewBox="0 0 270 71" fill="none" xmlns="http://www.w3.org/2000/svg">
<g filter="url(#filter0_bd_161_105)">
<rect x="13.5" y="0.5" width="243" height="43" rx="21.5" fill="url(#paint0_linear_161_105)" shape-rendering="crispEdges"/>
</g>
<path d="M110.242 23.7578H112.391C112.333 24.5182 112.122 25.1927 111.758 25.7812C111.393 26.3646 110.885 26.8229 110.234 27.1562C109.583 27.4896 108.794 27.6562 107.867 27.6562C107.154 27.6562 106.51 27.5312 105.938 27.2812C105.37 27.026 104.883 26.6641 104.477 26.1953C104.076 25.7214 103.768 25.1536 103.555 24.4922C103.341 23.8255 103.234 23.0781 103.234 22.25V21.3828C103.234 20.5547 103.344 19.8073 103.562 19.1406C103.781 18.474 104.094 17.9062 104.5 17.4375C104.911 16.9635 105.404 16.599 105.977 16.3438C106.555 16.0885 107.201 15.9609 107.914 15.9609C108.841 15.9609 109.625 16.1328 110.266 16.4766C110.906 16.8151 111.404 17.2812 111.758 17.875C112.112 18.4688 112.326 19.151 112.398 19.9219H110.25C110.208 19.4427 110.104 19.0365 109.938 18.7031C109.776 18.3698 109.531 18.1172 109.203 17.9453C108.88 17.7682 108.451 17.6797 107.914 17.6797C107.497 17.6797 107.13 17.7578 106.812 17.9141C106.5 18.0703 106.24 18.3047 106.031 18.6172C105.823 18.9245 105.667 19.3099 105.562 19.7734C105.458 20.2318 105.406 20.763 105.406 21.3672V22.25C105.406 22.8281 105.453 23.3464 105.547 23.8047C105.641 24.263 105.786 24.651 105.984 24.9688C106.182 25.2865 106.438 25.5286 106.75 25.6953C107.062 25.862 107.435 25.9453 107.867 25.9453C108.393 25.9453 108.82 25.862 109.148 25.6953C109.482 25.5286 109.734 25.2839 109.906 24.9609C110.083 24.638 110.195 24.237 110.242 23.7578ZM113.531 23.3594V23.1953C113.531 22.5755 113.62 22.0052 113.797 21.4844C113.974 20.9583 114.232 20.5026 114.57 20.1172C114.909 19.7318 115.323 19.4323 115.812 19.2188C116.302 19 116.859 18.8906 117.484 18.8906C118.12 18.8906 118.682 19 119.172 19.2188C119.667 19.4323 120.083 19.7318 120.422 20.1172C120.76 20.5026 121.018 20.9583 121.195 21.4844C121.372 22.0052 121.461 22.5755 121.461 23.1953V23.3594C121.461 23.974 121.372 24.5443 121.195 25.0703C121.018 25.5911 120.76 26.0469 120.422 26.4375C120.083 26.8229 119.669 27.1224 119.18 27.3359C118.69 27.5495 118.13 27.6562 117.5 27.6562C116.875 27.6562 116.315 27.5495 115.82 27.3359C115.326 27.1224 114.909 26.8229 114.57 26.4375C114.232 26.0469 113.974 25.5911 113.797 25.0703C113.62 24.5443 113.531 23.974 113.531 23.3594ZM115.594 23.1953V23.3594C115.594 23.7292 115.63 24.0755 115.703 24.3984C115.776 24.7214 115.888 25.0052 116.039 25.25C116.19 25.4948 116.385 25.6875 116.625 25.8281C116.87 25.9635 117.161 26.0312 117.5 26.0312C117.833 26.0312 118.12 25.9635 118.359 25.8281C118.599 25.6875 118.794 25.4948 118.945 25.25C119.102 25.0052 119.216 24.7214 119.289 24.3984C119.362 24.0755 119.398 23.7292 119.398 23.3594V23.1953C119.398 22.8307 119.362 22.4896 119.289 22.1719C119.216 21.849 119.102 21.5651 118.945 21.3203C118.794 21.0703 118.596 20.875 118.352 20.7344C118.112 20.5885 117.823 20.5156 117.484 20.5156C117.151 20.5156 116.865 20.5885 116.625 20.7344C116.385 20.875 116.19 21.0703 116.039 21.3203C115.888 21.5651 115.776 21.849 115.703 22.1719C115.63 22.4896 115.594 22.8307 115.594 23.1953ZM124.984 20.8516V27.5H122.922V19.0469H124.859L124.984 20.8516ZM124.656 22.9688H124.047C124.052 22.3542 124.135 21.7969 124.297 21.2969C124.458 20.7969 124.685 20.3672 124.977 20.0078C125.273 19.6484 125.625 19.3724 126.031 19.1797C126.438 18.987 126.891 18.8906 127.391 18.8906C127.797 18.8906 128.164 18.9479 128.492 19.0625C128.82 19.1771 129.102 19.3594 129.336 19.6094C129.576 19.8594 129.758 20.1875 129.883 20.5938C130.013 20.9948 130.078 21.4896 130.078 22.0781V27.5H128V22.0625C128 21.6771 127.943 21.3724 127.828 21.1484C127.719 20.9245 127.557 20.7656 127.344 20.6719C127.135 20.5781 126.878 20.5312 126.57 20.5312C126.253 20.5312 125.974 20.5964 125.734 20.7266C125.5 20.8516 125.302 21.026 125.141 21.25C124.984 21.474 124.865 21.7318 124.781 22.0234C124.698 22.3151 124.656 22.6302 124.656 22.9688ZM135.898 19.0469V20.5312H131.055V19.0469H135.898ZM132.352 16.9688H134.422V25.0625C134.422 25.3125 134.456 25.5052 134.523 25.6406C134.591 25.776 134.693 25.8672 134.828 25.9141C134.964 25.9609 135.125 25.9844 135.312 25.9844C135.448 25.9844 135.573 25.9766 135.688 25.9609C135.802 25.9453 135.898 25.9297 135.977 25.9141L135.984 27.4609C135.812 27.5182 135.617 27.5651 135.398 27.6016C135.185 27.638 134.943 27.6562 134.672 27.6562C134.208 27.6562 133.802 27.5781 133.453 27.4219C133.104 27.2604 132.833 27.0026 132.641 26.6484C132.448 26.2891 132.352 25.8151 132.352 25.2266V16.9688ZM139.461 19.0469V27.5H137.391V19.0469H139.461ZM137.25 16.8359C137.25 16.5286 137.354 16.2734 137.562 16.0703C137.776 15.8672 138.062 15.7656 138.422 15.7656C138.781 15.7656 139.065 15.8672 139.273 16.0703C139.487 16.2734 139.594 16.5286 139.594 16.8359C139.594 17.138 139.487 17.3906 139.273 17.5938C139.065 17.7969 138.781 17.8984 138.422 17.8984C138.062 17.8984 137.776 17.7969 137.562 17.5938C137.354 17.3906 137.25 17.138 137.25 16.8359ZM143.453 20.8516V27.5H141.391V19.0469H143.328L143.453 20.8516ZM143.125 22.9688H142.516C142.521 22.3542 142.604 21.7969 142.766 21.2969C142.927 20.7969 143.154 20.3672 143.445 20.0078C143.742 19.6484 144.094 19.3724 144.5 19.1797C144.906 18.987 145.359 18.8906 145.859 18.8906C146.266 18.8906 146.633 18.9479 146.961 19.0625C147.289 19.1771 147.57 19.3594 147.805 19.6094C148.044 19.8594 148.227 20.1875 148.352 20.5938C148.482 20.9948 148.547 21.4896 148.547 22.0781V27.5H146.469V22.0625C146.469 21.6771 146.411 21.3724 146.297 21.1484C146.188 20.9245 146.026 20.7656 145.812 20.6719C145.604 20.5781 145.346 20.5312 145.039 20.5312C144.721 20.5312 144.443 20.5964 144.203 20.7266C143.969 20.8516 143.771 21.026 143.609 21.25C143.453 21.474 143.333 21.7318 143.25 22.0234C143.167 22.3151 143.125 22.6302 143.125 22.9688ZM155.398 25.4922V19.0469H157.477V27.5H155.523L155.398 25.4922ZM155.664 23.7422L156.305 23.7266C156.305 24.2943 156.242 24.8177 156.117 25.2969C155.992 25.776 155.797 26.1927 155.531 26.5469C155.271 26.8958 154.94 27.1693 154.539 27.3672C154.138 27.5599 153.664 27.6562 153.117 27.6562C152.701 27.6562 152.32 27.599 151.977 27.4844C151.633 27.3646 151.336 27.1797 151.086 26.9297C150.841 26.6745 150.651 26.349 150.516 25.9531C150.38 25.5521 150.312 25.0703 150.312 24.5078V19.0469H152.375V24.5234C152.375 24.8047 152.406 25.0391 152.469 25.2266C152.536 25.4141 152.628 25.5677 152.742 25.6875C152.862 25.8021 153 25.8854 153.156 25.9375C153.318 25.9844 153.49 26.0078 153.672 26.0078C154.172 26.0078 154.565 25.9089 154.852 25.7109C155.143 25.5078 155.352 25.237 155.477 24.8984C155.602 24.5547 155.664 24.1693 155.664 23.7422ZM163.102 27.6562C162.461 27.6562 161.885 27.5521 161.375 27.3438C160.865 27.1354 160.43 26.8464 160.07 26.4766C159.716 26.1016 159.443 25.6667 159.25 25.1719C159.062 24.6719 158.969 24.1354 158.969 23.5625V23.25C158.969 22.599 159.062 22.0078 159.25 21.4766C159.438 20.9401 159.703 20.4792 160.047 20.0938C160.391 19.7083 160.802 19.4115 161.281 19.2031C161.76 18.9948 162.289 18.8906 162.867 18.8906C163.466 18.8906 163.995 18.9922 164.453 19.1953C164.911 19.3932 165.294 19.6745 165.602 20.0391C165.909 20.4036 166.141 20.8411 166.297 21.3516C166.453 21.8568 166.531 22.4167 166.531 23.0312V23.8984H159.906V22.4766H164.5V22.3203C164.49 21.9922 164.427 21.6927 164.312 21.4219C164.198 21.1458 164.021 20.9271 163.781 20.7656C163.542 20.599 163.232 20.5156 162.852 20.5156C162.544 20.5156 162.276 20.5833 162.047 20.7188C161.823 20.849 161.635 21.0365 161.484 21.2812C161.339 21.5208 161.229 21.8073 161.156 22.1406C161.083 22.474 161.047 22.8438 161.047 23.25V23.5625C161.047 23.9167 161.094 24.2448 161.188 24.5469C161.286 24.849 161.43 25.112 161.617 25.3359C161.81 25.5547 162.039 25.7266 162.305 25.8516C162.576 25.9714 162.883 26.0312 163.227 26.0312C163.659 26.0312 164.049 25.9479 164.398 25.7812C164.753 25.6094 165.06 25.3568 165.32 25.0234L166.359 26.1016C166.182 26.362 165.943 26.612 165.641 26.8516C165.344 27.0911 164.984 27.2865 164.562 27.4375C164.141 27.5833 163.654 27.6562 163.102 27.6562Z" fill="white"/>
<defs>
<filter id="filter0_bd_161_105" x="0" y="-4.9" width="270" height="75.4" filterUnits="userSpaceOnUse" color-interpolation-filters="sRGB">
<feFlood flood-opacity="0" result="BackgroundImageFix"/>
<feGaussianBlur in="BackgroundImageFix" stdDeviation="2.7"/>
<feComposite in2="SourceAlpha" operator="in" result="effect1_backgroundBlur_161_105"/>
<feColorMatrix in="SourceAlpha" type="matrix" values="0 0 0 0 0 0 0 0 0 0 0 0 0 0 0 0 0 0 127 0" result="hardAlpha"/>
<feOffset dy="13.5"/>
<feGaussianBlur stdDeviation="6.75"/>
<feComposite in2="hardAlpha" operator="out"/>
<feColorMatrix type="matrix" values="0 0 0 0 0 0 0 0 0 0 0 0 0 0 0 0 0 0 0.05 0"/>
<feBlend mode="normal" in2="effect1_backgroundBlur_161_105" result="effect2_dropShadow_161_105"/>
<feBlend mode="normal" in="SourceGraphic" in2="effect2_dropShadow_161_105" result="shape"/>
</filter>
<linearGradient id="paint0_linear_161_105" x1="42.66" y1="0.5" x2="57.4161" y2="83.8888" gradientUnits="userSpaceOnUse">
<stop stop-color="#045257"/>
<stop offset="1" stop-color="#045257" stop-opacity="0.41"/>
</linearGradient>
</defs>
</svg>
