<svg width="174" height="88" viewBox="0 0 174 88" fill="none" xmlns="http://www.w3.org/2000/svg">
<path d="M41.472 82.08C61.5133 82.08 77.7599 65.8333 77.7599 45.792C77.7599 25.7507 61.5133 9.50401 41.472 9.50401C21.4306 9.50401 5.18396 25.7507 5.18396 45.792C5.18396 65.8333 21.4306 82.08 41.472 82.08Z" stroke="black" stroke-width="1.296" stroke-miterlimit="10"/>
<path d="M41.472 82.08C61.5133 82.08 77.7599 65.8333 77.7599 45.792C77.7599 25.7507 61.5133 9.50401 41.472 9.50401C21.4306 9.50401 5.18396 25.7507 5.18396 45.792C5.18396 65.8333 21.4306 82.08 41.472 82.08Z" stroke="black" stroke-width="1.296" stroke-miterlimit="10"/>
<path d="M41.472 49.0752C43.2853 49.0752 44.7552 47.6053 44.7552 45.792C44.7552 43.9787 43.2853 42.5088 41.472 42.5088C39.6588 42.5088 38.1888 43.9787 38.1888 45.792C38.1888 47.6053 39.6588 49.0752 41.472 49.0752Z" stroke="black" stroke-width="1.296" stroke-miterlimit="10"/>
<path d="M41.472 19.3882V42.5088" stroke="black" stroke-width="1.296" stroke-miterlimit="10"/>
<path d="M23.328 58.752L39.0439 48.6727" stroke="black" stroke-width="1.296" stroke-miterlimit="10"/>
<rect x="50.9761" y="3.8147e-06" width="122.688" height="51.84" rx="17.28" fill="#FCFCFC"/>
<path d="M67.8453 9.67801H69.7083V20.0561C69.7083 21.1631 69.4957 22.0508 69.0704 22.719C68.6452 23.3873 68.0849 23.8733 67.3897 24.177C66.7012 24.474 65.9587 24.6225 65.1622 24.6225C64.3117 24.6225 63.5456 24.474 62.8638 24.177C62.1821 23.8733 61.6387 23.3873 61.2337 22.719C60.8354 22.0508 60.6363 21.1631 60.6363 20.0561V9.67801H62.4892V20.0561C62.4892 20.8256 62.5972 21.4264 62.8132 21.8584C63.0359 22.2904 63.3464 22.5941 63.7447 22.7696C64.1497 22.9451 64.6222 23.0329 65.1622 23.0329C65.7089 23.0329 66.1814 22.9451 66.5797 22.7696C66.9847 22.5941 67.2952 22.2904 67.5112 21.8584C67.7339 21.4264 67.8453 20.8256 67.8453 20.0561V9.67801ZM74.1026 15.5708V28.632H72.3104V13.4648H73.9406L74.1026 15.5708ZM80.2282 18.4463V19.4689C80.2282 20.3329 80.1472 21.0889 79.9852 21.7369C79.8299 22.3781 79.5971 22.9148 79.2866 23.3468C78.9828 23.772 78.6082 24.0926 78.1627 24.3086C77.7172 24.5179 77.2076 24.6225 76.6338 24.6225C76.0601 24.6225 75.5606 24.5145 75.1353 24.2985C74.7168 24.0758 74.3624 23.7551 74.0722 23.3366C73.7887 22.9181 73.5626 22.4153 73.3938 21.828C73.2318 21.234 73.1204 20.5691 73.0597 19.8334V18.2741C73.1204 17.4979 73.2318 16.8026 73.3938 16.1884C73.5558 15.5674 73.7786 15.0409 74.0621 14.6089C74.3523 14.1701 74.7067 13.836 75.1252 13.6065C75.5504 13.377 76.0466 13.2623 76.6136 13.2623C77.2008 13.2623 77.7172 13.3635 78.1627 13.566C78.6149 13.7685 78.9929 14.0824 79.2967 14.5076C79.6072 14.9261 79.8401 15.4628 79.9953 16.1175C80.1506 16.7655 80.2282 17.5418 80.2282 18.4463ZM78.4361 19.4689V18.4463C78.4361 17.8388 78.3888 17.3089 78.2943 16.8566C78.2066 16.4044 78.0648 16.0298 77.8691 15.7328C77.6733 15.4358 77.4269 15.213 77.1299 15.0645C76.8329 14.916 76.4752 14.8418 76.0567 14.8418C75.6989 14.8418 75.3817 14.916 75.1049 15.0645C74.8349 15.213 74.6021 15.4155 74.4063 15.672C74.2106 15.9218 74.0486 16.2086 73.9203 16.5326C73.7921 16.8499 73.6976 17.1806 73.6368 17.5249V20.5928C73.7516 21.0248 73.9034 21.4331 74.0924 21.8179C74.2814 22.1959 74.5346 22.503 74.8518 22.7393C75.1758 22.9755 75.5842 23.0936 76.0769 23.0936C76.4887 23.0936 76.8431 23.0194 77.1401 22.8709C77.4371 22.7224 77.6801 22.4996 77.8691 22.2026C78.0648 21.8989 78.2066 21.5209 78.2943 21.0686C78.3888 20.6096 78.4361 20.0764 78.4361 19.4689ZM86.3336 23.0936C86.6913 23.0936 87.0153 23.0228 87.3056 22.881C87.6026 22.7325 87.8456 22.503 88.0346 22.1925C88.2236 21.8753 88.3316 21.4635 88.3586 20.9573H90.0393C90.0123 21.6863 89.8267 22.3275 89.4824 22.881C89.1449 23.4278 88.6994 23.8564 88.1459 24.1669C87.5992 24.4706 86.9951 24.6225 86.3336 24.6225C85.6248 24.6225 85.0072 24.5078 84.4807 24.2783C83.9609 24.0488 83.5289 23.718 83.1847 23.286C82.8472 22.8473 82.5941 22.3174 82.4253 21.6964C82.2566 21.0686 82.1722 20.3565 82.1722 19.56V18.3248C82.1722 17.5283 82.2566 16.8195 82.4253 16.1985C82.5941 15.5708 82.8472 15.0409 83.1847 14.6089C83.5289 14.1701 83.9609 13.836 84.4807 13.6065C85.0072 13.377 85.6248 13.2623 86.3336 13.2623C87.0761 13.2623 87.7173 13.4209 88.2573 13.7381C88.8041 14.0486 89.2293 14.5009 89.5331 15.0949C89.8436 15.6821 90.0123 16.3943 90.0393 17.2313H88.3586C88.3316 16.6913 88.2337 16.2424 88.0649 15.8846C87.8962 15.5201 87.6667 15.2501 87.3764 15.0746C87.0862 14.8924 86.7386 14.8013 86.3336 14.8013C85.8611 14.8013 85.4696 14.8856 85.1591 15.0544C84.8553 15.2164 84.6157 15.4526 84.4402 15.7631C84.2647 16.0736 84.1398 16.4449 84.0656 16.8769C83.9981 17.3089 83.9643 17.7915 83.9643 18.3248V19.56C83.9643 20.0933 83.9981 20.5793 84.0656 21.018C84.1398 21.45 84.2613 21.8213 84.4301 22.1318C84.6056 22.4423 84.8486 22.6819 85.1591 22.8506C85.4696 23.0126 85.8611 23.0936 86.3336 23.0936ZM91.7403 19.4689V18.426C91.7403 17.5755 91.8483 16.8296 92.0643 16.1884C92.2803 15.5404 92.5807 15.0004 92.9654 14.5684C93.3502 14.1364 93.7991 13.8124 94.3121 13.5964C94.8251 13.3736 95.3752 13.2623 95.9624 13.2623C96.5632 13.2623 97.1201 13.3736 97.6331 13.5964C98.1461 13.8124 98.5949 14.1364 98.9797 14.5684C99.3712 15.0004 99.6749 15.5404 99.8909 16.1884C100.107 16.8296 100.215 17.5755 100.215 18.426V19.4689C100.215 20.3194 100.107 21.0686 99.8909 21.7166C99.6749 22.3579 99.3746 22.8945 98.9898 23.3265C98.6051 23.7585 98.1562 24.0825 97.6432 24.2985C97.1302 24.5145 96.5767 24.6225 95.9827 24.6225C95.3887 24.6225 94.8352 24.5145 94.3222 24.2985C93.8092 24.0825 93.3569 23.7585 92.9654 23.3265C92.5807 22.8945 92.2803 22.3579 92.0643 21.7166C91.8483 21.0686 91.7403 20.3194 91.7403 19.4689ZM93.5324 18.426V19.4689C93.5324 20.0696 93.5932 20.5961 93.7147 21.0484C93.8362 21.5006 94.0083 21.8786 94.2311 22.1824C94.4538 22.4861 94.7137 22.7156 95.0107 22.8709C95.3077 23.0194 95.6317 23.0936 95.9827 23.0936C96.3877 23.0936 96.7421 23.0194 97.0458 22.8709C97.3563 22.7156 97.6128 22.4861 97.8153 22.1824C98.0178 21.8786 98.1697 21.5006 98.2709 21.0484C98.3722 20.5961 98.4228 20.0696 98.4228 19.4689V18.426C98.4228 17.8253 98.3621 17.3021 98.2406 16.8566C98.1191 16.4044 97.9469 16.0264 97.7242 15.7226C97.5014 15.4121 97.2382 15.1826 96.9344 15.0341C96.6374 14.8789 96.3134 14.8013 95.9624 14.8013C95.6182 14.8013 95.2976 14.8789 95.0006 15.0341C94.7036 15.1826 94.4437 15.4121 94.2209 15.7226C94.0049 16.0264 93.8362 16.4044 93.7147 16.8566C93.5932 17.3021 93.5324 17.8253 93.5324 18.426ZM104.316 15.6416V24.42H102.534V13.4648H104.214L104.316 15.6416ZM103.951 18.5273L103.121 18.4969C103.114 17.7476 103.188 17.0558 103.344 16.4213C103.499 15.78 103.732 15.2231 104.042 14.7506C104.359 14.2781 104.754 13.9136 105.227 13.6571C105.706 13.3939 106.263 13.2623 106.897 13.2623C107.316 13.2623 107.704 13.3365 108.062 13.485C108.426 13.6268 108.744 13.8529 109.014 14.1634C109.284 14.4739 109.493 14.8721 109.641 15.3581C109.797 15.8441 109.874 16.4314 109.874 17.1199V24.42H108.082V17.211C108.082 16.6373 108.004 16.1783 107.849 15.834C107.701 15.4898 107.488 15.24 107.211 15.0848C106.935 14.9228 106.604 14.8418 106.219 14.8418C105.78 14.8418 105.412 14.9396 105.115 15.1354C104.825 15.3311 104.592 15.6011 104.417 15.9454C104.248 16.2896 104.127 16.6845 104.052 17.13C103.985 17.5688 103.951 18.0345 103.951 18.5273ZM109.854 17.4945L108.659 17.8793C108.652 17.2785 108.727 16.7014 108.882 16.1479C109.037 15.5944 109.267 15.1016 109.57 14.6696C109.881 14.2376 110.266 13.8968 110.725 13.647C111.184 13.3905 111.717 13.2623 112.324 13.2623C112.824 13.2623 113.266 13.3399 113.651 13.4951C114.036 13.6504 114.36 13.89 114.623 14.214C114.893 14.5313 115.095 14.9396 115.23 15.4391C115.365 15.9386 115.433 16.5326 115.433 17.2211V24.42H113.641V17.2009C113.641 16.5866 113.563 16.1108 113.408 15.7733C113.259 15.429 113.047 15.1894 112.77 15.0544C112.493 14.9126 112.162 14.8418 111.778 14.8418C111.467 14.8418 111.19 14.9126 110.947 15.0544C110.711 15.1961 110.512 15.3919 110.35 15.6416C110.188 15.8846 110.063 16.1648 109.975 16.482C109.894 16.7993 109.854 17.1368 109.854 17.4945ZM120.06 13.4648V24.42H118.278V13.4648H120.06ZM118.177 10.5589C118.177 10.2551 118.261 9.99863 118.43 9.78938C118.599 9.58013 118.852 9.47551 119.189 9.47551C119.527 9.47551 119.78 9.58013 119.949 9.78938C120.124 9.99863 120.212 10.2551 120.212 10.5589C120.212 10.8491 120.124 11.0989 119.949 11.3081C119.78 11.5106 119.527 11.6119 119.189 11.6119C118.852 11.6119 118.599 11.5106 118.43 11.3081C118.261 11.0989 118.177 10.8491 118.177 10.5589ZM124.687 15.8036V24.42H122.895V13.4648H124.586L124.687 15.8036ZM124.252 18.5273L123.523 18.4969C123.516 17.7476 123.6 17.0558 123.776 16.4213C123.958 15.78 124.215 15.2231 124.545 14.7506C124.883 14.2781 125.284 13.9136 125.75 13.6571C126.216 13.3939 126.732 13.2623 127.299 13.2623C127.745 13.2623 128.15 13.3365 128.514 13.485C128.879 13.6268 129.189 13.8563 129.446 14.1735C129.702 14.4908 129.898 14.9025 130.033 15.4088C130.175 15.9083 130.246 16.5191 130.246 17.2414V24.42H128.454V17.2211C128.454 16.6474 128.389 16.1884 128.261 15.8441C128.14 15.4931 127.951 15.24 127.694 15.0848C127.444 14.9228 127.127 14.8418 126.742 14.8418C126.391 14.8418 126.064 14.9396 125.76 15.1354C125.457 15.3311 125.19 15.6011 124.96 15.9454C124.738 16.2896 124.562 16.6845 124.434 17.13C124.312 17.5688 124.252 18.0345 124.252 18.5273ZM138.872 13.4648H140.482V24.5111C140.482 25.4764 140.313 26.2729 139.976 26.9006C139.645 27.5284 139.183 27.9908 138.589 28.2878C137.995 28.5915 137.31 28.7434 136.533 28.7434C136.257 28.7434 135.909 28.6928 135.49 28.5915C135.072 28.4903 134.653 28.335 134.235 28.1258C133.816 27.9233 133.472 27.6668 133.202 27.3563L133.941 26.1109C134.326 26.5024 134.734 26.7825 135.166 26.9513C135.598 27.12 136.01 27.2044 136.402 27.2044C136.867 27.2044 137.272 27.12 137.617 26.9513C137.961 26.7825 138.228 26.5058 138.417 26.121C138.606 25.743 138.7 25.2368 138.7 24.6023V15.8745L138.872 13.4648ZM132.574 19.4689V18.4463C132.574 17.5418 132.659 16.7655 132.828 16.1175C132.996 15.4628 133.239 14.9261 133.557 14.5076C133.881 14.0824 134.269 13.7685 134.721 13.566C135.173 13.3635 135.679 13.2623 136.24 13.2623C136.807 13.2623 137.296 13.377 137.708 13.6065C138.12 13.836 138.46 14.1701 138.73 14.6089C139.007 15.0409 139.223 15.5674 139.378 16.1884C139.54 16.8026 139.652 17.4979 139.713 18.2741V19.641C139.652 20.4105 139.54 21.1024 139.378 21.7166C139.223 22.3309 139.004 22.854 138.72 23.286C138.444 23.718 138.099 24.0488 137.688 24.2783C137.276 24.5078 136.786 24.6225 136.219 24.6225C135.666 24.6225 135.166 24.5179 134.721 24.3086C134.275 24.0926 133.891 23.772 133.567 23.3468C133.249 22.9148 133.003 22.3781 132.828 21.7369C132.659 21.0889 132.574 20.3329 132.574 19.4689ZM134.367 18.4463V19.4689C134.367 20.0764 134.41 20.6063 134.498 21.0585C134.586 21.504 134.721 21.8753 134.903 22.1723C135.092 22.4625 135.332 22.6785 135.622 22.8203C135.919 22.962 136.273 23.0329 136.685 23.0329C137.185 23.0329 137.593 22.9114 137.91 22.6684C138.228 22.4254 138.481 22.1048 138.67 21.7065C138.865 21.3015 139.021 20.8661 139.135 20.4004V17.5249C139.068 17.1806 138.97 16.8499 138.842 16.5326C138.72 16.2086 138.562 15.9218 138.366 15.672C138.17 15.4155 137.934 15.213 137.657 15.0645C137.387 14.916 137.07 14.8418 136.705 14.8418C136.294 14.8418 135.939 14.916 135.642 15.0645C135.345 15.213 135.102 15.4358 134.913 15.7328C134.724 16.0298 134.586 16.4044 134.498 16.8566C134.41 17.3089 134.367 17.8388 134.367 18.4463ZM65.6887 27.9841L61.6589 41.42H59.7554L64.5041 26.678H65.6988L65.6887 27.9841ZM68.9489 41.42L64.9192 27.9841L64.8989 26.678H66.1038L70.8524 41.42H68.9489ZM68.9489 35.9626V37.5624H61.8412V35.9626H68.9489ZM74.4266 32.5708V45.632H72.6344V30.4648H74.2646L74.4266 32.5708ZM80.5522 35.4463V36.4689C80.5522 37.3329 80.4712 38.0889 80.3092 38.7369C80.1539 39.3781 79.9211 39.9148 79.6106 40.3468C79.3068 40.772 78.9322 41.0926 78.4867 41.3086C78.0412 41.5179 77.5316 41.6225 76.9578 41.6225C76.3841 41.6225 75.8846 41.5145 75.4593 41.2985C75.0408 41.0758 74.6864 40.7551 74.3962 40.3366C74.1127 39.9181 73.8866 39.4153 73.7178 38.828C73.5558 38.234 73.4444 37.5691 73.3837 36.8334V35.2741C73.4444 34.4979 73.5558 33.8026 73.7178 33.1884C73.8798 32.5674 74.1026 32.0409 74.3861 31.6089C74.6763 31.1701 75.0307 30.836 75.4492 30.6065C75.8744 30.377 76.3706 30.2623 76.9376 30.2623C77.5248 30.2623 78.0412 30.3635 78.4867 30.566C78.9389 30.7685 79.3169 31.0824 79.6207 31.5076C79.9312 31.9261 80.1641 32.4628 80.3193 33.1175C80.4746 33.7655 80.5522 34.5418 80.5522 35.4463ZM78.7601 36.4689V35.4463C78.7601 34.8388 78.7128 34.3089 78.6183 33.8566C78.5306 33.4044 78.3888 33.0298 78.1931 32.7328C77.9973 32.4358 77.7509 32.213 77.4539 32.0645C77.1569 31.916 76.7992 31.8418 76.3807 31.8418C76.0229 31.8418 75.7057 31.916 75.4289 32.0645C75.1589 32.213 74.9261 32.4155 74.7303 32.672C74.5346 32.9218 74.3726 33.2086 74.2443 33.5326C74.1161 33.8499 74.0216 34.1806 73.9608 34.5249V37.5928C74.0756 38.0248 74.2274 38.4331 74.4164 38.8179C74.6054 39.1959 74.8586 39.503 75.1758 39.7393C75.4998 39.9755 75.9082 40.0936 76.4009 40.0936C76.8127 40.0936 77.1671 40.0194 77.4641 39.8709C77.7611 39.7224 78.0041 39.4996 78.1931 39.2026C78.3888 38.8989 78.5306 38.5209 78.6183 38.0686C78.7128 37.6096 78.7601 37.0764 78.7601 36.4689ZM84.6528 32.5708V45.632H82.8607V30.4648H84.4908L84.6528 32.5708ZM90.7784 35.4463V36.4689C90.7784 37.3329 90.6974 38.0889 90.5354 38.7369C90.3802 39.3781 90.1473 39.9148 89.8368 40.3468C89.5331 40.772 89.1584 41.0926 88.7129 41.3086C88.2674 41.5179 87.7578 41.6225 87.1841 41.6225C86.6103 41.6225 86.1108 41.5145 85.6856 41.2985C85.2671 41.0758 84.9127 40.7551 84.6224 40.3366C84.3389 39.9181 84.1128 39.4153 83.9441 38.828C83.7821 38.234 83.6707 37.5691 83.6099 36.8334V35.2741C83.6707 34.4979 83.7821 33.8026 83.9441 33.1884C84.1061 32.5674 84.3288 32.0409 84.6123 31.6089C84.9026 31.1701 85.2569 30.836 85.6754 30.6065C86.1007 30.377 86.5968 30.2623 87.1638 30.2623C87.7511 30.2623 88.2674 30.3635 88.7129 30.566C89.1652 30.7685 89.5432 31.0824 89.8469 31.5076C90.1574 31.9261 90.3903 32.4628 90.5456 33.1175C90.7008 33.7655 90.7784 34.5418 90.7784 35.4463ZM88.9863 36.4689V35.4463C88.9863 34.8388 88.9391 34.3089 88.8446 33.8566C88.7568 33.4044 88.6151 33.0298 88.4193 32.7328C88.2236 32.4358 87.9772 32.213 87.6802 32.0645C87.3832 31.916 87.0254 31.8418 86.6069 31.8418C86.2492 31.8418 85.9319 31.916 85.6552 32.0645C85.3852 32.213 85.1523 32.4155 84.9566 32.672C84.7608 32.9218 84.5988 33.2086 84.4706 33.5326C84.3423 33.8499 84.2478 34.1806 84.1871 34.5249V37.5928C84.3018 38.0248 84.4537 38.4331 84.6427 38.8179C84.8317 39.1959 85.0848 39.503 85.4021 39.7393C85.7261 39.9755 86.1344 40.0936 86.6272 40.0936C87.0389 40.0936 87.3933 40.0194 87.6903 39.8709C87.9873 39.7224 88.2303 39.4996 88.4193 39.2026C88.6151 38.8989 88.7568 38.5209 88.8446 38.0686C88.9391 37.6096 88.9863 37.0764 88.9863 36.4689ZM92.7123 36.4689V35.426C92.7123 34.5755 92.8203 33.8296 93.0363 33.1884C93.2523 32.5404 93.5527 32.0004 93.9374 31.5684C94.3222 31.1364 94.7711 30.8124 95.2841 30.5964C95.7971 30.3736 96.3472 30.2623 96.9344 30.2623C97.5352 30.2623 98.0921 30.3736 98.6051 30.5964C99.1181 30.8124 99.5669 31.1364 99.9517 31.5684C100.343 32.0004 100.647 32.5404 100.863 33.1884C101.079 33.8296 101.187 34.5755 101.187 35.426V36.4689C101.187 37.3194 101.079 38.0686 100.863 38.7166C100.647 39.3579 100.347 39.8945 99.9618 40.3265C99.5771 40.7585 99.1282 41.0825 98.6152 41.2985C98.1022 41.5145 97.5487 41.6225 96.9547 41.6225C96.3607 41.6225 95.8072 41.5145 95.2942 41.2985C94.7812 41.0825 94.3289 40.7585 93.9374 40.3265C93.5527 39.8945 93.2523 39.3579 93.0363 38.7166C92.8203 38.0686 92.7123 37.3194 92.7123 36.4689ZM94.5044 35.426V36.4689C94.5044 37.0696 94.5652 37.5961 94.6867 38.0484C94.8082 38.5006 94.9803 38.8786 95.2031 39.1824C95.4258 39.4861 95.6857 39.7156 95.9827 39.8709C96.2797 40.0194 96.6037 40.0936 96.9547 40.0936C97.3597 40.0936 97.7141 40.0194 98.0178 39.8709C98.3283 39.7156 98.5848 39.4861 98.7873 39.1824C98.9898 38.8786 99.1417 38.5006 99.2429 38.0484C99.3442 37.5961 99.3948 37.0696 99.3948 36.4689V35.426C99.3948 34.8253 99.3341 34.3021 99.2126 33.8566C99.0911 33.4044 98.9189 33.0264 98.6962 32.7226C98.4734 32.4121 98.2102 32.1826 97.9064 32.0341C97.6094 31.8789 97.2854 31.8013 96.9344 31.8013C96.5902 31.8013 96.2696 31.8789 95.9726 32.0341C95.6756 32.1826 95.4157 32.4121 95.1929 32.7226C94.9769 33.0264 94.8082 33.4044 94.6867 33.8566C94.5652 34.3021 94.5044 34.8253 94.5044 35.426ZM105.419 30.4648V41.42H103.637V30.4648H105.419ZM103.536 27.5589C103.536 27.2551 103.62 26.9986 103.789 26.7894C103.958 26.5801 104.211 26.4755 104.548 26.4755C104.886 26.4755 105.139 26.5801 105.308 26.7894C105.483 26.9986 105.571 27.2551 105.571 27.5589C105.571 27.8491 105.483 28.0989 105.308 28.3081C105.139 28.5106 104.886 28.6119 104.548 28.6119C104.211 28.6119 103.958 28.5106 103.789 28.3081C103.62 28.0989 103.536 27.8491 103.536 27.5589ZM110.046 32.8036V41.42H108.254V30.4648H109.945L110.046 32.8036ZM109.611 35.5273L108.882 35.4969C108.875 34.7476 108.96 34.0558 109.135 33.4213C109.317 32.78 109.574 32.2231 109.905 31.7506C110.242 31.2781 110.644 30.9136 111.109 30.6571C111.575 30.3939 112.092 30.2623 112.659 30.2623C113.104 30.2623 113.509 30.3365 113.874 30.485C114.238 30.6268 114.549 30.8563 114.805 31.1735C115.062 31.4908 115.257 31.9025 115.392 32.4088C115.534 32.9083 115.605 33.5191 115.605 34.2414V41.42H113.813V34.2211C113.813 33.6474 113.749 33.1884 113.62 32.8441C113.499 32.4931 113.31 32.24 113.053 32.0848C112.804 31.9228 112.486 31.8418 112.102 31.8418C111.751 31.8418 111.423 31.9396 111.12 32.1354C110.816 32.3311 110.549 32.6011 110.32 32.9454C110.097 33.2896 109.921 33.6845 109.793 34.13C109.672 34.5688 109.611 35.0345 109.611 35.5273ZM122.298 30.4648V31.9025H117.184V30.4648H122.298ZM118.855 27.8019H120.647V38.7065C120.647 39.0778 120.691 39.3579 120.779 39.5469C120.873 39.7359 120.991 39.8608 121.133 39.9215C121.275 39.9823 121.427 40.0126 121.589 40.0126C121.71 40.0126 121.845 39.9991 121.994 39.9721C122.142 39.9384 122.244 39.9114 122.298 39.8911L122.287 41.42C122.166 41.4673 122.004 41.5111 121.801 41.5516C121.599 41.5989 121.342 41.6225 121.032 41.6225C120.647 41.6225 120.289 41.5314 119.959 41.3491C119.628 41.1669 119.361 40.8631 119.159 40.4379C118.956 40.0059 118.855 39.4254 118.855 38.6964V27.8019ZM126.226 32.6416V41.42H124.444V30.4648H126.125L126.226 32.6416ZM125.862 35.5273L125.031 35.4969C125.025 34.7476 125.099 34.0558 125.254 33.4213C125.409 32.78 125.642 32.2231 125.953 31.7506C126.27 31.2781 126.665 30.9136 127.137 30.6571C127.617 30.3939 128.173 30.2623 128.808 30.2623C129.226 30.2623 129.615 30.3365 129.972 30.485C130.337 30.6268 130.654 30.8529 130.924 31.1634C131.194 31.4739 131.403 31.8721 131.552 32.3581C131.707 32.8441 131.785 33.4314 131.785 34.1199V41.42H129.993V34.211C129.993 33.6373 129.915 33.1783 129.76 32.834C129.611 32.4898 129.399 32.24 129.122 32.0848C128.845 31.9228 128.514 31.8418 128.13 31.8418C127.691 31.8418 127.323 31.9396 127.026 32.1354C126.736 32.3311 126.503 32.6011 126.327 32.9454C126.159 33.2896 126.037 33.6845 125.963 34.13C125.895 34.5688 125.862 35.0345 125.862 35.5273ZM131.764 34.4945L130.57 34.8793C130.563 34.2785 130.637 33.7014 130.792 33.1479C130.948 32.5944 131.177 32.1016 131.481 31.6696C131.791 31.2376 132.176 30.8968 132.635 30.647C133.094 30.3905 133.627 30.2623 134.235 30.2623C134.734 30.2623 135.177 30.3399 135.561 30.4951C135.946 30.6504 136.27 30.89 136.533 31.214C136.803 31.5313 137.006 31.9396 137.141 32.4391C137.276 32.9386 137.343 33.5326 137.343 34.2211V41.42H135.551V34.2009C135.551 33.5866 135.474 33.1108 135.318 32.7733C135.17 32.429 134.957 32.1894 134.68 32.0544C134.404 31.9126 134.073 31.8418 133.688 31.8418C133.378 31.8418 133.101 31.9126 132.858 32.0544C132.622 32.1961 132.423 32.3919 132.261 32.6416C132.099 32.8846 131.974 33.1648 131.886 33.482C131.805 33.7993 131.764 34.1368 131.764 34.4945ZM143.965 41.6225C143.31 41.6225 142.72 41.5246 142.193 41.3289C141.667 41.1331 141.218 40.8361 140.847 40.4379C140.475 40.0329 140.192 39.5233 139.996 38.909C139.8 38.2948 139.702 37.5691 139.702 36.7321V35.4969C139.702 34.5316 139.814 33.7149 140.037 33.0466C140.266 32.3784 140.573 31.8418 140.958 31.4368C141.343 31.025 141.778 30.728 142.264 30.5458C142.75 30.3568 143.25 30.2623 143.763 30.2623C144.451 30.2623 145.038 30.3736 145.524 30.5964C146.01 30.8191 146.405 31.1499 146.709 31.5886C147.013 32.0274 147.235 32.5674 147.377 33.2086C147.526 33.8499 147.6 34.589 147.6 35.426V36.4689H140.755V34.94H145.808V34.6869C145.781 34.1199 145.703 33.6204 145.575 33.1884C145.453 32.7564 145.251 32.4189 144.967 32.1759C144.684 31.9261 144.282 31.8013 143.763 31.8013C143.432 31.8013 143.125 31.8586 142.841 31.9734C142.564 32.0814 142.325 32.2738 142.122 32.5505C141.927 32.8205 141.771 33.1951 141.657 33.6744C141.549 34.1536 141.495 34.7611 141.495 35.4969V36.7321C141.495 37.3194 141.549 37.8256 141.657 38.2509C141.771 38.6694 141.937 39.017 142.153 39.2938C142.375 39.5638 142.645 39.7663 142.963 39.9013C143.287 40.0295 143.655 40.0936 144.066 40.0936C144.667 40.0936 145.163 39.9789 145.555 39.7494C145.946 39.5131 146.287 39.2128 146.577 38.8483L147.519 39.9721C147.323 40.2489 147.067 40.5155 146.749 40.772C146.439 41.0218 146.054 41.2276 145.595 41.3896C145.143 41.5449 144.6 41.6225 143.965 41.6225ZM151.559 32.8036V41.42H149.767V30.4648H151.458L151.559 32.8036ZM151.123 35.5273L150.394 35.4969C150.388 34.7476 150.472 34.0558 150.648 33.4213C150.83 32.78 151.086 32.2231 151.417 31.7506C151.755 31.2781 152.156 30.9136 152.622 30.6571C153.088 30.3939 153.604 30.2623 154.171 30.2623C154.617 30.2623 155.022 30.3365 155.386 30.485C155.751 30.6268 156.061 30.8563 156.318 31.1735C156.574 31.4908 156.77 31.9025 156.905 32.4088C157.047 32.9083 157.117 33.5191 157.117 34.2414V41.42H155.325V34.2211C155.325 33.6474 155.261 33.1884 155.133 32.8441C155.011 32.4931 154.822 32.24 154.566 32.0848C154.316 31.9228 153.999 31.8418 153.614 31.8418C153.263 31.8418 152.936 31.9396 152.632 32.1354C152.328 32.3311 152.062 32.6011 151.832 32.9454C151.609 33.2896 151.434 33.6845 151.306 34.13C151.184 34.5688 151.123 35.0345 151.123 35.5273ZM163.81 30.4648V31.9025H158.697V30.4648H163.81ZM160.368 27.8019H162.16V38.7065C162.16 39.0778 162.204 39.3579 162.291 39.5469C162.386 39.7359 162.504 39.8608 162.646 39.9215C162.787 39.9823 162.939 40.0126 163.101 40.0126C163.223 40.0126 163.358 39.9991 163.506 39.9721C163.655 39.9384 163.756 39.9114 163.81 39.8911L163.8 41.42C163.678 41.4673 163.516 41.5111 163.314 41.5516C163.111 41.5989 162.855 41.6225 162.544 41.6225C162.16 41.6225 161.802 41.5314 161.471 41.3491C161.14 41.1669 160.874 40.8631 160.671 40.4379C160.469 40.0059 160.368 39.4254 160.368 38.6964V27.8019Z" fill="black"/>
</svg>
