<svg width="16" height="17" viewBox="0 0 16 17" fill="none" xmlns="http://www.w3.org/2000/svg">
<g clip-path="url(#clip0_23_35)">
<path d="M9.54056 1.78H7.09576V4.2248H9.54056V1.78Z" fill="#D4EEE3" stroke="#D4EEE3" stroke-width="1.28" stroke-miterlimit="10"/>
<path d="M4.04295 1.78H1.59814V4.2248H4.04295V1.78Z" fill="#D4EEE3" stroke="#D4EEE3" stroke-width="1.28" stroke-miterlimit="10"/>
<path d="M15.0382 1.78H12.5934V4.2248H15.0382V1.78Z" fill="#D4EEE3" stroke="#D4EEE3" stroke-width="1.28" stroke-miterlimit="10"/>
<path d="M9.54056 7.27762H7.09576V9.72242H9.54056V7.27762Z" fill="#D4EEE3" stroke="#D4EEE3" stroke-width="1.28" stroke-miterlimit="10"/>
<path d="M4.04295 7.27762H1.59814V9.72242H4.04295V7.27762Z" fill="#D4EEE3" stroke="#D4EEE3" stroke-width="1.28" stroke-miterlimit="10"/>
<path d="M15.0382 7.27762H12.5934V9.72242H15.0382V7.27762Z" fill="#D4EEE3" stroke="#D4EEE3" stroke-width="1.28" stroke-miterlimit="10"/>
<path d="M9.54056 12.7752H7.09576V15.22H9.54056V12.7752Z" fill="#D4EEE3" stroke="#D4EEE3" stroke-width="1.28" stroke-miterlimit="10"/>
<path d="M4.04295 12.7752H1.59814V15.22H4.04295V12.7752Z" fill="#D4EEE3" stroke="#D4EEE3" stroke-width="1.28" stroke-miterlimit="10"/>
<path d="M15.0382 12.7752H12.5934V15.22H15.0382V12.7752Z" fill="#D4EEE3" stroke="#D4EEE3" stroke-width="1.28" stroke-miterlimit="10"/>
</g>
<defs>
<clipPath id="clip0_23_35">
<rect width="15.36" height="15.36" fill="white" transform="translate(0.638184 0.82)"/>
</clipPath>
</defs>
</svg>
