<svg width="16" height="17" viewBox="0 0 16 17" fill="none" xmlns="http://www.w3.org/2000/svg">
<g clip-path="url(#clip0_23_40)">
<path d="M8.90055 1.78H6.45575V4.2248H8.90055V1.78Z" fill="#F3D7C2" stroke="#F3D7C2" stroke-width="1.28" stroke-miterlimit="10"/>
<path d="M3.40293 1.78H0.95813V4.2248H3.40293V1.78Z" fill="#F3D7C2" stroke="#F3D7C2" stroke-width="1.28" stroke-miterlimit="10"/>
<path d="M14.3982 1.78H11.9534V4.2248H14.3982V1.78Z" fill="#F3D7C2" stroke="#F3D7C2" stroke-width="1.28" stroke-miterlimit="10"/>
<path d="M8.90055 7.27762H6.45575V9.72242H8.90055V7.27762Z" fill="#F3D7C2" stroke="#F3D7C2" stroke-width="1.28" stroke-miterlimit="10"/>
<path d="M3.40293 7.27762H0.95813V9.72242H3.40293V7.27762Z" fill="#F3D7C2" stroke="#F3D7C2" stroke-width="1.28" stroke-miterlimit="10"/>
<path d="M14.3982 7.27762H11.9534V9.72242H14.3982V7.27762Z" fill="#F3D7C2" stroke="#F3D7C2" stroke-width="1.28" stroke-miterlimit="10"/>
<path d="M8.90055 12.7752H6.45575V15.22H8.90055V12.7752Z" fill="#F3D7C2" stroke="#F3D7C2" stroke-width="1.28" stroke-miterlimit="10"/>
<path d="M3.40293 12.7752H0.95813V15.22H3.40293V12.7752Z" fill="#F3D7C2" stroke="#F3D7C2" stroke-width="1.28" stroke-miterlimit="10"/>
<path d="M14.3982 12.7752H11.9534V15.22H14.3982V12.7752Z" fill="#F3D7C2" stroke="#F3D7C2" stroke-width="1.28" stroke-miterlimit="10"/>
</g>
<defs>
<clipPath id="clip0_23_40">
<rect width="15.36" height="15.36" fill="white" transform="translate(-0.00183105 0.82)"/>
</clipPath>
</defs>
</svg>
