<svg width="123" height="50" viewBox="0 0 123 50" fill="none" xmlns="http://www.w3.org/2000/svg">
<rect x="0.4" y="0.9" width="122.2" height="48.2" rx="15.6" stroke="#ECECEC" stroke-width="0.8"/>
<path d="M34.7188 29.2734V30.5H29.0313V29.2734H34.7188ZM29.3281 19.125V30.5H27.8203V19.125H29.3281ZM38.4544 30.6563C37.8658 30.6563 37.332 30.5573 36.8528 30.3594C36.3789 30.1562 35.97 29.8724 35.6263 29.5078C35.2877 29.1432 35.0273 28.7109 34.845 28.2109C34.6627 27.7109 34.5716 27.1641 34.5716 26.5703V26.2422C34.5716 25.5547 34.6731 24.9427 34.8763 24.4062C35.0794 23.8646 35.3554 23.4062 35.7044 23.0312C36.0533 22.6562 36.4492 22.3724 36.8919 22.1797C37.3346 21.987 37.7929 21.8906 38.2669 21.8906C38.871 21.8906 39.3919 21.9948 39.8294 22.2031C40.2721 22.4115 40.6341 22.7031 40.9153 23.0781C41.1966 23.4479 41.4049 23.8854 41.5403 24.3906C41.6757 24.8906 41.7434 25.4375 41.7434 26.0312V26.6797H35.4309V25.5H40.2981V25.3906C40.2773 25.0156 40.1992 24.651 40.0638 24.2969C39.9335 23.9427 39.7252 23.651 39.4388 23.4219C39.1523 23.1927 38.7617 23.0781 38.2669 23.0781C37.9388 23.0781 37.6367 23.1484 37.3606 23.2891C37.0846 23.4245 36.8476 23.6276 36.6497 23.8984C36.4518 24.1693 36.2981 24.5 36.1888 24.8906C36.0794 25.2812 36.0247 25.7318 36.0247 26.2422V26.5703C36.0247 26.9714 36.0794 27.349 36.1888 27.7031C36.3033 28.0521 36.4674 28.3594 36.6809 28.625C36.8997 28.8906 37.1627 29.099 37.47 29.25C37.7825 29.401 38.1367 29.4766 38.5325 29.4766C39.0429 29.4766 39.4752 29.3724 39.8294 29.1641C40.1835 28.9557 40.4934 28.6771 40.7591 28.3281L41.6341 29.0234C41.4518 29.2995 41.22 29.5625 40.9388 29.8125C40.6575 30.0625 40.3111 30.2656 39.8997 30.4219C39.4934 30.5781 39.0117 30.6563 38.4544 30.6563ZM47.1353 29.0547V24.7031C47.1353 24.3698 47.0676 24.0807 46.9322 23.8359C46.802 23.5859 46.6041 23.3932 46.3384 23.2578C46.0728 23.1224 45.7447 23.0547 45.3541 23.0547C44.9895 23.0547 44.6692 23.1172 44.3931 23.2422C44.1223 23.3672 43.9088 23.5312 43.7525 23.7344C43.6015 23.9375 43.5259 24.1562 43.5259 24.3906H42.0806C42.0806 24.0885 42.1588 23.7891 42.315 23.4922C42.4713 23.1953 42.6952 22.9271 42.9869 22.6875C43.2838 22.4427 43.6379 22.25 44.0494 22.1094C44.466 21.9635 44.9296 21.8906 45.44 21.8906C46.0546 21.8906 46.5963 21.9948 47.065 22.2031C47.539 22.4115 47.9088 22.7266 48.1744 23.1484C48.4452 23.5651 48.5806 24.0885 48.5806 24.7187V28.6562C48.5806 28.9375 48.6041 29.237 48.6509 29.5547C48.703 29.8724 48.7785 30.1458 48.8775 30.375V30.5H47.3697C47.2968 30.3333 47.2395 30.112 47.1978 29.8359C47.1561 29.5547 47.1353 29.2943 47.1353 29.0547ZM47.3853 25.375L47.4009 26.3906H45.94C45.5285 26.3906 45.1614 26.4245 44.8384 26.4922C44.5155 26.5547 44.2447 26.651 44.0259 26.7812C43.8072 26.9115 43.6405 27.0755 43.5259 27.2734C43.4114 27.4661 43.3541 27.6927 43.3541 27.9531C43.3541 28.2187 43.414 28.4609 43.5338 28.6797C43.6535 28.8984 43.8332 29.0729 44.0728 29.2031C44.3176 29.3281 44.6171 29.3906 44.9713 29.3906C45.414 29.3906 45.8046 29.2969 46.1431 29.1094C46.4817 28.9219 46.7499 28.6927 46.9478 28.4219C47.1509 28.151 47.2603 27.888 47.2759 27.6328L47.8931 28.3281C47.8567 28.5469 47.7577 28.7891 47.5963 29.0547C47.4348 29.3203 47.2186 29.5755 46.9478 29.8203C46.6822 30.0599 46.3645 30.2604 45.9947 30.4219C45.6301 30.5781 45.2186 30.6563 44.7603 30.6563C44.1874 30.6563 43.6848 30.5443 43.2525 30.3203C42.8254 30.0964 42.4921 29.7969 42.2525 29.4219C42.0181 29.0417 41.9009 28.6172 41.9009 28.1484C41.9009 27.6953 41.9895 27.2969 42.1666 26.9531C42.3436 26.6042 42.5989 26.3151 42.9322 26.0859C43.2655 25.8516 43.6666 25.6745 44.1353 25.5547C44.6041 25.4349 45.1275 25.375 45.7056 25.375H47.3853ZM51.0194 23.375V30.5H49.5741V22.0469H50.9803L51.0194 23.375ZM53.66 22L53.6522 23.3437C53.5324 23.3177 53.4178 23.3021 53.3084 23.2969C53.2043 23.2865 53.0845 23.2812 52.9491 23.2812C52.6157 23.2812 52.3215 23.3333 52.0663 23.4375C51.811 23.5417 51.5949 23.6875 51.4178 23.875C51.2407 24.0625 51.1001 24.2865 50.9959 24.5469C50.897 24.8021 50.8319 25.0833 50.8006 25.3906L50.3944 25.625C50.3944 25.1146 50.4439 24.6354 50.5428 24.1875C50.647 23.7396 50.8058 23.3437 51.0194 23C51.2329 22.651 51.5038 22.3802 51.8319 22.1875C52.1652 21.9896 52.561 21.8906 53.0194 21.8906C53.1235 21.8906 53.2433 21.9036 53.3788 21.9297C53.5142 21.9505 53.6079 21.974 53.66 22ZM55.1613 23.8516V30.5H53.7159V22.0469H55.0831L55.1613 23.8516ZM54.8175 25.9531L54.2159 25.9297C54.2211 25.3516 54.3071 24.8177 54.4738 24.3281C54.6404 23.8333 54.8748 23.4036 55.1769 23.0391C55.479 22.6745 55.8383 22.3932 56.255 22.1953C56.6769 21.9922 57.143 21.8906 57.6534 21.8906C58.0701 21.8906 58.4451 21.9479 58.7784 22.0625C59.1118 22.1719 59.3956 22.349 59.63 22.5937C59.8696 22.8385 60.0519 23.1562 60.1769 23.5469C60.3019 23.9323 60.3644 24.4036 60.3644 24.9609V30.5H58.9113V24.9453C58.9113 24.5026 58.8461 24.1484 58.7159 23.8828C58.5857 23.612 58.3956 23.4167 58.1456 23.2969C57.8956 23.1719 57.5883 23.1094 57.2238 23.1094C56.8644 23.1094 56.5363 23.1849 56.2394 23.3359C55.9477 23.487 55.6951 23.6953 55.4816 23.9609C55.2732 24.2266 55.1092 24.5312 54.9894 24.875C54.8748 25.2135 54.8175 25.5729 54.8175 25.9531ZM64.6638 19.125H66.1247L69.8513 28.3984L73.57 19.125H75.0388L70.4138 30.5H69.2731L64.6638 19.125ZM64.1872 19.125H65.4763L65.6872 26.0625V30.5H64.1872V19.125ZM74.2184 19.125H75.5075V30.5H74.0075V26.0625L74.2184 19.125ZM76.2744 26.3672V26.1875C76.2744 25.5781 76.3629 25.013 76.54 24.4922C76.7171 23.9661 76.9723 23.5104 77.3056 23.125C77.639 22.7344 78.0426 22.4323 78.5166 22.2187C78.9905 22 79.5218 21.8906 80.1103 21.8906C80.7041 21.8906 81.2379 22 81.7119 22.2187C82.191 22.4323 82.5973 22.7344 82.9306 23.125C83.2692 23.5104 83.527 23.9661 83.7041 24.4922C83.8812 25.013 83.9697 25.5781 83.9697 26.1875V26.3672C83.9697 26.9766 83.8812 27.5417 83.7041 28.0625C83.527 28.5833 83.2692 29.0391 82.9306 29.4297C82.5973 29.8151 82.1937 30.1172 81.7197 30.3359C81.2509 30.5495 80.7197 30.6563 80.1259 30.6563C79.5322 30.6563 78.9983 30.5495 78.5244 30.3359C78.0504 30.1172 77.6442 29.8151 77.3056 29.4297C76.9723 29.0391 76.7171 28.5833 76.54 28.0625C76.3629 27.5417 76.2744 26.9766 76.2744 26.3672ZM77.7197 26.1875V26.3672C77.7197 26.7891 77.7692 27.1875 77.8681 27.5625C77.9671 27.9323 78.1155 28.2604 78.3134 28.5469C78.5166 28.8333 78.7692 29.0599 79.0713 29.2266C79.3733 29.388 79.7249 29.4687 80.1259 29.4687C80.5218 29.4687 80.8681 29.388 81.165 29.2266C81.4671 29.0599 81.7171 28.8333 81.915 28.5469C82.1129 28.2604 82.2614 27.9323 82.3603 27.5625C82.4645 27.1875 82.5166 26.7891 82.5166 26.3672V26.1875C82.5166 25.7708 82.4645 25.3776 82.3603 25.0078C82.2614 24.6328 82.1103 24.3021 81.9072 24.0156C81.7093 23.724 81.4593 23.4948 81.1572 23.3281C80.8603 23.1615 80.5114 23.0781 80.1103 23.0781C79.7145 23.0781 79.3655 23.1615 79.0634 23.3281C78.7666 23.4948 78.5166 23.724 78.3134 24.0156C78.1155 24.3021 77.9671 24.6328 77.8681 25.0078C77.7692 25.3776 77.7197 25.7708 77.7197 26.1875ZM85.9475 23.375V30.5H84.5022V22.0469H85.9084L85.9475 23.375ZM88.5881 22L88.5803 23.3437C88.4605 23.3177 88.3459 23.3021 88.2366 23.2969C88.1324 23.2865 88.0126 23.2812 87.8772 23.2812C87.5439 23.2812 87.2496 23.3333 86.9944 23.4375C86.7392 23.5417 86.523 23.6875 86.3459 23.875C86.1689 24.0625 86.0282 24.2865 85.9241 24.5469C85.8251 24.8021 85.76 25.0833 85.7288 25.3906L85.3225 25.625C85.3225 25.1146 85.372 24.6354 85.4709 24.1875C85.5751 23.7396 85.734 23.3437 85.9475 23C86.161 22.651 86.4319 22.3802 86.76 22.1875C87.0933 21.9896 87.4892 21.8906 87.9475 21.8906C88.0517 21.8906 88.1715 21.9036 88.3069 21.9297C88.4423 21.9505 88.536 21.974 88.5881 22ZM91.9956 30.6563C91.4071 30.6563 90.8732 30.5573 90.3941 30.3594C89.9201 30.1562 89.5113 29.8724 89.1675 29.5078C88.829 29.1432 88.5685 28.7109 88.3863 28.2109C88.204 27.7109 88.1128 27.1641 88.1128 26.5703V26.2422C88.1128 25.5547 88.2144 24.9427 88.4175 24.4062C88.6206 23.8646 88.8967 23.4062 89.2456 23.0312C89.5946 22.6562 89.9904 22.3724 90.4331 22.1797C90.8758 21.987 91.3342 21.8906 91.8081 21.8906C92.4123 21.8906 92.9331 21.9948 93.3706 22.2031C93.8133 22.4115 94.1753 22.7031 94.4566 23.0781C94.7378 23.4479 94.9462 23.8854 95.0816 24.3906C95.217 24.8906 95.2847 25.4375 95.2847 26.0312V26.6797H88.9722V25.5H93.8394V25.3906C93.8185 25.0156 93.7404 24.651 93.605 24.2969C93.4748 23.9427 93.2665 23.651 92.98 23.4219C92.6935 23.1927 92.3029 23.0781 91.8081 23.0781C91.48 23.0781 91.1779 23.1484 90.9019 23.2891C90.6258 23.4245 90.3889 23.6276 90.1909 23.8984C89.993 24.1693 89.8394 24.5 89.73 24.8906C89.6206 25.2812 89.5659 25.7318 89.5659 26.2422V26.5703C89.5659 26.9714 89.6206 27.349 89.73 27.7031C89.8446 28.0521 90.0087 28.3594 90.2222 28.625C90.4409 28.8906 90.704 29.099 91.0113 29.25C91.3238 29.401 91.6779 29.4766 92.0738 29.4766C92.5842 29.4766 93.0165 29.3724 93.3706 29.1641C93.7248 28.9557 94.0347 28.6771 94.3003 28.3281L95.1753 29.0234C94.993 29.2995 94.7613 29.5625 94.48 29.8125C94.1988 30.0625 93.8524 30.2656 93.4409 30.4219C93.0347 30.5781 92.5529 30.6563 91.9956 30.6563Z" fill="black"/>
</svg>
