<svg width="67" height="33" viewBox="0 0 67 33" fill="none" xmlns="http://www.w3.org/2000/svg">
<rect y="0.5" width="67" height="32" rx="16" fill="#F3D7C2"/>
<path d="M23.8133 18.8188V20H19.8102V18.8188H23.8133ZM20.2641 12.0375V20H18.7602V12.0375H20.2641ZM24.4531 17.1016V16.9867C24.4531 16.5529 24.5151 16.1536 24.6391 15.7891C24.763 15.4208 24.9435 15.1018 25.1805 14.832C25.4174 14.5622 25.7073 14.3526 26.05 14.2031C26.3927 14.05 26.7828 13.9734 27.2203 13.9734C27.6651 13.9734 28.0589 14.05 28.4016 14.2031C28.7479 14.3526 29.0396 14.5622 29.2766 14.832C29.5135 15.1018 29.694 15.4208 29.818 15.7891C29.9419 16.1536 30.0039 16.5529 30.0039 16.9867V17.1016C30.0039 17.5318 29.9419 17.931 29.818 18.2992C29.694 18.6638 29.5135 18.9828 29.2766 19.2563C29.0396 19.526 28.7497 19.7357 28.407 19.8852C28.0643 20.0346 27.6724 20.1094 27.2312 20.1094C26.7937 20.1094 26.4018 20.0346 26.0555 19.8852C25.7091 19.7357 25.4174 19.526 25.1805 19.2563C24.9435 18.9828 24.763 18.6638 24.6391 18.2992C24.5151 17.931 24.4531 17.5318 24.4531 17.1016ZM25.8969 16.9867V17.1016C25.8969 17.3604 25.9224 17.6029 25.9734 17.8289C26.0245 18.0549 26.1029 18.2536 26.2086 18.425C26.3143 18.5964 26.451 18.7313 26.6187 18.8297C26.7901 18.9245 26.9943 18.9719 27.2312 18.9719C27.4646 18.9719 27.6651 18.9245 27.8328 18.8297C28.0005 18.7313 28.1372 18.5964 28.243 18.425C28.3523 18.2536 28.4326 18.0549 28.4836 17.8289C28.5346 17.6029 28.5602 17.3604 28.5602 17.1016V16.9867C28.5602 16.7315 28.5346 16.4927 28.4836 16.2703C28.4326 16.0443 28.3523 15.8456 28.243 15.6742C28.1372 15.4992 27.9987 15.3625 27.8273 15.2641C27.6596 15.162 27.4573 15.1109 27.2203 15.1109C26.987 15.1109 26.7865 15.162 26.6187 15.2641C26.451 15.3625 26.3143 15.4992 26.2086 15.6742C26.1029 15.8456 26.0245 16.0443 25.9734 16.2703C25.9224 16.4927 25.8969 16.7315 25.8969 16.9867ZM34.8164 14.0828H36.1289V19.8195C36.1289 20.3555 36.0122 20.8094 35.7789 21.1812C35.5492 21.5568 35.2266 21.8411 34.8109 22.0344C34.3953 22.2312 33.9122 22.3297 33.3617 22.3297C33.1247 22.3297 32.8677 22.2969 32.5906 22.2312C32.3172 22.1656 32.0529 22.0617 31.7977 21.9195C31.5461 21.781 31.3365 21.6005 31.1687 21.3781L31.8195 20.525C32.0164 20.7547 32.2388 20.9279 32.4867 21.0445C32.7346 21.1648 33.0026 21.225 33.2906 21.225C33.5823 21.225 33.8302 21.1703 34.0344 21.0609C34.2422 20.9552 34.4008 20.7984 34.5102 20.5906C34.6232 20.3865 34.6797 20.1349 34.6797 19.8359V15.4336L34.8164 14.0828ZM30.8187 17.1125V16.9977C30.8187 16.5456 30.8734 16.1354 30.9828 15.7672C31.0922 15.3953 31.249 15.0763 31.4531 14.8102C31.6609 14.544 31.9107 14.338 32.2023 14.1922C32.4977 14.0464 32.8294 13.9734 33.1977 13.9734C33.5878 13.9734 33.9159 14.0445 34.182 14.1867C34.4518 14.3289 34.6742 14.5313 34.8492 14.7938C35.0279 15.0563 35.1664 15.368 35.2648 15.7289C35.3669 16.0862 35.4453 16.4799 35.5 16.9102V17.2219C35.449 17.6411 35.3669 18.0258 35.2539 18.3758C35.1445 18.7258 34.9987 19.032 34.8164 19.2945C34.6341 19.5534 34.4081 19.7539 34.1383 19.8961C33.8685 20.0383 33.5513 20.1094 33.1867 20.1094C32.8221 20.1094 32.494 20.0346 32.2023 19.8852C31.9107 19.7357 31.6609 19.526 31.4531 19.2563C31.249 18.9865 31.0922 18.6693 30.9828 18.3047C30.8734 17.9401 30.8187 17.5427 30.8187 17.1125ZM32.2625 16.9977V17.1125C32.2625 17.3677 32.288 17.6065 32.3391 17.8289C32.3901 18.0513 32.4685 18.2482 32.5742 18.4195C32.6799 18.5872 32.813 18.7185 32.9734 18.8133C33.1339 18.9081 33.3253 18.9555 33.5477 18.9555C33.8466 18.9555 34.0909 18.8935 34.2805 18.7695C34.4737 18.6419 34.6195 18.4688 34.718 18.25C34.8201 18.0276 34.8857 17.7779 34.9148 17.5008V16.6422C34.8966 16.4234 34.8565 16.2211 34.7945 16.0352C34.7362 15.8492 34.6542 15.6888 34.5484 15.5539C34.4427 15.419 34.3078 15.3133 34.1437 15.2367C33.9797 15.1602 33.7846 15.1219 33.5586 15.1219C33.3398 15.1219 33.1484 15.1711 32.9844 15.2695C32.8203 15.3643 32.6854 15.4974 32.5797 15.6688C32.474 15.8401 32.3937 16.0388 32.3391 16.2648C32.288 16.4909 32.2625 16.7352 32.2625 16.9977ZM41.7508 14.0828V20H40.3016V14.0828H41.7508ZM40.2031 12.5352C40.2031 12.3201 40.276 12.1414 40.4219 11.9992C40.5714 11.857 40.7719 11.7859 41.0234 11.7859C41.275 11.7859 41.4737 11.857 41.6195 11.9992C41.769 12.1414 41.8438 12.3201 41.8438 12.5352C41.8438 12.7466 41.769 12.9234 41.6195 13.0656C41.4737 13.2078 41.275 13.2789 41.0234 13.2789C40.7719 13.2789 40.5714 13.2078 40.4219 13.0656C40.276 12.9234 40.2031 12.7466 40.2031 12.5352ZM44.5453 15.3461V20H43.1016V14.0828H44.4578L44.5453 15.3461ZM44.3156 16.8281H43.8891C43.8927 16.3979 43.951 16.0078 44.0641 15.6578C44.1771 15.3078 44.3357 15.007 44.5398 14.7555C44.7477 14.5039 44.9937 14.3107 45.2781 14.1758C45.5625 14.0409 45.8797 13.9734 46.2297 13.9734C46.5141 13.9734 46.7711 14.0135 47.0008 14.0938C47.2305 14.174 47.4273 14.3016 47.5914 14.4766C47.7591 14.6516 47.8867 14.8813 47.9742 15.1656C48.0654 15.4464 48.1109 15.7927 48.1109 16.2047V20H46.6562V16.1938C46.6562 15.924 46.6161 15.7107 46.5359 15.5539C46.4594 15.3971 46.3464 15.2859 46.1969 15.2203C46.051 15.1547 45.8706 15.1219 45.6555 15.1219C45.4331 15.1219 45.238 15.1674 45.0703 15.2586C44.9062 15.3461 44.7677 15.4682 44.6547 15.625C44.5453 15.7818 44.4615 15.9622 44.4031 16.1664C44.3448 16.3706 44.3156 16.5911 44.3156 16.8281Z" fill="black"/>
</svg>
