<svg width="195" height="55" viewBox="0 0 195 55" fill="none" xmlns="http://www.w3.org/2000/svg">
<rect x="6" y="6" width="189" height="49" rx="16" fill="#D4EEE3"/>
<path d="M41.0234 24.625H42.8828L45.9922 33.1875L49.0938 24.625H50.9609L46.7344 36H45.2422L41.0234 24.625ZM40.0859 24.625H41.9063L42.2344 32.4922V36H40.0859V24.625ZM50.0703 24.625H51.8984V36H49.75V32.4922L50.0703 24.625ZM56.4466 36.1563C55.8059 36.1563 55.2304 36.0521 54.72 35.8437C54.2096 35.6354 53.7747 35.3464 53.4153 34.9766C53.0611 34.6016 52.7877 34.1667 52.595 33.6719C52.4075 33.1719 52.3138 32.6354 52.3138 32.0625V31.75C52.3138 31.099 52.4075 30.5078 52.595 29.9766C52.7825 29.4401 53.0481 28.9792 53.3919 28.5937C53.7356 28.2083 54.1471 27.9115 54.6263 27.7031C55.1054 27.4948 55.6341 27.3906 56.2122 27.3906C56.8111 27.3906 57.3398 27.4922 57.7981 27.6953C58.2565 27.8932 58.6393 28.1745 58.9466 28.5391C59.2539 28.9036 59.4856 29.3411 59.6419 29.8516C59.7981 30.3568 59.8763 30.9167 59.8763 31.5312V32.3984H53.2513V30.9766H57.845V30.8203C57.8346 30.4922 57.7721 30.1927 57.6575 29.9219C57.5429 29.6458 57.3658 29.4271 57.1263 29.2656C56.8867 29.099 56.5768 29.0156 56.1966 29.0156C55.8893 29.0156 55.621 29.0833 55.3919 29.2187C55.1679 29.349 54.9804 29.5365 54.8294 29.7812C54.6835 30.0208 54.5742 30.3073 54.5013 30.6406C54.4283 30.974 54.3919 31.3437 54.3919 31.75V32.0625C54.3919 32.4167 54.4388 32.7448 54.5325 33.0469C54.6315 33.349 54.7747 33.612 54.9622 33.8359C55.1549 34.0547 55.3841 34.2266 55.6497 34.3516C55.9205 34.4714 56.2278 34.5312 56.5716 34.5312C57.0039 34.5312 57.3945 34.4479 57.7434 34.2812C58.0976 34.1094 58.4049 33.8568 58.6653 33.5234L59.7044 34.6016C59.5273 34.862 59.2877 35.112 58.9856 35.3516C58.6888 35.5911 58.3294 35.7865 57.9075 35.9375C57.4856 36.0833 56.9986 36.1563 56.4466 36.1563ZM63.7759 36.1563C63.1353 36.1563 62.5598 36.0521 62.0494 35.8437C61.539 35.6354 61.1041 35.3464 60.7447 34.9766C60.3905 34.6016 60.1171 34.1667 59.9244 33.6719C59.7369 33.1719 59.6431 32.6354 59.6431 32.0625V31.75C59.6431 31.099 59.7369 30.5078 59.9244 29.9766C60.1119 29.4401 60.3775 28.9792 60.7213 28.5937C61.065 28.2083 61.4765 27.9115 61.9556 27.7031C62.4348 27.4948 62.9634 27.3906 63.5416 27.3906C64.1405 27.3906 64.6692 27.4922 65.1275 27.6953C65.5858 27.8932 65.9686 28.1745 66.2759 28.5391C66.5832 28.9036 66.815 29.3411 66.9713 29.8516C67.1275 30.3568 67.2056 30.9167 67.2056 31.5312V32.3984H60.5806V30.9766H65.1744V30.8203C65.164 30.4922 65.1015 30.1927 64.9869 29.9219C64.8723 29.6458 64.6952 29.4271 64.4556 29.2656C64.216 29.099 63.9061 29.0156 63.5259 29.0156C63.2186 29.0156 62.9504 29.0833 62.7213 29.2187C62.4973 29.349 62.3098 29.5365 62.1588 29.7812C62.0129 30.0208 61.9035 30.3073 61.8306 30.6406C61.7577 30.974 61.7213 31.3437 61.7213 31.75V32.0625C61.7213 32.4167 61.7681 32.7448 61.8619 33.0469C61.9608 33.349 62.1041 33.612 62.2916 33.8359C62.4843 34.0547 62.7134 34.2266 62.9791 34.3516C63.2499 34.4714 63.5572 34.5312 63.9009 34.5312C64.3332 34.5312 64.7239 34.4479 65.0728 34.2812C65.427 34.1094 65.7343 33.8568 65.9947 33.5234L67.0338 34.6016C66.8567 34.862 66.6171 35.112 66.315 35.3516C66.0181 35.5911 65.6588 35.7865 65.2369 35.9375C64.815 36.0833 64.328 36.1563 63.7759 36.1563ZM71.3084 27.5469V29.0312H66.4647V27.5469H71.3084ZM67.7616 25.4687H69.8319V33.5625C69.8319 33.8125 69.8657 34.0052 69.9334 34.1406C70.0011 34.276 70.1027 34.3672 70.2381 34.4141C70.3735 34.4609 70.535 34.4844 70.7225 34.4844C70.8579 34.4844 70.9829 34.4766 71.0975 34.4609C71.2121 34.4453 71.3084 34.4297 71.3866 34.4141L71.3944 35.9609C71.2225 36.0182 71.0272 36.0651 70.8084 36.1016C70.5949 36.138 70.3527 36.1563 70.0819 36.1563C69.6183 36.1563 69.2121 36.0781 68.8631 35.9219C68.5142 35.7604 68.2433 35.5026 68.0506 35.1484C67.8579 34.7891 67.7616 34.3151 67.7616 33.7266V25.4687ZM75.5922 24.625L78.0922 29.9297L80.6078 24.625H82.9672L79.1859 31.8359V36H77.0063V31.8359L73.2172 24.625H75.5922ZM81.7888 31.8594V31.6953C81.7888 31.0755 81.8773 30.5052 82.0544 29.9844C82.2315 29.4583 82.4893 29.0026 82.8278 28.6172C83.1664 28.2318 83.5804 27.9323 84.07 27.7187C84.5596 27.5 85.1169 27.3906 85.7419 27.3906C86.3773 27.3906 86.9398 27.5 87.4294 27.7187C87.9242 27.9323 88.3408 28.2318 88.6794 28.6172C89.0179 29.0026 89.2757 29.4583 89.4528 29.9844C89.6299 30.5052 89.7184 31.0755 89.7184 31.6953V31.8594C89.7184 32.474 89.6299 33.0443 89.4528 33.5703C89.2757 34.0911 89.0179 34.5469 88.6794 34.9375C88.3408 35.3229 87.9268 35.6224 87.4372 35.8359C86.9476 36.0495 86.3877 36.1563 85.7575 36.1563C85.1325 36.1563 84.5726 36.0495 84.0778 35.8359C83.583 35.6224 83.1664 35.3229 82.8278 34.9375C82.4893 34.5469 82.2315 34.0911 82.0544 33.5703C81.8773 33.0443 81.7888 32.474 81.7888 31.8594ZM83.8513 31.6953V31.8594C83.8513 32.2292 83.8877 32.5755 83.9606 32.8984C84.0335 33.2214 84.1455 33.5052 84.2966 33.75C84.4476 33.9948 84.6429 34.1875 84.8825 34.3281C85.1273 34.4635 85.419 34.5312 85.7575 34.5312C86.0908 34.5312 86.3773 34.4635 86.6169 34.3281C86.8565 34.1875 87.0518 33.9948 87.2028 33.75C87.3591 33.5052 87.4737 33.2214 87.5466 32.8984C87.6195 32.5755 87.6559 32.2292 87.6559 31.8594V31.6953C87.6559 31.3307 87.6195 30.9896 87.5466 30.6719C87.4737 30.349 87.3591 30.0651 87.2028 29.8203C87.0518 29.5703 86.8539 29.375 86.6091 29.2344C86.3695 29.0885 86.0804 29.0156 85.7419 29.0156C85.4085 29.0156 85.1221 29.0885 84.8825 29.2344C84.6429 29.375 84.4476 29.5703 84.2966 29.8203C84.1455 30.0651 84.0335 30.349 83.9606 30.6719C83.8877 30.9896 83.8513 31.3307 83.8513 31.6953ZM94.9697 33.9922V27.5469H97.0478V36H95.0947L94.9697 33.9922ZM95.2353 32.2422L95.8759 32.2266C95.8759 32.7943 95.8134 33.3177 95.6884 33.7969C95.5634 34.276 95.3681 34.6927 95.1025 35.0469C94.8421 35.3958 94.5114 35.6693 94.1103 35.8672C93.7093 36.0599 93.2353 36.1563 92.6884 36.1563C92.2718 36.1563 91.8916 36.099 91.5478 35.9844C91.2041 35.8646 90.9072 35.6797 90.6572 35.4297C90.4124 35.1745 90.2223 34.849 90.0869 34.4531C89.9515 34.0521 89.8838 33.5703 89.8838 33.0078V27.5469H91.9463V33.0234C91.9463 33.3047 91.9775 33.5391 92.04 33.7266C92.1077 33.9141 92.1989 34.0677 92.3134 34.1875C92.4332 34.3021 92.5713 34.3854 92.7275 34.4375C92.889 34.4844 93.0608 34.5078 93.2431 34.5078C93.7431 34.5078 94.1364 34.4089 94.4228 34.2109C94.7145 34.0078 94.9228 33.737 95.0478 33.3984C95.1728 33.0547 95.2353 32.6693 95.2353 32.2422ZM99.6584 29.2734V36H97.5959V27.5469H99.5491L99.6584 29.2734ZM102.229 27.4922L102.198 29.4141C102.083 29.3932 101.953 29.3776 101.807 29.3672C101.666 29.3568 101.533 29.3516 101.408 29.3516C101.091 29.3516 100.812 29.3958 100.573 29.4844C100.333 29.5677 100.132 29.6901 99.9709 29.8516C99.8147 30.013 99.6949 30.2109 99.6116 30.4453C99.5282 30.6745 99.4814 30.9349 99.4709 31.2266L99.0256 31.1719C99.0256 30.6354 99.0803 30.138 99.1897 29.6797C99.2991 29.2214 99.4579 28.8203 99.6663 28.4766C99.8746 28.1328 100.135 27.8672 100.448 27.6797C100.765 27.487 101.13 27.3906 101.541 27.3906C101.656 27.3906 101.778 27.401 101.908 27.4219C102.044 27.4375 102.151 27.4609 102.229 27.4922ZM109.434 24.625V36H107.294V24.625H109.434ZM112.966 24.625V26.3203H103.802V24.625H112.966ZM114.983 24V36H112.912V24H114.983ZM114.654 31.4687H114.045C114.045 30.8802 114.123 30.3385 114.279 29.8437C114.436 29.349 114.657 28.9193 114.943 28.5547C115.23 28.1849 115.571 27.8984 115.967 27.6953C116.368 27.4922 116.811 27.3906 117.295 27.3906C117.712 27.3906 118.089 27.4505 118.428 27.5703C118.772 27.6849 119.066 27.8698 119.311 28.125C119.555 28.3802 119.743 28.7135 119.873 29.125C120.009 29.5312 120.076 30.026 120.076 30.6094V36H117.998V30.5937C117.998 30.2031 117.941 29.8958 117.826 29.6719C117.712 29.4427 117.548 29.2786 117.334 29.1797C117.126 29.0807 116.868 29.0312 116.561 29.0312C116.227 29.0312 115.941 29.0964 115.701 29.2266C115.462 29.3516 115.264 29.526 115.108 29.75C114.956 29.974 114.842 30.2318 114.764 30.5234C114.691 30.8151 114.654 31.1302 114.654 31.4687ZM124.413 36.1563C123.773 36.1563 123.197 36.0521 122.687 35.8437C122.176 35.6354 121.742 35.3464 121.382 34.9766C121.028 34.6016 120.755 34.1667 120.562 33.6719C120.374 33.1719 120.281 32.6354 120.281 32.0625V31.75C120.281 31.099 120.374 30.5078 120.562 29.9766C120.749 29.4401 121.015 28.9792 121.359 28.5937C121.703 28.2083 122.114 27.9115 122.593 27.7031C123.072 27.4948 123.601 27.3906 124.179 27.3906C124.778 27.3906 125.307 27.4922 125.765 27.6953C126.223 27.8932 126.606 28.1745 126.913 28.5391C127.221 28.9036 127.453 29.3411 127.609 29.8516C127.765 30.3568 127.843 30.9167 127.843 31.5312V32.3984H121.218V30.9766H125.812V30.8203C125.801 30.4922 125.739 30.1927 125.624 29.9219C125.51 29.6458 125.333 29.4271 125.093 29.2656C124.854 29.099 124.544 29.0156 124.163 29.0156C123.856 29.0156 123.588 29.0833 123.359 29.2187C123.135 29.349 122.947 29.5365 122.796 29.7812C122.65 30.0208 122.541 30.3073 122.468 30.6406C122.395 30.974 122.359 31.3437 122.359 31.75V32.0625C122.359 32.4167 122.406 32.7448 122.499 33.0469C122.598 33.349 122.742 33.612 122.929 33.8359C123.122 34.0547 123.351 34.2266 123.617 34.3516C123.887 34.4714 124.195 34.5312 124.538 34.5312C124.971 34.5312 125.361 34.4479 125.71 34.2812C126.064 34.1094 126.372 33.8568 126.632 33.5234L127.671 34.6016C127.494 34.862 127.255 35.112 126.953 35.3516C126.656 35.5911 126.296 35.7865 125.874 35.9375C125.453 36.0833 124.966 36.1563 124.413 36.1563ZM130.008 29.2734V36H127.946V27.5469H129.899L130.008 29.2734ZM132.579 27.4922L132.548 29.4141C132.433 29.3932 132.303 29.3776 132.157 29.3672C132.016 29.3568 131.883 29.3516 131.758 29.3516C131.441 29.3516 131.162 29.3958 130.923 29.4844C130.683 29.5677 130.482 29.6901 130.321 29.8516C130.165 30.013 130.045 30.2109 129.962 30.4453C129.878 30.6745 129.831 30.9349 129.821 31.2266L129.376 31.1719C129.376 30.6354 129.43 30.138 129.54 29.6797C129.649 29.2214 129.808 28.8203 130.016 28.4766C130.225 28.1328 130.485 27.8672 130.798 27.6797C131.115 27.487 131.48 27.3906 131.891 27.3906C132.006 27.3906 132.128 27.401 132.258 27.4219C132.394 27.4375 132.501 27.4609 132.579 27.4922ZM136.822 34.2031V30.3047C136.822 30.0182 136.773 29.7708 136.674 29.5625C136.575 29.3542 136.424 29.1927 136.221 29.0781C136.018 28.9635 135.76 28.9062 135.447 28.9062C135.171 28.9062 134.929 28.9531 134.721 29.0469C134.518 29.1406 134.361 29.2734 134.252 29.4453C134.143 29.612 134.088 29.8047 134.088 30.0234H132.018C132.018 29.6745 132.101 29.3437 132.268 29.0312C132.434 28.7135 132.671 28.4323 132.978 28.1875C133.291 27.9375 133.663 27.7422 134.096 27.6016C134.533 27.4609 135.023 27.3906 135.564 27.3906C136.205 27.3906 136.775 27.5 137.275 27.7187C137.781 27.9323 138.176 28.2552 138.463 28.6875C138.754 29.1198 138.9 29.6641 138.9 30.3203V34.0078C138.9 34.4297 138.926 34.7917 138.978 35.0937C139.036 35.3906 139.119 35.6484 139.228 35.8672V36H137.127C137.028 35.7865 136.952 35.5156 136.9 35.1875C136.848 34.8542 136.822 34.526 136.822 34.2031ZM137.111 30.8516L137.127 32.0781H135.822C135.499 32.0781 135.215 32.112 134.971 32.1797C134.726 32.2422 134.525 32.3359 134.369 32.4609C134.213 32.5807 134.096 32.7266 134.018 32.8984C133.939 33.0651 133.9 33.2552 133.9 33.4687C133.9 33.6771 133.947 33.8646 134.041 34.0312C134.14 34.1979 134.281 34.3307 134.463 34.4297C134.65 34.5234 134.869 34.5703 135.119 34.5703C135.484 34.5703 135.801 34.4974 136.072 34.3516C136.343 34.2005 136.554 34.0182 136.705 33.8047C136.856 33.5911 136.937 33.388 136.947 33.1953L137.541 34.0859C137.468 34.2995 137.359 34.526 137.213 34.7656C137.067 35.0052 136.879 35.2292 136.65 35.4375C136.421 35.6458 136.145 35.8177 135.822 35.9531C135.499 36.0885 135.124 36.1563 134.697 36.1563C134.15 36.1563 133.661 36.0469 133.228 35.8281C132.796 35.6094 132.455 35.3099 132.205 34.9297C131.955 34.5495 131.83 34.1172 131.83 33.6328C131.83 33.1849 131.913 32.7891 132.08 32.4453C132.247 32.1016 132.494 31.8125 132.822 31.5781C133.15 31.3385 133.557 31.1589 134.041 31.0391C134.531 30.9141 135.09 30.8516 135.721 30.8516H137.111ZM141.542 29.1719V39.25H139.472V27.5469H141.386L141.542 29.1719ZM146.972 31.6875V31.8516C146.972 32.4661 146.899 33.0365 146.753 33.5625C146.613 34.0833 146.404 34.5391 146.128 34.9297C145.852 35.3151 145.508 35.6172 145.097 35.8359C144.691 36.0495 144.222 36.1563 143.691 36.1563C143.17 36.1563 142.717 36.0573 142.331 35.8594C141.946 35.6562 141.62 35.3698 141.355 35C141.089 34.6302 140.876 34.2005 140.714 33.7109C140.558 33.2161 140.441 32.6771 140.363 32.0937V31.5703C140.441 30.9505 140.558 30.388 140.714 29.8828C140.876 29.3724 141.089 28.9323 141.355 28.5625C141.62 28.1875 141.943 27.8984 142.323 27.6953C142.709 27.4922 143.159 27.3906 143.675 27.3906C144.211 27.3906 144.683 27.4922 145.089 27.6953C145.501 27.8984 145.847 28.1901 146.128 28.5703C146.409 28.9505 146.62 29.4036 146.761 29.9297C146.902 30.4557 146.972 31.0417 146.972 31.6875ZM144.902 31.8516V31.6875C144.902 31.3125 144.868 30.9661 144.8 30.6484C144.732 30.3255 144.628 30.0443 144.488 29.8047C144.347 29.5599 144.165 29.3698 143.941 29.2344C143.717 29.099 143.446 29.0312 143.128 29.0312C142.81 29.0312 142.537 29.0833 142.308 29.1875C142.079 29.2917 141.891 29.4401 141.745 29.6328C141.599 29.8255 141.485 30.0547 141.402 30.3203C141.323 30.5807 141.271 30.8698 141.245 31.1875V32.4844C141.292 32.8698 141.383 33.2161 141.519 33.5234C141.654 33.8307 141.852 34.0755 142.113 34.2578C142.378 34.4401 142.722 34.5312 143.144 34.5312C143.461 34.5312 143.732 34.4609 143.956 34.3203C144.18 34.1797 144.363 33.987 144.503 33.7422C144.644 33.4922 144.745 33.2057 144.808 32.8828C144.87 32.5599 144.902 32.2161 144.902 31.8516ZM149.387 27.5469V36H147.317V27.5469H149.387ZM147.176 25.3359C147.176 25.0286 147.28 24.7734 147.489 24.5703C147.702 24.3672 147.989 24.2656 148.348 24.2656C148.708 24.2656 148.991 24.3672 149.2 24.5703C149.413 24.7734 149.52 25.0286 149.52 25.3359C149.52 25.638 149.413 25.8906 149.2 26.0937C148.991 26.2969 148.708 26.3984 148.348 26.3984C147.989 26.3984 147.702 26.2969 147.489 26.0937C147.28 25.8906 147.176 25.638 147.176 25.3359ZM154.724 33.6875C154.724 33.5104 154.678 33.3516 154.584 33.2109C154.49 33.0703 154.313 32.9427 154.053 32.8281C153.797 32.7083 153.422 32.5964 152.928 32.4922C152.49 32.3984 152.086 32.2812 151.717 32.1406C151.347 32 151.029 31.8307 150.763 31.6328C150.498 31.4297 150.289 31.1927 150.138 30.9219C149.993 30.6458 149.92 30.3281 149.92 29.9687C149.92 29.6198 149.995 29.2917 150.146 28.9844C150.297 28.6719 150.516 28.3984 150.803 28.1641C151.089 27.9245 151.438 27.737 151.849 27.6016C152.261 27.4609 152.724 27.3906 153.24 27.3906C153.959 27.3906 154.576 27.5078 155.092 27.7422C155.612 27.9766 156.011 28.2995 156.287 28.7109C156.563 29.1172 156.701 29.5755 156.701 30.0859H154.638C154.638 29.862 154.586 29.6589 154.482 29.4766C154.383 29.2943 154.23 29.1484 154.021 29.0391C153.813 28.9245 153.55 28.8672 153.232 28.8672C152.946 28.8672 152.704 28.9141 152.506 29.0078C152.313 29.1016 152.167 29.224 152.068 29.375C151.969 29.526 151.92 29.6927 151.92 29.875C151.92 30.0104 151.946 30.1328 151.998 30.2422C152.055 30.3464 152.146 30.4427 152.271 30.5312C152.396 30.6198 152.566 30.7005 152.779 30.7734C152.998 30.8464 153.266 30.9167 153.584 30.9844C154.214 31.1094 154.763 31.276 155.232 31.4844C155.706 31.6875 156.076 31.9583 156.342 32.2969C156.607 32.6354 156.74 33.0677 156.74 33.5937C156.74 33.9687 156.659 34.3125 156.498 34.625C156.336 34.9323 156.102 35.2005 155.795 35.4297C155.487 35.6589 155.12 35.8385 154.693 35.9687C154.266 36.0938 153.784 36.1563 153.248 36.1563C152.472 36.1563 151.816 36.0182 151.279 35.7422C150.743 35.4609 150.336 35.1068 150.06 34.6797C149.784 34.2474 149.646 33.7995 149.646 33.3359H151.623C151.638 33.6641 151.727 33.9271 151.888 34.125C152.05 34.3229 152.253 34.4661 152.498 34.5547C152.748 34.638 153.011 34.6797 153.287 34.6797C153.599 34.6797 153.862 34.638 154.076 34.5547C154.289 34.4661 154.451 34.349 154.56 34.2031C154.67 34.0521 154.724 33.8802 154.724 33.6875ZM161.03 27.5469V29.0312H156.187V27.5469H161.03ZM157.483 25.4687H159.554V33.5625C159.554 33.8125 159.588 34.0052 159.655 34.1406C159.723 34.276 159.825 34.3672 159.96 34.4141C160.095 34.4609 160.257 34.4844 160.444 34.4844C160.58 34.4844 160.705 34.4766 160.819 34.4609C160.934 34.4453 161.03 34.4297 161.108 34.4141L161.116 35.9609C160.944 36.0182 160.749 36.0651 160.53 36.1016C160.317 36.138 160.075 36.1563 159.804 36.1563C159.34 36.1563 158.934 36.0781 158.585 35.9219C158.236 35.7604 157.965 35.5026 157.773 35.1484C157.58 34.7891 157.483 34.3151 157.483 33.7266V25.4687Z" fill="black"/>
<circle cx="19.25" cy="17.25" r="5.25" fill="#FCFCFC" fill-opacity="0.7"/>
<rect width="14.5" height="14.5" rx="7.25" fill="#FCFCFC"/>
<circle cx="7.25" cy="7.25" r="5" fill="#D4EEE3" stroke="#FCFCFC" stroke-width="0.5"/>
</svg>
