<svg width="29" height="31" viewBox="0 0 29 31" fill="none" xmlns="http://www.w3.org/2000/svg">
<rect width="24" height="24" transform="translate(0 6.25)" fill="white"/>
<path d="M20.59 21.11V16.34C20.5874 14.0626 19.6815 11.8792 18.0711 10.2689C16.4608 8.65851 14.2774 7.75265 12 7.75C9.7226 7.75265 7.53924 8.65851 5.92888 10.2689C4.31851 11.8792 3.41265 14.0626 3.41 16.34V21.11L1.5 23.02V24.93H22.5V23.02L20.59 21.11Z" fill="#F3D7C2"/>
<path d="M14.69 24.93C14.813 25.2486 14.8708 25.5886 14.86 25.93C14.86 26.6885 14.5586 27.416 14.0223 27.9523C13.4859 28.4887 12.7585 28.79 12 28.79C11.2414 28.79 10.514 28.4887 9.97764 27.9523C9.44128 27.416 9.13996 26.6885 9.13996 25.93C9.12909 25.5886 9.1869 25.2486 9.30996 24.93" fill="#F3D7C2"/>
<circle cx="24" cy="5.75" r="5" fill="#F2894E"/>
</svg>
