<svg width="247" height="70" viewBox="0 0 247 70" fill="none" xmlns="http://www.w3.org/2000/svg">
<rect x="8" y="8" width="238.14" height="61.8" rx="20.16" fill="#045257"/>
<path d="M52.325 41.1848H55.032C54.9598 42.143 54.694 42.9928 54.2347 43.7344C53.7753 44.4694 53.1355 45.0469 52.3151 45.4669C51.4948 45.8869 50.5006 46.0969 49.3325 46.0969C48.4334 46.0969 47.6229 45.9394 46.9011 45.6244C46.1858 45.3028 45.5722 44.8467 45.0603 44.2561C44.555 43.6589 44.1678 42.9436 43.8987 42.1101C43.6297 41.2701 43.4951 40.3284 43.4951 39.285V38.1923C43.4951 37.1489 43.6329 36.2072 43.9086 35.3672C44.1842 34.5272 44.5779 33.8119 45.0898 33.2212C45.6083 32.6241 46.2284 32.1647 46.9503 31.8431C47.6787 31.5216 48.4925 31.3608 49.3915 31.3608C50.5597 31.3608 51.5473 31.5773 52.3545 32.0105C53.1617 32.437 53.7884 33.0244 54.2347 33.7725C54.6809 34.5206 54.95 35.3803 55.0419 36.3516H52.3348C52.2823 35.7478 52.1511 35.2359 51.9411 34.8159C51.7376 34.3959 51.4292 34.0776 51.0158 33.8611C50.6089 33.638 50.0675 33.5264 49.3915 33.5264C48.8665 33.5264 48.4039 33.6248 48.0036 33.8217C47.6098 34.0186 47.2817 34.3139 47.0192 34.7076C46.7567 35.0948 46.5598 35.5805 46.4286 36.1645C46.2973 36.742 46.2317 37.4114 46.2317 38.1726V39.285C46.2317 40.0134 46.2908 40.6664 46.4089 41.2439C46.527 41.8214 46.7108 42.3103 46.9601 42.7106C47.2095 43.1109 47.5311 43.4161 47.9248 43.6261C48.3186 43.8361 48.7878 43.9411 49.3325 43.9411C49.9953 43.9411 50.5334 43.8361 50.9469 43.6261C51.3669 43.4161 51.6851 43.1076 51.9017 42.7008C52.1248 42.2939 52.2659 41.7886 52.325 41.1848ZM57.8686 30.78V45.9H55.26V30.78H57.8686ZM57.4552 40.1906H56.6873C56.6873 39.4491 56.7858 38.7666 56.9827 38.1431C57.1795 37.5197 57.4584 36.9783 57.8194 36.5189C58.1803 36.053 58.6102 35.692 59.1089 35.4361C59.6142 35.1801 60.172 35.0522 60.7823 35.0522C61.3073 35.0522 61.7831 35.1276 62.2097 35.2786C62.6428 35.423 63.0136 35.6559 63.322 35.9775C63.6305 36.2991 63.8667 36.7191 64.0308 37.2375C64.2014 37.7494 64.2867 38.3728 64.2867 39.1078V45.9H61.6683V39.0881C61.6683 38.5959 61.5961 38.2087 61.4517 37.9266C61.3073 37.6378 61.1006 37.4311 60.8316 37.3064C60.5691 37.1817 60.2442 37.1194 59.857 37.1194C59.437 37.1194 59.0761 37.2014 58.7742 37.3655C58.4723 37.523 58.223 37.7428 58.0261 38.025C57.8358 38.3072 57.6914 38.632 57.593 38.9995C57.5011 39.367 57.4552 39.7641 57.4552 40.1906ZM70.8344 43.6359V38.7239C70.8344 38.363 70.772 38.0512 70.6474 37.7887C70.5227 37.5262 70.3324 37.3228 70.0764 37.1784C69.8205 37.0341 69.4956 36.9619 69.1019 36.9619C68.7541 36.9619 68.4489 37.0209 68.1864 37.1391C67.9305 37.2572 67.7336 37.4245 67.5958 37.6411C67.458 37.8511 67.3891 38.0939 67.3891 38.3695H64.7805C64.7805 37.9298 64.8855 37.5131 65.0955 37.1194C65.3055 36.7191 65.6041 36.3647 65.9913 36.0562C66.385 35.7412 66.8542 35.4951 67.3989 35.318C67.9502 35.1408 68.567 35.0522 69.2495 35.0522C70.0567 35.0522 70.7753 35.19 71.4053 35.4656C72.0419 35.7347 72.5406 36.1416 72.9016 36.6862C73.2691 37.2309 73.4528 37.9167 73.4528 38.7436V43.3898C73.4528 43.9214 73.4856 44.3775 73.5513 44.7581C73.6234 45.1322 73.7284 45.457 73.8663 45.7327V45.9H71.2183C71.0936 45.6309 70.9984 45.2897 70.9328 44.8762C70.8672 44.4562 70.8344 44.0428 70.8344 43.6359ZM71.1986 39.413L71.2183 40.9584H69.5744C69.1675 40.9584 68.8099 41.0011 68.5014 41.0864C68.193 41.1651 67.9403 41.2833 67.7434 41.4408C67.5466 41.5917 67.3989 41.7755 67.3005 41.992C67.202 42.202 67.1528 42.4416 67.1528 42.7106C67.1528 42.9731 67.2119 43.2094 67.33 43.4194C67.4547 43.6294 67.6319 43.7967 67.8616 43.9214C68.0978 44.0395 68.3734 44.0986 68.6884 44.0986C69.1478 44.0986 69.5481 44.0067 69.8894 43.823C70.2306 43.6326 70.4964 43.403 70.6867 43.1339C70.877 42.8648 70.9788 42.6089 70.9919 42.3661L71.74 43.4883C71.6481 43.7573 71.5103 44.0428 71.3266 44.3447C71.1428 44.6466 70.9066 44.9287 70.6178 45.1912C70.3291 45.4537 69.9813 45.6703 69.5744 45.8409C69.1675 46.0116 68.695 46.0969 68.1569 46.0969C67.4678 46.0969 66.8509 45.9591 66.3063 45.6834C65.7616 45.4078 65.3317 45.0305 65.0167 44.5514C64.7017 44.0723 64.5442 43.5276 64.5442 42.9173C64.5442 42.353 64.6492 41.8542 64.8592 41.4211C65.0692 40.988 65.3809 40.6237 65.7944 40.3284C66.2078 40.0266 66.7197 39.8001 67.33 39.6492C67.9469 39.4917 68.6524 39.413 69.4464 39.413H71.1986ZM79.2228 35.2491V37.1194H73.1197V35.2491H79.2228ZM74.7538 32.6306H77.3624V42.8287C77.3624 43.1437 77.405 43.3866 77.4903 43.5572C77.5756 43.7278 77.7036 43.8426 77.8742 43.9017C78.0449 43.9608 78.2483 43.9903 78.4846 43.9903C78.6552 43.9903 78.8127 43.9805 78.9571 43.9608C79.1014 43.9411 79.2228 43.9214 79.3213 43.9017L79.3311 45.8508C79.1146 45.923 78.8685 45.982 78.5928 46.028C78.3238 46.0739 78.0186 46.0969 77.6774 46.0969C77.0933 46.0969 76.5814 45.9984 76.1417 45.8016C75.7021 45.5981 75.3608 45.2733 75.118 44.827C74.8752 44.3742 74.7538 43.777 74.7538 43.0355V32.6306ZM86.471 43.1536L89.3257 31.5675H90.8711L90.9696 34.0087L87.918 45.9H86.284L86.471 43.1536ZM84.6696 31.5675L87.0124 43.1142V45.9H85.2307L81.9822 31.5675H84.6696ZM93.9325 43.065L96.236 31.5675H98.9332L95.6847 45.9H93.903L93.9325 43.065ZM91.6094 31.5675L94.4641 43.193L94.6315 45.9H92.9974L89.9557 33.9989L90.0738 31.5675H91.6094ZM101.593 35.2491V45.9H98.984V35.2491H101.593ZM98.8068 32.4633C98.8068 32.0761 98.938 31.7545 99.2005 31.4986C99.4696 31.2426 99.8305 31.1147 100.283 31.1147C100.736 31.1147 101.094 31.2426 101.356 31.4986C101.625 31.7545 101.76 32.0761 101.76 32.4633C101.76 32.8439 101.625 33.1622 101.356 33.4181C101.094 33.6741 100.736 33.802 100.283 33.802C99.8305 33.802 99.4696 33.6741 99.2005 33.4181C98.938 33.1622 98.8068 32.8439 98.8068 32.4633ZM107.5 35.2491V37.1194H101.397V35.2491H107.5ZM103.031 32.6306H105.64V42.8287C105.64 43.1437 105.683 43.3866 105.768 43.5572C105.853 43.7278 105.981 43.8426 106.152 43.9017C106.322 43.9608 106.526 43.9903 106.762 43.9903C106.933 43.9903 107.09 43.9805 107.235 43.9608C107.379 43.9411 107.5 43.9214 107.599 43.9017L107.609 45.8508C107.392 45.923 107.146 45.982 106.87 46.028C106.601 46.0739 106.296 46.0969 105.955 46.0969C105.371 46.0969 104.859 45.9984 104.419 45.8016C103.98 45.5981 103.638 45.2733 103.396 44.827C103.153 44.3742 103.031 43.777 103.031 43.0355V32.6306ZM110.17 30.78V45.9H107.561V30.78H110.17ZM109.756 40.1906H108.988C108.988 39.4491 109.087 38.7666 109.284 38.1431C109.481 37.5197 109.759 36.9783 110.12 36.5189C110.481 36.053 110.911 35.692 111.41 35.4361C111.915 35.1801 112.473 35.0522 113.083 35.0522C113.608 35.0522 114.084 35.1276 114.511 35.2786C114.944 35.423 115.315 35.6559 115.623 35.9775C115.931 36.2991 116.168 36.7191 116.332 37.2375C116.502 37.7494 116.588 38.3728 116.588 39.1078V45.9H113.969V39.0881C113.969 38.5959 113.897 38.2087 113.753 37.9266C113.608 37.6378 113.402 37.4311 113.133 37.3064C112.87 37.1817 112.545 37.1194 112.158 37.1194C111.738 37.1194 111.377 37.2014 111.075 37.3655C110.773 37.523 110.524 37.7428 110.327 38.025C110.137 38.3072 109.992 38.632 109.894 38.9995C109.802 39.367 109.756 39.7641 109.756 40.1906ZM122.546 31.5675L125.696 38.2514L128.866 31.5675H131.839L127.074 40.6533V45.9H124.328V40.6533L119.554 31.5675H122.546ZM130.354 40.6828V40.4761C130.354 39.6951 130.466 38.9766 130.689 38.3203C130.912 37.6575 131.237 37.0833 131.663 36.5976C132.09 36.112 132.612 35.7347 133.228 35.4656C133.845 35.19 134.547 35.0522 135.335 35.0522C136.136 35.0522 136.844 35.19 137.461 35.4656C138.085 35.7347 138.61 36.112 139.036 36.5976C139.463 37.0833 139.788 37.6575 140.011 38.3203C140.234 38.9766 140.345 39.6951 140.345 40.4761V40.6828C140.345 41.4572 140.234 42.1758 140.011 42.8386C139.788 43.4948 139.463 44.0691 139.036 44.5612C138.61 45.0469 138.088 45.4242 137.471 45.6933C136.854 45.9623 136.149 46.0969 135.355 46.0969C134.567 46.0969 133.862 45.9623 133.238 45.6933C132.615 45.4242 132.09 45.0469 131.663 44.5612C131.237 44.0691 130.912 43.4948 130.689 42.8386C130.466 42.1758 130.354 41.4572 130.354 40.6828ZM132.953 40.4761V40.6828C132.953 41.1487 132.999 41.5851 133.091 41.992C133.182 42.3989 133.324 42.7566 133.514 43.065C133.704 43.3734 133.95 43.6162 134.252 43.7934C134.561 43.9641 134.928 44.0494 135.355 44.0494C135.775 44.0494 136.136 43.9641 136.437 43.7934C136.739 43.6162 136.985 43.3734 137.176 43.065C137.373 42.7566 137.517 42.3989 137.609 41.992C137.701 41.5851 137.747 41.1487 137.747 40.6828V40.4761C137.747 40.0167 137.701 39.5869 137.609 39.1866C137.517 38.7797 137.373 38.422 137.176 38.1136C136.985 37.7986 136.736 37.5525 136.428 37.3753C136.126 37.1916 135.762 37.0997 135.335 37.0997C134.915 37.0997 134.554 37.1916 134.252 37.3753C133.95 37.5525 133.704 37.7986 133.514 38.1136C133.324 38.422 133.182 38.7797 133.091 39.1866C132.999 39.5869 132.953 40.0167 132.953 40.4761ZM146.962 43.3701V35.2491H149.58V45.9H147.12L146.962 43.3701ZM147.297 41.1651L148.104 41.1455C148.104 41.8608 148.025 42.5203 147.868 43.1241C147.71 43.7278 147.464 44.2528 147.129 44.6991C146.801 45.1387 146.385 45.4833 145.879 45.7327C145.374 45.9755 144.777 46.0969 144.088 46.0969C143.563 46.0969 143.084 46.0247 142.65 45.8803C142.217 45.7294 141.843 45.4964 141.528 45.1814C141.22 44.8598 140.98 44.4497 140.81 43.9509C140.639 43.4456 140.554 42.8386 140.554 42.1298V35.2491H143.152V42.1495C143.152 42.5039 143.192 42.7992 143.271 43.0355C143.356 43.2717 143.471 43.4653 143.615 43.6162C143.766 43.7606 143.94 43.8656 144.137 43.9312C144.34 43.9903 144.557 44.0198 144.787 44.0198C145.417 44.0198 145.912 43.8951 146.273 43.6458C146.64 43.3898 146.903 43.0486 147.06 42.622C147.218 42.1889 147.297 41.7033 147.297 41.1651ZM152.87 37.4245V45.9H150.271V35.2491H152.732L152.87 37.4245ZM156.108 35.1801L156.069 37.6017C155.925 37.5755 155.761 37.5558 155.577 37.5426C155.4 37.5295 155.232 37.523 155.075 37.523C154.675 37.523 154.323 37.5787 154.022 37.6903C153.72 37.7953 153.467 37.9495 153.264 38.153C153.067 38.3564 152.916 38.6058 152.811 38.9011C152.706 39.1898 152.647 39.518 152.634 39.8855L152.072 39.8166C152.072 39.1406 152.141 38.5139 152.279 37.9364C152.417 37.3589 152.617 36.8536 152.88 36.4205C153.142 35.9873 153.47 35.6526 153.864 35.4164C154.264 35.1736 154.724 35.0522 155.242 35.0522C155.387 35.0522 155.541 35.0653 155.705 35.0916C155.875 35.1112 156.01 35.1408 156.108 35.1801ZM167.914 41.1848H170.621C170.549 42.143 170.283 42.9928 169.824 43.7344C169.365 44.4694 168.725 45.0469 167.904 45.4669C167.084 45.8869 166.09 46.0969 164.922 46.0969C164.023 46.0969 163.212 45.9394 162.49 45.6244C161.775 45.3028 161.161 44.8467 160.65 44.2561C160.144 43.6589 159.757 42.9436 159.488 42.1101C159.219 41.2701 159.084 40.3284 159.084 39.285V38.1923C159.084 37.1489 159.222 36.2072 159.498 35.3672C159.773 34.5272 160.167 33.8119 160.679 33.2212C161.198 32.6241 161.818 32.1647 162.54 31.8431C163.268 31.5216 164.082 31.3608 164.981 31.3608C166.149 31.3608 167.137 31.5773 167.944 32.0105C168.751 32.437 169.378 33.0244 169.824 33.7725C170.27 34.5206 170.539 35.3803 170.631 36.3516H167.924C167.872 35.7478 167.74 35.2359 167.53 34.8159C167.327 34.3959 167.018 34.0776 166.605 33.8611C166.198 33.638 165.657 33.5264 164.981 33.5264C164.456 33.5264 163.993 33.6248 163.593 33.8217C163.199 34.0186 162.871 34.3139 162.608 34.7076C162.346 35.0948 162.149 35.5805 162.018 36.1645C161.887 36.742 161.821 37.4114 161.821 38.1726V39.285C161.821 40.0134 161.88 40.6664 161.998 41.2439C162.116 41.8214 162.3 42.3103 162.549 42.7106C162.799 43.1109 163.12 43.4161 163.514 43.6261C163.908 43.8361 164.377 43.9411 164.922 43.9411C165.585 43.9411 166.123 43.8361 166.536 43.6261C166.956 43.4161 167.274 43.1076 167.491 42.7008C167.714 42.2939 167.855 41.7886 167.914 41.1848ZM173.665 30.78V45.9H171.056V30.78H173.665ZM177.289 35.2491V45.9H174.68V35.2491H177.289ZM174.503 32.4633C174.503 32.0761 174.634 31.7545 174.897 31.4986C175.166 31.2426 175.527 31.1147 175.979 31.1147C176.432 31.1147 176.79 31.2426 177.052 31.4986C177.321 31.7545 177.456 32.0761 177.456 32.4633C177.456 32.8439 177.321 33.1622 177.052 33.4181C176.79 33.6741 176.432 33.802 175.979 33.802C175.527 33.802 175.166 33.6741 174.897 33.4181C174.634 33.1622 174.503 32.8439 174.503 32.4633ZM182.941 46.0969C182.133 46.0969 181.408 45.9656 180.765 45.7031C180.122 45.4406 179.574 45.0764 179.121 44.6105C178.675 44.138 178.33 43.59 178.088 42.9666C177.851 42.3366 177.733 41.6606 177.733 40.9387V40.545C177.733 39.7247 177.851 38.9798 178.088 38.3105C178.324 37.6345 178.658 37.0537 179.092 36.5681C179.525 36.0825 180.043 35.7084 180.647 35.4459C181.251 35.1834 181.917 35.0522 182.645 35.0522C183.4 35.0522 184.066 35.1801 184.643 35.4361C185.221 35.6855 185.703 36.0398 186.091 36.4992C186.478 36.9586 186.77 37.5098 186.967 38.153C187.164 38.7895 187.262 39.495 187.262 40.2694V41.362H178.914V39.5705H184.703V39.3736C184.689 38.9601 184.611 38.5828 184.466 38.2416C184.322 37.8937 184.099 37.6181 183.797 37.4147C183.495 37.2047 183.105 37.0997 182.626 37.0997C182.238 37.0997 181.9 37.185 181.612 37.3556C181.329 37.5197 181.093 37.7559 180.903 38.0644C180.719 38.3662 180.581 38.7272 180.489 39.1472C180.398 39.5672 180.352 40.0331 180.352 40.545V40.9387C180.352 41.385 180.411 41.7984 180.529 42.1791C180.653 42.5597 180.834 42.8911 181.07 43.1733C181.313 43.4489 181.602 43.6655 181.936 43.823C182.278 43.9739 182.665 44.0494 183.098 44.0494C183.643 44.0494 184.135 43.9444 184.575 43.7344C185.021 43.5178 185.408 43.1995 185.736 42.7795L187.045 44.138C186.822 44.4661 186.52 44.7811 186.14 45.083C185.766 45.3848 185.313 45.6309 184.781 45.8212C184.25 46.005 183.636 46.0969 182.941 46.0969ZM189.941 37.523V45.9H187.342V35.2491H189.784L189.941 37.523ZM189.528 40.1906H188.76C188.766 39.4162 188.871 38.7141 189.075 38.0841C189.278 37.4541 189.564 36.9126 189.931 36.4598C190.305 36.007 190.748 35.6592 191.26 35.4164C191.772 35.1736 192.343 35.0522 192.973 35.0522C193.485 35.0522 193.947 35.1244 194.361 35.2687C194.774 35.4131 195.129 35.6428 195.424 35.9578C195.726 36.2728 195.956 36.6862 196.113 37.1981C196.277 37.7034 196.359 38.3269 196.359 39.0684V45.9H193.741V39.0487C193.741 38.5631 193.669 38.1792 193.524 37.897C193.386 37.6148 193.183 37.4147 192.914 37.2966C192.651 37.1784 192.326 37.1194 191.939 37.1194C191.539 37.1194 191.188 37.2014 190.886 37.3655C190.591 37.523 190.341 37.7428 190.138 38.025C189.941 38.3072 189.79 38.632 189.685 38.9995C189.58 39.367 189.528 39.7641 189.528 40.1906ZM202.08 35.2491V37.1194H195.977V35.2491H202.08ZM197.611 32.6306H200.219V42.8287C200.219 43.1437 200.262 43.3866 200.347 43.5572C200.433 43.7278 200.561 43.8426 200.731 43.9017C200.902 43.9608 201.105 43.9903 201.342 43.9903C201.512 43.9903 201.67 43.9805 201.814 43.9608C201.959 43.9411 202.08 43.9214 202.178 43.9017L202.188 45.8508C201.972 45.923 201.726 45.982 201.45 46.028C201.181 46.0739 200.876 46.0969 200.534 46.0969C199.95 46.0969 199.439 45.9984 198.999 45.8016C198.559 45.5981 198.218 45.2733 197.975 44.827C197.732 44.3742 197.611 43.777 197.611 43.0355V32.6306ZM208.057 42.9862C208.057 42.7631 207.998 42.563 207.879 42.3858C207.761 42.2086 207.538 42.0478 207.21 41.9034C206.889 41.7525 206.416 41.6114 205.793 41.4801C205.241 41.362 204.733 41.2144 204.267 41.0372C203.801 40.86 203.401 40.6467 203.066 40.3973C202.731 40.1414 202.469 39.8428 202.278 39.5016C202.095 39.1537 202.003 38.7534 202.003 38.3006C202.003 37.8609 202.098 37.4475 202.288 37.0603C202.479 36.6666 202.754 36.322 203.115 36.0267C203.476 35.7248 203.916 35.4886 204.434 35.318C204.953 35.1408 205.537 35.0522 206.186 35.0522C207.092 35.0522 207.87 35.1998 208.519 35.4951C209.176 35.7905 209.678 36.1973 210.025 36.7158C210.373 37.2276 210.547 37.8051 210.547 38.4483H207.948C207.948 38.1661 207.883 37.9101 207.752 37.6805C207.627 37.4508 207.433 37.267 207.171 37.1292C206.908 36.9848 206.577 36.9126 206.177 36.9126C205.816 36.9126 205.51 36.9717 205.261 37.0898C205.018 37.208 204.834 37.3622 204.71 37.5525C204.585 37.7428 204.523 37.9528 204.523 38.1825C204.523 38.3531 204.556 38.5073 204.621 38.6451C204.693 38.7764 204.808 38.8978 204.966 39.0094C205.123 39.1209 205.337 39.2226 205.606 39.3145C205.881 39.4064 206.219 39.495 206.619 39.5803C207.414 39.7378 208.106 39.9478 208.697 40.2103C209.294 40.4662 209.76 40.8075 210.094 41.2341C210.429 41.6606 210.596 42.2053 210.596 42.8681C210.596 43.3406 210.495 43.7737 210.291 44.1675C210.088 44.5547 209.792 44.8927 209.405 45.1814C209.018 45.4702 208.555 45.6966 208.017 45.8606C207.479 46.0181 206.872 46.0969 206.196 46.0969C205.218 46.0969 204.392 45.923 203.716 45.5752C203.04 45.2208 202.528 44.7745 202.18 44.2364C201.832 43.6917 201.658 43.1273 201.658 42.5433H204.149C204.168 42.9567 204.28 43.2881 204.483 43.5375C204.687 43.7869 204.943 43.9673 205.251 44.0789C205.566 44.1839 205.898 44.2364 206.245 44.2364C206.639 44.2364 206.971 44.1839 207.24 44.0789C207.509 43.9673 207.712 43.8197 207.85 43.6359C207.988 43.4456 208.057 43.2291 208.057 42.9862Z" fill="#FCFCFC"/>
<circle cx="24.6951" cy="22.175" r="6.615" fill="#FCFCFC" fill-opacity="0.7"/>
<rect x="0.439941" y="0.439972" width="18.27" height="18.27" rx="9.135" fill="#FCFCFC"/>
<circle cx="9.57496" cy="9.57496" r="6.3" fill="#045257" stroke="#FCFCFC" stroke-width="0.63"/>
</svg>
