<svg width="120" height="32" viewBox="0 0 120 32" fill="none" xmlns="http://www.w3.org/2000/svg">
<rect x="1.19132" y="1.15626" width="117.978" height="30.0155" rx="15.0077" stroke="#ECECEC" stroke-width="0.870912"/>
<g clip-path="url(#clip0_285_1130)">
<path d="M19.1566 8.84834H16.4951V11.5099H19.1566V8.84834Z" fill="#F3D7C2" stroke="#F3D7C2" stroke-width="1.39346" stroke-miterlimit="10"/>
<path d="M13.1713 8.84834H10.5098V11.5099H13.1713V8.84834Z" fill="#F3D7C2" stroke="#F3D7C2" stroke-width="1.39346" stroke-miterlimit="10"/>
<path d="M25.1415 8.84834H22.48V11.5099H25.1415V8.84834Z" fill="#F3D7C2" stroke="#F3D7C2" stroke-width="1.39346" stroke-miterlimit="10"/>
<path d="M19.1566 14.8333H16.4951V17.4948H19.1566V14.8333Z" fill="#F3D7C2" stroke="#F3D7C2" stroke-width="1.39346" stroke-miterlimit="10"/>
<path d="M13.1713 14.8333H10.5098V17.4948H13.1713V14.8333Z" fill="#F3D7C2" stroke="#F3D7C2" stroke-width="1.39346" stroke-miterlimit="10"/>
<path d="M25.1415 14.8333H22.48V17.4948H25.1415V14.8333Z" fill="#F3D7C2" stroke="#F3D7C2" stroke-width="1.39346" stroke-miterlimit="10"/>
<path d="M19.1566 20.8182H16.4951V23.4797H19.1566V20.8182Z" fill="#F3D7C2" stroke="#F3D7C2" stroke-width="1.39346" stroke-miterlimit="10"/>
<path d="M13.1713 20.8182H10.5098V23.4797H13.1713V20.8182Z" fill="#F3D7C2" stroke="#F3D7C2" stroke-width="1.39346" stroke-miterlimit="10"/>
<path d="M25.1415 20.8182H22.48V23.4797H25.1415V20.8182Z" fill="#F3D7C2" stroke="#F3D7C2" stroke-width="1.39346" stroke-miterlimit="10"/>
</g>
<path d="M43.8087 18.2262H45.4417C45.3567 19.0087 45.1327 19.7089 44.7698 20.3269C44.4069 20.945 43.8938 21.4354 43.2304 21.7983C42.567 22.1555 41.7392 22.3341 40.7469 22.3341C40.0212 22.3341 39.3606 22.198 38.7653 21.9259C38.1756 21.6537 37.6681 21.2681 37.2429 20.7692C36.8176 20.2646 36.4888 19.6607 36.2563 18.9576C36.0295 18.2489 35.9161 17.4607 35.9161 16.5932V15.36C35.9161 14.4925 36.0295 13.7072 36.2563 13.0041C36.4888 12.2954 36.8205 11.6887 37.2514 11.1841C37.688 10.6794 38.2125 10.291 38.8248 10.0189C39.4372 9.74671 40.1261 9.61063 40.8915 9.61063C41.8271 9.61063 42.618 9.7864 43.2644 10.1379C43.9108 10.4895 44.4126 10.9771 44.7698 11.6008C45.1327 12.2188 45.3567 12.9361 45.4417 13.7526H43.8087C43.7294 13.1742 43.5819 12.6781 43.3665 12.2642C43.151 11.8446 42.8448 11.5214 42.4479 11.2946C42.051 11.0678 41.5322 10.9544 40.8915 10.9544C40.3415 10.9544 39.8568 11.0593 39.4372 11.2691C39.0233 11.4789 38.6746 11.7766 38.3911 12.1621C38.1132 12.5477 37.9034 13.0098 37.7617 13.5484C37.6199 14.0871 37.5491 14.6853 37.5491 15.343V16.5932C37.5491 17.1999 37.6114 17.7698 37.7362 18.3027C37.8666 18.8357 38.0622 19.3035 38.323 19.7061C38.5838 20.1086 38.9155 20.4262 39.3181 20.6586C39.7207 20.8854 40.197 20.9988 40.7469 20.9988C41.4444 20.9988 42 20.8883 42.4139 20.6671C42.8278 20.446 43.1397 20.1285 43.3495 19.7146C43.5649 19.3007 43.718 18.8045 43.8087 18.2262ZM45.6302 17.6649V17.4692C45.6302 16.8059 45.7266 16.1907 45.9193 15.6237C46.1121 15.051 46.39 14.5549 46.7528 14.1353C47.1157 13.71 47.5551 13.3812 48.0711 13.1487C48.5871 12.9106 49.1654 12.7915 49.8061 12.7915C50.4525 12.7915 51.0337 12.9106 51.5497 13.1487C52.0713 13.3812 52.5136 13.71 52.8764 14.1353C53.245 14.5549 53.5257 15.051 53.7184 15.6237C53.9112 16.1907 54.0076 16.8059 54.0076 17.4692V17.6649C54.0076 18.3283 53.9112 18.9434 53.7184 19.5104C53.5257 20.0774 53.245 20.5736 52.8764 20.9988C52.5136 21.4184 52.0741 21.7473 51.5582 21.9854C51.0479 22.2179 50.4695 22.3341 49.8231 22.3341C49.1768 22.3341 48.5956 22.2179 48.0796 21.9854C47.5636 21.7473 47.1214 21.4184 46.7528 20.9988C46.39 20.5736 46.1121 20.0774 45.9193 19.5104C45.7266 18.9434 45.6302 18.3283 45.6302 17.6649ZM47.2036 17.4692V17.6649C47.2036 18.1241 47.2575 18.5579 47.3652 18.9661C47.4729 19.3687 47.6345 19.7259 47.85 20.0378C48.0711 20.3496 48.3461 20.5963 48.675 20.7777C49.0038 20.9535 49.3866 21.0413 49.8231 21.0413C50.2541 21.0413 50.6311 20.9535 50.9543 20.7777C51.2832 20.5963 51.5553 20.3496 51.7708 20.0378C51.9862 19.7259 52.1478 19.3687 52.2556 18.9661C52.369 18.5579 52.4257 18.1241 52.4257 17.6649V17.4692C52.4257 17.0156 52.369 16.5876 52.2556 16.185C52.1478 15.7768 51.9834 15.4167 51.7623 15.1049C51.5468 14.7873 51.2747 14.5379 50.9458 14.3564C50.6226 14.175 50.2427 14.0843 49.8061 14.0843C49.3752 14.0843 48.9953 14.175 48.6665 14.3564C48.3433 14.5379 48.0711 14.7873 47.85 15.1049C47.6345 15.4167 47.4729 15.7768 47.3652 16.185C47.2575 16.5876 47.2036 17.0156 47.2036 17.4692ZM56.1607 14.9263V22.164H54.5873V12.9616H56.0757L56.1607 14.9263ZM55.7865 17.2141L55.1316 17.1886C55.1373 16.5592 55.2308 15.978 55.4123 15.4451C55.5937 14.9064 55.8489 14.4386 56.1777 14.0417C56.5066 13.6448 56.8978 13.3387 57.3514 13.1232C57.8107 12.9021 58.3182 12.7915 58.8738 12.7915C59.3274 12.7915 59.7357 12.8539 60.0985 12.9786C60.4614 13.0977 60.7704 13.2905 61.0256 13.5569C61.2864 13.8234 61.4849 14.1693 61.6209 14.5946C61.757 15.0141 61.8251 15.5273 61.8251 16.134V22.164H60.2431V16.117C60.2431 15.635 60.1723 15.2494 60.0305 14.9603C59.8888 14.6654 59.6818 14.4528 59.4096 14.3224C59.1375 14.1863 58.803 14.1183 58.4061 14.1183C58.0148 14.1183 57.6576 14.2005 57.3344 14.3649C57.0169 14.5294 56.7419 14.7562 56.5094 15.0453C56.2826 15.3345 56.104 15.6662 55.9736 16.0404C55.8489 16.409 55.7865 16.8002 55.7865 17.2141ZM64.3949 14.9263V22.164H62.8215V12.9616H64.3099L64.3949 14.9263ZM64.0207 17.2141L63.3658 17.1886C63.3715 16.5592 63.4651 15.978 63.6465 15.4451C63.8279 14.9064 64.0831 14.4386 64.4119 14.0417C64.7408 13.6448 65.132 13.3387 65.5856 13.1232C66.0449 12.9021 66.5524 12.7915 67.108 12.7915C67.5616 12.7915 67.9699 12.8539 68.3327 12.9786C68.6956 13.0977 69.0046 13.2905 69.2598 13.5569C69.5206 13.8234 69.7191 14.1693 69.8551 14.5946C69.9912 15.0141 70.0593 15.5273 70.0593 16.134V22.164H68.4773V16.117C68.4773 15.635 68.4065 15.2494 68.2647 14.9603C68.123 14.6654 67.916 14.4528 67.6438 14.3224C67.3717 14.1863 67.0372 14.1183 66.6403 14.1183C66.249 14.1183 65.8918 14.2005 65.5686 14.3649C65.2511 14.5294 64.9761 14.7562 64.7436 15.0453C64.5168 15.3345 64.3382 15.6662 64.2078 16.0404C64.0831 16.409 64.0207 16.8002 64.0207 17.2141ZM74.8745 22.3341C74.2337 22.3341 73.6526 22.2264 73.1309 22.0109C72.615 21.7898 72.1699 21.4808 71.7956 21.0839C71.4271 20.687 71.1436 20.2164 70.9451 19.672C70.7467 19.1277 70.6475 18.5324 70.6475 17.886V17.5288C70.6475 16.7803 70.758 16.1141 70.9792 15.5301C71.2003 14.9404 71.5008 14.4415 71.8807 14.0332C72.2606 13.625 72.6915 13.316 73.1735 13.1062C73.6554 12.8964 74.1544 12.7915 74.6703 12.7915C75.3281 12.7915 75.8951 12.9049 76.3713 13.1317C76.8533 13.3585 77.2473 13.676 77.5535 14.0843C77.8597 14.4868 78.0865 14.9631 78.2339 15.5131C78.3813 16.0574 78.4551 16.6528 78.4551 17.2991V18.0051H71.583V16.7208H76.8816V16.6017C76.859 16.1935 76.7739 15.7966 76.6265 15.411C76.4847 15.0255 76.2579 14.708 75.9461 14.4585C75.6342 14.209 75.209 14.0843 74.6703 14.0843C74.3131 14.0843 73.9843 14.1608 73.6838 14.3139C73.3832 14.4613 73.1253 14.6824 72.9098 14.9773C72.6943 15.2721 72.5271 15.6322 72.408 16.0574C72.2889 16.4827 72.2294 16.9731 72.2294 17.5288V17.886C72.2294 18.3226 72.2889 18.7337 72.408 19.1192C72.5327 19.4991 72.7113 19.8336 72.9438 20.1228C73.182 20.412 73.4683 20.6388 73.8028 20.8032C74.143 20.9676 74.5286 21.0499 74.9595 21.0499C75.5152 21.0499 75.9858 20.9365 76.3713 20.7097C76.7569 20.4829 77.0943 20.1795 77.3834 19.7996L78.336 20.5566C78.1375 20.8571 77.8852 21.1434 77.579 21.4156C77.2729 21.6877 76.8958 21.9089 76.4479 22.079C76.0056 22.2491 75.4811 22.3341 74.8745 22.3341ZM82.5813 21.0413C82.9556 21.0413 83.3014 20.9648 83.619 20.8117C83.9365 20.6586 84.1973 20.4488 84.4014 20.1823C84.6055 19.9102 84.7218 19.6012 84.7501 19.2553H86.247C86.2187 19.7996 86.0344 20.3071 85.6942 20.7777C85.3596 21.2426 84.9202 21.6197 84.3759 21.9089C83.8316 22.1924 83.2334 22.3341 82.5813 22.3341C81.8896 22.3341 81.2857 22.2122 80.7698 21.9684C80.2595 21.7246 79.8342 21.3901 79.494 20.9648C79.1595 20.5396 78.9072 20.0519 78.7371 19.5019C78.5727 18.9463 78.4904 18.3594 78.4904 17.7414V17.3842C78.4904 16.7662 78.5727 16.1822 78.7371 15.6322C78.9072 15.0765 79.1595 14.5861 79.494 14.1608C79.8342 13.7356 80.2595 13.401 80.7698 13.1572C81.2857 12.9134 81.8896 12.7915 82.5813 12.7915C83.3014 12.7915 83.9308 12.9389 84.4695 13.2338C85.0081 13.5229 85.4305 13.9198 85.7367 14.4245C86.0486 14.9234 86.2187 15.4904 86.247 16.1255H84.7501C84.7218 15.7456 84.614 15.4025 84.4269 15.0964C84.2455 14.7902 83.996 14.5464 83.6785 14.3649C83.3666 14.1778 83.0009 14.0843 82.5813 14.0843C82.0994 14.0843 81.694 14.1806 81.3651 14.3734C81.0419 14.5605 80.784 14.8157 80.5912 15.1389C80.4041 15.4564 80.268 15.8108 80.1829 16.202C80.1036 16.5876 80.0639 16.9816 80.0639 17.3842V17.7414C80.0639 18.144 80.1036 18.5409 80.1829 18.9321C80.2623 19.3233 80.3956 19.6777 80.5827 19.9952C80.7754 20.3128 81.0334 20.5679 81.3566 20.7607C81.6855 20.9478 82.0937 21.0413 82.5813 21.0413ZM90.4753 12.9616V14.1693H85.4999V12.9616H90.4753ZM87.1839 10.7248H88.7573V19.8847C88.7573 20.1965 88.8055 20.4318 88.9019 20.5906C88.9983 20.7493 89.1231 20.8542 89.2761 20.9053C89.4292 20.9563 89.5937 20.9818 89.7694 20.9818C89.8998 20.9818 90.0359 20.9705 90.1777 20.9478C90.3251 20.9194 90.4357 20.8968 90.5094 20.8798L90.5179 22.164C90.3931 22.2037 90.2287 22.2406 90.0246 22.2746C89.8261 22.3143 89.5852 22.3341 89.3017 22.3341C88.9161 22.3341 88.5617 22.2576 88.2385 22.1045C87.9153 21.9514 87.6574 21.6962 87.4646 21.339C87.2775 20.9761 87.1839 20.4885 87.1839 19.8762V10.7248ZM92.637 12.9616V22.164H91.055V12.9616H92.637ZM90.936 10.5207C90.936 10.2655 91.0125 10.0501 91.1656 9.87428C91.3244 9.69851 91.5568 9.61063 91.863 9.61063C92.1635 9.61063 92.3932 9.69851 92.5519 9.87428C92.7164 10.0501 92.7986 10.2655 92.7986 10.5207C92.7986 10.7645 92.7164 10.9743 92.5519 11.15C92.3932 11.3201 92.1635 11.4052 91.863 11.4052C91.5568 11.4052 91.3244 11.3201 91.1656 11.15C91.0125 10.9743 90.936 10.7645 90.936 10.5207ZM93.3528 17.6649V17.4692C93.3528 16.8059 93.4491 16.1907 93.6419 15.6237C93.8347 15.051 94.1125 14.5549 94.4754 14.1353C94.8383 13.71 95.2777 13.3812 95.7937 13.1487C96.3097 12.9106 96.888 12.7915 97.5287 12.7915C98.1751 12.7915 98.7563 12.9106 99.2722 13.1487C99.7939 13.3812 100.236 13.71 100.599 14.1353C100.968 14.5549 101.248 15.051 101.441 15.6237C101.634 16.1907 101.73 16.8059 101.73 17.4692V17.6649C101.73 18.3283 101.634 18.9434 101.441 19.5104C101.248 20.0774 100.968 20.5736 100.599 20.9988C100.236 21.4184 99.7967 21.7473 99.2807 21.9854C98.7704 22.2179 98.1921 22.3341 97.5457 22.3341C96.8993 22.3341 96.3182 22.2179 95.8022 21.9854C95.2862 21.7473 94.844 21.4184 94.4754 20.9988C94.1125 20.5736 93.8347 20.0774 93.6419 19.5104C93.4491 18.9434 93.3528 18.3283 93.3528 17.6649ZM94.9262 17.4692V17.6649C94.9262 18.1241 94.98 18.5579 95.0878 18.9661C95.1955 19.3687 95.3571 19.7259 95.5726 20.0378C95.7937 20.3496 96.0687 20.5963 96.3975 20.7777C96.7264 20.9535 97.1091 21.0413 97.5457 21.0413C97.9766 21.0413 98.3537 20.9535 98.6769 20.7777C99.0057 20.5963 99.2779 20.3496 99.4934 20.0378C99.7088 19.7259 99.8704 19.3687 99.9782 18.9661C100.092 18.5579 100.148 18.1241 100.148 17.6649V17.4692C100.148 17.0156 100.092 16.5876 99.9782 16.185C99.8704 15.7768 99.706 15.4167 99.4849 15.1049C99.2694 14.7873 98.9972 14.5379 98.6684 14.3564C98.3452 14.175 97.9653 14.0843 97.5287 14.0843C97.0978 14.0843 96.7179 14.175 96.389 14.3564C96.0659 14.5379 95.7937 14.7873 95.5726 15.1049C95.3571 15.4167 95.1955 15.7768 95.0878 16.185C94.98 16.5876 94.9262 17.0156 94.9262 17.4692ZM103.883 14.9263V22.164H102.31V12.9616H103.798L103.883 14.9263ZM103.509 17.2141L102.854 17.1886C102.86 16.5592 102.953 15.978 103.135 15.4451C103.316 14.9064 103.571 14.4386 103.9 14.0417C104.229 13.6448 104.62 13.3387 105.074 13.1232C105.533 12.9021 106.041 12.7915 106.596 12.7915C107.05 12.7915 107.458 12.8539 107.821 12.9786C108.184 13.0977 108.493 13.2905 108.748 13.5569C109.009 13.8234 109.207 14.1693 109.344 14.5946C109.48 15.0141 109.548 15.5273 109.548 16.134V22.164H107.966V16.117C107.966 15.635 107.895 15.2494 107.753 14.9603C107.611 14.6654 107.404 14.4528 107.132 14.3224C106.86 14.1863 106.526 14.1183 106.129 14.1183C105.737 14.1183 105.38 14.2005 105.057 14.3649C104.739 14.5294 104.464 14.7562 104.232 15.0453C104.005 15.3345 103.827 15.6662 103.696 16.0404C103.571 16.409 103.509 16.8002 103.509 17.2141Z" fill="black"/>
<defs>
<clipPath id="clip0_285_1130">
<rect width="16.7215" height="16.7215" fill="white" transform="translate(9.46484 7.80325)"/>
</clipPath>
</defs>
</svg>
