<svg width="394" height="233" viewBox="0 0 394 233" fill="none" xmlns="http://www.w3.org/2000/svg">
<path d="M-18.1504 0.545956H276.375C289.291 0.545956 295.749 0.545956 300.664 3.09942C304.807 5.2512 308.184 8.62871 310.336 12.7711C312.89 17.6867 312.89 24.1447 312.89 37.0608V77.886H-18.1504V0.545956Z" fill="#FCFCFC"/>
<path d="M29.2694 51.7043L35.7202 23.5758H39.347L37.4367 34.5116L30.4322 63.886H26.8054L29.2694 51.7043ZM22.9018 23.5758L27.9405 51.1506L29.4355 63.886H25.8641L17.8353 23.5758H22.9018ZM47.5696 51.1229L52.4976 23.5758H57.5641L49.5629 63.886H45.9915L47.5696 51.1229ZM39.9284 23.5758L46.1853 51.7043L48.5939 63.886H44.9671L38.2672 34.5116L36.3569 23.5758H39.9284ZM80.7413 40.907V45.2536H63.2717V40.907H80.7413ZM63.9638 23.5758V63.886H58.8697V23.5758H63.9638ZM85.254 23.5758V63.886H80.1599V23.5758H85.254ZM111.172 59.5393V63.886H93.6749V59.5393H111.172ZM94.5885 23.5758V63.886H89.4944V23.5758H94.5885ZM108.819 40.907V45.2536H93.6749V40.907H108.819ZM110.895 23.5758V27.9501H93.6749V23.5758H110.895ZM113.17 23.5758H124.438C127.059 23.5758 129.255 24.0372 131.027 24.9601C132.817 25.8829 134.165 27.2488 135.069 29.0575C135.992 30.8479 136.453 33.0535 136.453 35.6744C136.453 37.5201 136.149 39.2089 135.54 40.7408C134.931 42.2543 134.045 43.5463 132.882 44.6168C131.719 45.6689 130.307 46.4533 128.646 46.9701L127.262 47.5515H117.212L117.157 43.2049H124.383C125.933 43.2049 127.225 42.8726 128.259 42.2082C129.292 41.5253 130.067 40.6116 130.584 39.4673C131.101 38.323 131.359 37.0587 131.359 35.6744C131.359 34.124 131.129 32.7674 130.667 31.6046C130.206 30.4418 129.467 29.5467 128.452 28.9191C127.456 28.2731 126.118 27.9501 124.438 27.9501H118.264V63.886H113.17V23.5758ZM132.522 63.886L124.493 45.6135L129.781 45.5858L137.976 63.5537V63.886H132.522ZM160.406 59.5393V63.886H142.909V59.5393H160.406ZM143.822 23.5758V63.886H138.728V23.5758H143.822ZM158.053 40.907V45.2536H142.909V40.907H158.053ZM160.129 23.5758V27.9501H142.909V23.5758H160.129ZM173.122 23.5758L181.345 43.8139L189.595 23.5758H195.354L183.892 48.825V63.886H178.798V48.825L167.336 23.5758H173.122ZM221.493 40.2425V47.2469C221.493 50.0893 221.18 52.5903 220.552 54.7497C219.943 56.8907 219.048 58.6811 217.867 60.1207C216.685 61.5604 215.264 62.6401 213.603 63.3599C211.942 64.0798 210.069 64.4397 207.983 64.4397C205.971 64.4397 204.135 64.0798 202.474 63.3599C200.812 62.6401 199.382 61.5604 198.182 60.1207C196.983 58.6811 196.05 56.8907 195.386 54.7497C194.74 52.5903 194.417 50.0893 194.417 47.2469V40.2425C194.417 37.4001 194.74 34.9084 195.386 32.7674C196.032 30.6079 196.955 28.8084 198.155 27.3687C199.354 25.9291 200.785 24.8493 202.446 24.1295C204.107 23.3912 205.943 23.0221 207.955 23.0221C210.041 23.0221 211.914 23.3912 213.575 24.1295C215.255 24.8493 216.676 25.9291 217.839 27.3687C219.02 28.8084 219.925 30.6079 220.552 32.7674C221.18 34.9084 221.493 37.4001 221.493 40.2425ZM216.455 47.2469V40.1871C216.455 37.9723 216.27 36.0712 215.901 34.4839C215.532 32.8781 214.987 31.5677 214.268 30.5526C213.548 29.5374 212.662 28.7899 211.61 28.31C210.558 27.8117 209.34 27.5625 207.955 27.5625C206.645 27.5625 205.464 27.8117 204.412 28.31C203.378 28.7899 202.492 29.5374 201.754 30.5526C201.015 31.5677 200.443 32.8781 200.037 34.4839C199.65 36.0712 199.456 37.9723 199.456 40.1871V47.2469C199.456 49.4802 199.65 51.3998 200.037 53.0055C200.443 54.5928 201.015 55.9033 201.754 56.9369C202.51 57.952 203.415 58.7088 204.467 59.2071C205.519 59.687 206.691 59.9269 207.983 59.9269C209.367 59.9269 210.585 59.687 211.637 59.2071C212.708 58.7088 213.594 57.952 214.295 56.9369C215.015 55.9033 215.55 54.5928 215.901 53.0055C216.27 51.3998 216.455 49.4802 216.455 47.2469ZM243.812 23.5758H248.907V51.9535C248.907 54.9804 248.325 57.4075 247.162 59.2348C246 61.062 244.468 62.3909 242.567 63.2215C240.684 64.0336 238.654 64.4397 236.476 64.4397C234.15 64.4397 232.055 64.0336 230.191 63.2215C228.327 62.3909 226.841 61.062 225.734 59.2348C224.645 57.4075 224.1 54.9804 224.1 51.9535V23.5758H229.167V51.9535C229.167 54.0576 229.462 55.7003 230.053 56.8815C230.662 58.0628 231.511 58.8933 232.6 59.3732C233.707 59.8531 234.999 60.093 236.476 60.093C237.971 60.093 239.263 59.8531 240.352 59.3732C241.459 58.8933 242.308 58.0628 242.899 56.8815C243.508 55.7003 243.812 54.0576 243.812 51.9535V23.5758ZM252.178 23.5758H263.446C266.067 23.5758 268.263 24.0372 270.035 24.9601C271.825 25.8829 273.173 27.2488 274.077 29.0575C275 30.8479 275.461 33.0535 275.461 35.6744C275.461 37.5201 275.157 39.2089 274.548 40.7408C273.939 42.2543 273.053 43.5463 271.89 44.6168C270.727 45.6689 269.315 46.4533 267.654 46.9701L266.27 47.5515H256.22L256.165 43.2049H263.391C264.941 43.2049 266.233 42.8726 267.267 42.2082C268.3 41.5253 269.075 40.6116 269.592 39.4673C270.109 38.323 270.367 37.0587 270.367 35.6744C270.367 34.124 270.137 32.7674 269.675 31.6046C269.214 30.4418 268.475 29.5467 267.46 28.9191C266.464 28.2731 265.126 27.9501 263.446 27.9501H257.272V63.886H252.178V23.5758ZM271.53 63.886L263.501 45.6135L268.789 45.5858L276.984 63.5537V63.886H271.53Z" fill="black"/>
<path d="M-18.1504 77.886H370.55C383.075 77.886 393.23 88.0401 393.23 100.566V143.886C393.23 156.412 383.075 166.566 370.55 166.566H-18.1504V77.886Z" fill="#FCFCFC"/>
<rect x="16.1531" y="89.5095" width="342.773" height="65.433" rx="22.3965" stroke="#F2894E" stroke-width="0.567"/>
<path d="M27.4919 100.916H32.42L42.9682 133.779L53.4887 100.916H58.4167L44.8785 141.226H41.0025L27.4919 100.916ZM25.8862 100.916H30.2051L30.9526 125.501V141.226H25.8862V100.916ZM55.6758 100.916H59.9948V141.226H54.9283V125.501L55.6758 100.916ZM85.8852 136.879V141.226H68.3879V136.879H85.8852ZM69.3015 100.916V141.226H64.2074V100.916H69.3015ZM83.5319 118.247V122.594H68.3879V118.247H83.5319ZM85.6083 100.916V105.29H68.3879V100.916H85.6083ZM114.212 100.916V141.226H109.09L92.9494 110.135V141.226H87.8553V100.916H92.9494L109.173 132.09V100.916H114.212ZM130.606 100.916V141.226H125.567V100.916H130.606ZM141.21 100.916V105.29H114.992V100.916H141.21ZM153.479 104.487L142.46 141.226H137.255L150.24 100.916H153.507L153.479 104.487ZM162.394 141.226L151.375 104.487L151.319 100.916H154.614L167.599 141.226H162.394ZM162.394 126.303V130.678H142.958V126.303H162.394ZM189.502 136.879V141.226H172.78V136.879H189.502ZM173.694 100.916V141.226H168.6V100.916H173.694ZM221.377 118.247V122.594H203.908V118.247H221.377ZM204.6 100.916V141.226H199.506V100.916H204.6ZM225.89 100.916V141.226H220.796V100.916H225.89ZM251.808 136.879V141.226H234.311V136.879H251.808ZM235.224 100.916V141.226H230.13V100.916H235.224ZM249.455 118.247V122.594H234.311V118.247H249.455ZM251.531 100.916V105.29H234.311V100.916H251.531ZM266.846 104.487L255.827 141.226H250.622L263.606 100.916H266.873L266.846 104.487ZM275.76 141.226L264.742 104.487L264.686 100.916H267.981L280.965 141.226H275.76ZM275.76 126.303V130.678H256.325V126.303H275.76ZM302.869 136.879V141.226H286.147V136.879H302.869ZM287.061 100.916V141.226H281.966V100.916H287.061ZM309.712 100.916V141.226H304.673V100.916H309.712ZM320.315 100.916V105.29H294.097V100.916H320.315ZM343.603 118.247V122.594H326.134V118.247H343.603ZM326.826 100.916V141.226H321.732V100.916H326.826ZM348.116 100.916V141.226H343.022V100.916H348.116Z" fill="black"/>
<path d="M-18.1504 166.566H341.61V209.886C341.61 222.412 331.456 232.566 318.93 232.566H-18.1504V166.566Z" fill="#FCFCFC"/>
<g clip-path="url(#clip0_285_1090)">
<path d="M18.0811 209.414L29.3439 198.151L34.9754 203.782L49.0393 189.718" stroke="#045257" stroke-width="4.536" stroke-miterlimit="10"/>
<path d="M42.0068 189.718H49.0388V196.75" stroke="#045257" stroke-width="4.536" stroke-miterlimit="10"/>
</g>
<path d="M72.0311 178.256V218.566H66.937V178.256H72.0311ZM85.6247 196.39V200.764H71.0621V196.39H85.6247ZM87.9226 178.256V182.63H71.0621V178.256H87.9226ZM110.601 214.219V218.566H93.8794V214.219H110.601ZM94.7931 178.256V218.566H89.6989V178.256H94.7931ZM136.52 194.922V201.927C136.52 204.769 136.206 207.27 135.578 209.43C134.969 211.571 134.074 213.361 132.893 214.801C131.712 216.24 130.29 217.32 128.629 218.04C126.968 218.76 125.095 219.12 123.009 219.12C120.997 219.12 119.161 218.76 117.5 218.04C115.838 217.32 114.408 216.24 113.208 214.801C112.009 213.361 111.077 211.571 110.412 209.43C109.766 207.27 109.443 204.769 109.443 201.927V194.922C109.443 192.08 109.766 189.588 110.412 187.447C111.058 185.288 111.981 183.488 113.181 182.049C114.38 180.609 115.811 179.529 117.472 178.81C119.133 178.071 120.97 177.702 122.981 177.702C125.067 177.702 126.94 178.071 128.602 178.81C130.281 179.529 131.702 180.609 132.865 182.049C134.046 183.488 134.951 185.288 135.578 187.447C136.206 189.588 136.52 192.08 136.52 194.922ZM131.481 201.927V194.867C131.481 192.652 131.296 190.751 130.927 189.164C130.558 187.558 130.013 186.248 129.294 185.233C128.574 184.217 127.688 183.47 126.636 182.99C125.584 182.492 124.366 182.243 122.981 182.243C121.671 182.243 120.49 182.492 119.438 182.99C118.404 183.47 117.518 184.217 116.78 185.233C116.042 186.248 115.469 187.558 115.063 189.164C114.676 190.751 114.482 192.652 114.482 194.867V201.927C114.482 204.16 114.676 206.08 115.063 207.686C115.469 209.273 116.042 210.583 116.78 211.617C117.537 212.632 118.441 213.389 119.493 213.887C120.545 214.367 121.717 214.607 123.009 214.607C124.393 214.607 125.611 214.367 126.664 213.887C127.734 213.389 128.62 212.632 129.321 211.617C130.041 210.583 130.576 209.273 130.927 207.686C131.296 206.08 131.481 204.16 131.481 201.927ZM158.839 178.256H163.933V206.633C163.933 209.66 163.351 212.088 162.189 213.915C161.026 215.742 159.494 217.071 157.593 217.901C155.71 218.714 153.68 219.12 151.502 219.12C149.176 219.12 147.081 218.714 145.217 217.901C143.353 217.071 141.867 215.742 140.76 213.915C139.671 212.088 139.126 209.66 139.126 206.633V178.256H144.193V206.633C144.193 208.738 144.488 210.38 145.079 211.562C145.688 212.743 146.537 213.573 147.626 214.053C148.733 214.533 150.025 214.773 151.502 214.773C152.997 214.773 154.289 214.533 155.378 214.053C156.485 213.573 157.334 212.743 157.925 211.562C158.534 210.38 158.839 208.738 158.839 206.633V178.256ZM167.204 178.256H178.472C181.093 178.256 183.289 178.717 185.061 179.64C186.852 180.563 188.199 181.929 189.103 183.738C190.026 185.528 190.488 187.733 190.488 190.354C190.488 192.2 190.183 193.889 189.574 195.421C188.965 196.934 188.079 198.226 186.916 199.297C185.753 200.349 184.341 201.133 182.68 201.65L181.296 202.231H171.246L171.191 197.885H178.417C179.967 197.885 181.259 197.553 182.293 196.888C183.326 196.205 184.101 195.292 184.618 194.147C185.135 193.003 185.393 191.739 185.393 190.354C185.393 188.804 185.163 187.447 184.701 186.285C184.24 185.122 183.502 184.227 182.486 183.599C181.49 182.953 180.152 182.63 178.472 182.63H172.298V218.566H167.204V178.256ZM186.556 218.566L178.527 200.293L183.815 200.266L192.01 218.234V218.566H186.556ZM198.078 178.256V218.566H192.984V178.256H198.078ZM220.037 208.378C220.037 207.436 219.926 206.606 219.705 205.886C219.483 205.148 219.096 204.483 218.542 203.893C217.988 203.302 217.213 202.739 216.216 202.204C215.22 201.669 213.955 201.124 212.423 200.57C210.762 199.98 209.258 199.324 207.911 198.605C206.563 197.866 205.41 197.027 204.45 196.085C203.509 195.144 202.78 194.064 202.263 192.846C201.746 191.628 201.488 190.234 201.488 188.666C201.488 187.097 201.755 185.648 202.29 184.319C202.844 182.99 203.619 181.836 204.616 180.858C205.631 179.862 206.849 179.086 208.271 178.533C209.692 177.979 211.279 177.702 213.032 177.702C215.653 177.702 217.859 178.283 219.649 179.446C221.458 180.591 222.824 182.095 223.747 183.959C224.67 185.805 225.131 187.78 225.131 189.884H220.037C220.037 188.37 219.788 187.032 219.289 185.869C218.81 184.688 218.053 183.765 217.019 183.101C216.004 182.418 214.675 182.076 213.032 182.076C211.556 182.076 210.338 182.362 209.378 182.935C208.437 183.507 207.735 184.282 207.274 185.26C206.831 186.238 206.609 187.355 206.609 188.61C206.609 189.459 206.757 190.234 207.052 190.936C207.348 191.619 207.8 192.255 208.409 192.846C209.037 193.437 209.812 193.981 210.735 194.48C211.676 194.978 212.783 195.458 214.057 195.919C216.032 196.565 217.721 197.285 219.123 198.079C220.526 198.872 221.67 199.767 222.556 200.764C223.442 201.742 224.088 202.859 224.494 204.114C224.919 205.351 225.131 206.753 225.131 208.322C225.131 209.965 224.854 211.451 224.3 212.78C223.765 214.109 222.981 215.244 221.947 216.185C220.914 217.126 219.668 217.855 218.21 218.372C216.752 218.87 215.109 219.12 213.282 219.12C211.694 219.12 210.135 218.861 208.603 218.344C207.089 217.828 205.714 217.052 204.478 216.019C203.241 214.985 202.254 213.712 201.515 212.198C200.777 210.666 200.408 208.894 200.408 206.883H205.502C205.502 208.267 205.705 209.457 206.111 210.454C206.517 211.432 207.08 212.244 207.8 212.89C208.52 213.536 209.341 214.016 210.264 214.33C211.205 214.625 212.211 214.773 213.282 214.773C214.758 214.773 215.995 214.515 216.992 213.998C218.007 213.481 218.763 212.743 219.262 211.783C219.779 210.823 220.037 209.688 220.037 208.378ZM249.139 195.587V199.934H231.669V195.587H249.139ZM232.361 178.256V218.566H227.267V178.256H232.361ZM253.652 178.256V218.566H248.557V178.256H253.652ZM279.57 214.219V218.566H262.072V214.219H279.57ZM262.986 178.256V218.566H257.892V178.256H262.986ZM277.216 195.587V199.934H262.072V195.587H277.216ZM279.293 178.256V182.63H262.072V178.256H279.293ZM299.175 208.378C299.175 207.436 299.065 206.606 298.843 205.886C298.622 205.148 298.234 204.483 297.68 203.893C297.127 203.302 296.352 202.739 295.355 202.204C294.358 201.669 293.094 201.124 291.562 200.57C289.901 199.98 288.397 199.324 287.049 198.605C285.702 197.866 284.548 197.027 283.589 196.085C282.647 195.144 281.918 194.064 281.401 192.846C280.885 191.628 280.626 190.234 280.626 188.666C280.626 187.097 280.894 185.648 281.429 184.319C281.983 182.99 282.758 181.836 283.755 180.858C284.77 179.862 285.988 179.086 287.409 178.533C288.83 177.979 290.418 177.702 292.171 177.702C294.792 177.702 296.998 178.283 298.788 179.446C300.597 180.591 301.963 182.095 302.885 183.959C303.808 185.805 304.27 187.78 304.27 189.884H299.175C299.175 188.37 298.926 187.032 298.428 185.869C297.948 184.688 297.191 183.765 296.158 183.101C295.143 182.418 293.814 182.076 292.171 182.076C290.694 182.076 289.476 182.362 288.517 182.935C287.575 183.507 286.874 184.282 286.412 185.26C285.969 186.238 285.748 187.355 285.748 188.61C285.748 189.459 285.896 190.234 286.191 190.936C286.486 191.619 286.938 192.255 287.548 192.846C288.175 193.437 288.95 193.981 289.873 194.48C290.814 194.978 291.922 195.458 293.195 195.919C295.17 196.565 296.859 197.285 298.262 198.079C299.665 198.872 300.809 199.767 301.695 200.764C302.581 201.742 303.227 202.859 303.633 204.114C304.057 205.351 304.27 206.753 304.27 208.322C304.27 209.965 303.993 211.451 303.439 212.78C302.904 214.109 302.119 215.244 301.086 216.185C300.052 217.126 298.806 217.855 297.348 218.372C295.89 218.87 294.247 219.12 292.42 219.12C290.833 219.12 289.273 218.861 287.741 218.344C286.228 217.828 284.853 217.052 283.616 216.019C282.38 214.985 281.392 213.712 280.654 212.198C279.916 210.666 279.546 208.894 279.546 206.883H284.641C284.641 208.267 284.844 209.457 285.25 210.454C285.656 211.432 286.219 212.244 286.938 212.89C287.658 213.536 288.48 214.016 289.403 214.33C290.344 214.625 291.35 214.773 292.42 214.773C293.897 214.773 295.133 214.515 296.13 213.998C297.145 213.481 297.902 212.743 298.4 211.783C298.917 210.823 299.175 209.688 299.175 208.378Z" fill="black"/>
<defs>
<clipPath id="clip0_285_1090">
<rect width="35.3808" height="35.3808" fill="white" transform="translate(15.8696 181.876)"/>
</clipPath>
</defs>
</svg>
