<svg width="141" height="56" viewBox="0 0 141 56" fill="none" xmlns="http://www.w3.org/2000/svg">
<rect x="1.1035" y="1.30361" width="138.575" height="54.1128" rx="17.6904" stroke="#ECECEC" stroke-width="0.9072"/>
<path d="M40.2112 33.4691V34.86H33.7616V33.4691H40.2112ZM34.0982 21.9608V34.86H32.3883V21.9608H34.0982ZM44.4474 35.0372C43.78 35.0372 43.1746 34.925 42.6312 34.7005C42.0937 34.4702 41.6301 34.1483 41.2403 33.7349C40.8564 33.3214 40.5611 32.8312 40.3543 32.2642C40.1476 31.6972 40.0443 31.0771 40.0443 30.4037V30.0317C40.0443 29.252 40.1594 28.558 40.3898 27.9497C40.6201 27.3355 40.9332 26.8157 41.3289 26.3905C41.7246 25.9652 42.1735 25.6433 42.6755 25.4248C43.1775 25.2062 43.6973 25.097 44.2348 25.097C44.9199 25.097 45.5105 25.2151 46.0066 25.4514C46.5087 25.6876 46.9191 26.0184 47.2381 26.4436C47.557 26.863 47.7933 27.3591 47.9468 27.932C48.1004 28.499 48.1772 29.1191 48.1772 29.7925V30.5278H41.0188V29.19H46.5382V29.066C46.5146 28.6407 46.426 28.2273 46.2724 27.8257C46.1248 27.424 45.8885 27.0933 45.5637 26.8334C45.2388 26.5735 44.7958 26.4436 44.2348 26.4436C43.8627 26.4436 43.5201 26.5233 43.2071 26.6828C42.894 26.8364 42.6253 27.0667 42.4009 27.3738C42.1764 27.681 42.0022 28.056 41.8782 28.499C41.7541 28.942 41.6921 29.4528 41.6921 30.0317V30.4037C41.6921 30.8585 41.7541 31.2867 41.8782 31.6884C42.0081 32.0841 42.1941 32.4325 42.4363 32.7338C42.6844 33.035 42.9826 33.2712 43.3311 33.4425C43.6855 33.6138 44.0871 33.6994 44.536 33.6994C45.1148 33.6994 45.605 33.5813 46.0066 33.3451C46.4083 33.1088 46.7597 32.7928 47.0609 32.3971L48.0531 33.1856C47.8464 33.4986 47.5836 33.7969 47.2647 34.0804C46.9457 34.3639 46.553 34.5942 46.0864 34.7714C45.6257 34.9486 45.0793 35.0372 44.4474 35.0372ZM54.2916 33.221V28.2864C54.2916 27.9084 54.2148 27.5806 54.0612 27.303C53.9136 27.0195 53.6891 26.8009 53.3879 26.6474C53.0867 26.4938 52.7146 26.417 52.2716 26.417C51.8582 26.417 51.4949 26.4879 51.1819 26.6297C50.8748 26.7714 50.6326 26.9575 50.4554 27.1878C50.2842 27.4181 50.1985 27.6662 50.1985 27.932H48.5595C48.5595 27.5894 48.6481 27.2498 48.8253 26.9132C49.0025 26.5765 49.2565 26.2723 49.5872 26.0006C49.9239 25.723 50.3255 25.5045 50.7921 25.345C51.2646 25.1797 51.7903 25.097 52.3691 25.097C53.066 25.097 53.6803 25.2151 54.2118 25.4514C54.7493 25.6876 55.1686 26.0449 55.4699 26.5233C55.777 26.9958 55.9305 27.5894 55.9305 28.3041V32.7692C55.9305 33.0881 55.9571 33.4278 56.0103 33.788C56.0693 34.1483 56.155 34.4584 56.2672 34.7183V34.86H54.5573C54.4747 34.671 54.4097 34.42 54.3624 34.107C54.3152 33.788 54.2916 33.4927 54.2916 33.221ZM54.5751 29.0483L54.5928 30.2H52.9361C52.4695 30.2 52.0531 30.2384 51.6869 30.3152C51.3207 30.386 51.0136 30.4953 50.7655 30.643C50.5175 30.7906 50.3285 30.9767 50.1985 31.2011C50.0686 31.4196 50.0036 31.6765 50.0036 31.9719C50.0036 32.2731 50.0715 32.5477 50.2074 32.7958C50.3432 33.0438 50.547 33.2417 50.8187 33.3894C51.0963 33.5311 51.4359 33.602 51.8375 33.602C52.3395 33.602 52.7825 33.4957 53.1664 33.283C53.5503 33.0704 53.8545 32.8105 54.0789 32.5034C54.3093 32.1963 54.4333 31.898 54.451 31.6086L55.1509 32.3971C55.1096 32.6452 54.9974 32.9198 54.8143 33.221C54.6312 33.5223 54.3861 33.8117 54.0789 34.0893C53.7777 34.3609 53.4174 34.5883 52.9981 34.7714C52.5847 34.9486 52.1181 35.0372 51.5983 35.0372C50.9486 35.0372 50.3787 34.9102 49.8884 34.6563C49.4041 34.4023 49.0261 34.0627 48.7544 33.6374C48.4887 33.2063 48.3558 32.7249 48.3558 32.1933C48.3558 31.6795 48.4562 31.2277 48.657 30.8379C48.8578 30.4421 49.1472 30.1143 49.5252 29.8545C49.9032 29.5887 50.358 29.3879 50.8896 29.252C51.4211 29.1162 52.0147 29.0483 52.6703 29.0483H54.5751ZM58.6961 26.7803V34.86H57.0571V25.2742H58.6518L58.6961 26.7803ZM61.6906 25.221L61.6817 26.7448C61.5459 26.7153 61.4159 26.6976 61.2919 26.6917C61.1738 26.6799 61.0379 26.674 60.8844 26.674C60.5064 26.674 60.1726 26.733 59.8832 26.8511C59.5938 26.9693 59.3487 27.1346 59.1479 27.3473C58.9471 27.5599 58.7876 27.8139 58.6695 28.1092C58.5573 28.3986 58.4835 28.7175 58.448 29.066L57.9873 29.3318C57.9873 28.753 58.0434 28.2096 58.1557 27.7016C58.2738 27.1937 58.4539 26.7448 58.6961 26.355C58.9382 25.9593 59.2454 25.6522 59.6175 25.4336C59.9955 25.2092 60.4443 25.097 60.9641 25.097C61.0822 25.097 61.2181 25.1117 61.3716 25.1413C61.5252 25.1649 61.6315 25.1915 61.6906 25.221ZM63.393 27.3207V34.86H61.754V25.2742H63.3044L63.393 27.3207ZM63.0032 29.7039L62.321 29.6773C62.3269 29.0217 62.4243 28.4163 62.6133 27.8611C62.8023 27.3 63.0681 26.8127 63.4107 26.3993C63.7533 25.9859 64.1608 25.6669 64.6333 25.4425C65.1117 25.2122 65.6403 25.097 66.2191 25.097C66.6916 25.097 67.1169 25.162 67.4949 25.2919C67.8729 25.4159 68.1948 25.6167 68.4605 25.8943C68.7322 26.1719 68.9389 26.5322 69.0807 26.9752C69.2224 27.4122 69.2933 27.9467 69.2933 28.5787V34.86H67.6455V28.561C67.6455 28.059 67.5716 27.6573 67.424 27.3561C67.2763 27.049 67.0608 26.8275 66.7773 26.6917C66.4938 26.5499 66.1453 26.479 65.7318 26.479C65.3243 26.479 64.9522 26.5647 64.6156 26.736C64.2848 26.9072 63.9984 27.1435 63.7562 27.4447C63.52 27.7459 63.3339 28.0915 63.1981 28.4813C63.0681 28.8652 63.0032 29.2727 63.0032 29.7039ZM74.1688 21.9608H75.8255L80.0514 32.4768L84.2685 21.9608H85.9341L80.6893 34.86H79.3958L74.1688 21.9608ZM73.6284 21.9608H75.0902L75.3294 29.8279V34.86H73.6284V21.9608ZM85.0038 21.9608H86.4656V34.86H84.7646V29.8279L85.0038 21.9608ZM87.3353 30.1734V29.9696C87.3353 29.2786 87.4357 28.6378 87.6365 28.0472C87.8373 27.4506 88.1267 26.9338 88.5047 26.4968C88.8827 26.0538 89.3404 25.7112 89.8779 25.4691C90.4154 25.221 91.0178 25.097 91.6852 25.097C92.3585 25.097 92.9639 25.221 93.5014 25.4691C94.0448 25.7112 94.5054 26.0538 94.8834 26.4968C95.2674 26.9338 95.5597 27.4506 95.7605 28.0472C95.9613 28.6378 96.0617 29.2786 96.0617 29.9696V30.1734C96.0617 30.8644 95.9613 31.5053 95.7605 32.0959C95.5597 32.6865 95.2674 33.2033 94.8834 33.6463C94.5054 34.0833 94.0477 34.4259 93.5102 34.674C92.9787 34.9161 92.3762 35.0372 91.7029 35.0372C91.0296 35.0372 90.4242 34.9161 89.8868 34.674C89.3493 34.4259 88.8886 34.0833 88.5047 33.6463C88.1267 33.2033 87.8373 32.6865 87.6365 32.0959C87.4357 31.5053 87.3353 30.8644 87.3353 30.1734ZM88.9742 29.9696V30.1734C88.9742 30.6518 89.0304 31.1036 89.1426 31.5289C89.2548 31.9482 89.4231 32.3203 89.6476 32.6452C89.8779 32.97 90.1644 33.2269 90.5069 33.4159C90.8495 33.599 91.2481 33.6906 91.7029 33.6906C92.1518 33.6906 92.5446 33.599 92.8812 33.4159C93.2238 33.2269 93.5073 32.97 93.7317 32.6452C93.9562 32.3203 94.1245 31.9482 94.2367 31.5289C94.3548 31.1036 94.4139 30.6518 94.4139 30.1734V29.9696C94.4139 29.4971 94.3548 29.0512 94.2367 28.6319C94.1245 28.2066 93.9532 27.8316 93.7229 27.5067C93.4984 27.176 93.2149 26.9161 92.8724 26.7271C92.5357 26.5381 92.14 26.4436 91.6852 26.4436C91.2363 26.4436 90.8406 26.5381 90.4981 26.7271C90.1614 26.9161 89.8779 27.176 89.6476 27.5067C89.4231 27.8316 89.2548 28.2066 89.1426 28.6319C89.0304 29.0512 88.9742 29.4971 88.9742 29.9696ZM98.3046 26.7803V34.86H96.6656V25.2742H98.2603L98.3046 26.7803ZM101.299 25.221L101.29 26.7448C101.154 26.7153 101.024 26.6976 100.9 26.6917C100.782 26.6799 100.646 26.674 100.493 26.674C100.115 26.674 99.7811 26.733 99.4917 26.8511C99.2023 26.9693 98.9572 27.1346 98.7564 27.3473C98.5556 27.5599 98.3961 27.8139 98.278 28.1092C98.1658 28.3986 98.092 28.7175 98.0565 29.066L97.5958 29.3318C97.5958 28.753 97.6519 28.2096 97.7642 27.7016C97.8823 27.1937 98.0624 26.7448 98.3046 26.355C98.5467 25.9593 98.8539 25.6522 99.226 25.4336C99.604 25.2092 100.053 25.097 100.573 25.097C100.691 25.097 100.827 25.1117 100.98 25.1413C101.134 25.1649 101.24 25.1915 101.299 25.221ZM105.163 35.0372C104.496 35.0372 103.89 34.925 103.347 34.7005C102.81 34.4702 102.346 34.1483 101.956 33.7349C101.572 33.3214 101.277 32.8312 101.07 32.2642C100.863 31.6972 100.76 31.0771 100.76 30.4037V30.0317C100.76 29.252 100.875 28.558 101.106 27.9497C101.336 27.3355 101.649 26.8157 102.045 26.3905C102.44 25.9652 102.889 25.6433 103.391 25.4248C103.893 25.2062 104.413 25.097 104.951 25.097C105.636 25.097 106.226 25.2151 106.722 25.4514C107.224 25.6876 107.635 26.0184 107.954 26.4436C108.273 26.863 108.509 27.3591 108.663 27.932C108.816 28.499 108.893 29.1191 108.893 29.7925V30.5278H101.735V29.19H107.254V29.066C107.23 28.6407 107.142 28.2273 106.988 27.8257C106.841 27.424 106.604 27.0933 106.279 26.8334C105.955 26.5735 105.512 26.4436 104.951 26.4436C104.578 26.4436 104.236 26.5233 103.923 26.6828C103.61 26.8364 103.341 27.0667 103.117 27.3738C102.892 27.681 102.718 28.056 102.594 28.499C102.47 28.942 102.408 29.4528 102.408 30.0317V30.4037C102.408 30.8585 102.47 31.2867 102.594 31.6884C102.724 32.0841 102.91 32.4325 103.152 32.7338C103.4 33.035 103.698 33.2712 104.047 33.4425C104.401 33.6138 104.803 33.6994 105.252 33.6994C105.831 33.6994 106.321 33.5813 106.722 33.3451C107.124 33.1088 107.475 32.7928 107.777 32.3971L108.769 33.1856C108.562 33.4986 108.299 33.7969 107.98 34.0804C107.662 34.3639 107.269 34.5942 106.802 34.7714C106.341 34.9486 105.795 35.0372 105.163 35.0372Z" fill="black"/>
</svg>
