<svg width="222" height="62" viewBox="0 0 222 62" fill="none" xmlns="http://www.w3.org/2000/svg">
<rect x="6.84961" y="6.91" width="214.326" height="55.02" rx="18.144" fill="#045257"/>
<path d="M46.8073 28.0208H48.9158L52.4418 37.7306L55.959 28.0208H58.0764L53.2835 40.92H51.5913L46.8073 28.0208ZM45.7441 28.0208H47.8084L48.1805 36.9422V40.92H45.7441V28.0208ZM57.0664 28.0208H59.1395V40.92H56.7032V36.9422L57.0664 28.0208ZM64.2971 41.0972C63.5706 41.0972 62.918 40.9791 62.3392 40.7428C61.7604 40.5066 61.2672 40.1788 60.8597 39.7594C60.458 39.3342 60.148 38.841 59.9294 38.2799C59.7168 37.7129 59.6105 37.1046 59.6105 36.4549V36.1005C59.6105 35.3622 59.7168 34.6919 59.9294 34.0894C60.1421 33.4811 60.4433 32.9584 60.8331 32.5213C61.2229 32.0843 61.6895 31.7476 62.2329 31.5114C62.7762 31.2751 63.3757 31.157 64.0313 31.157C64.7105 31.157 65.31 31.2722 65.8298 31.5025C66.3495 31.7269 66.7836 32.0459 67.1321 32.4593C67.4806 32.8727 67.7434 33.3689 67.9206 33.9477C68.0978 34.5206 68.1864 35.1555 68.1864 35.8525V36.8358H60.6736V35.2234H65.8829V35.0462C65.8711 34.6742 65.8002 34.3345 65.6703 34.0274C65.5404 33.7144 65.3396 33.4663 65.0679 33.2832C64.7962 33.0942 64.4448 32.9997 64.0136 32.9997C63.6651 32.9997 63.361 33.0765 63.1011 33.2301C62.8471 33.3777 62.6345 33.5904 62.4632 33.868C62.2978 34.1396 62.1738 34.4645 62.0911 34.8425C62.0084 35.2205 61.9671 35.6398 61.9671 36.1005V36.4549C61.9671 36.8565 62.0202 37.2286 62.1266 37.5712C62.2388 37.9137 62.4012 38.212 62.6138 38.466C62.8323 38.714 63.0922 38.9089 63.3934 39.0507C63.7006 39.1865 64.049 39.2545 64.4388 39.2545C64.9291 39.2545 65.372 39.16 65.7678 38.971C66.1694 38.776 66.5178 38.4896 66.8132 38.1116L67.9915 39.3342C67.7906 39.6295 67.519 39.913 67.1764 40.1847C66.8397 40.4564 66.4322 40.6779 65.9538 40.8491C65.4754 41.0145 64.9232 41.0972 64.2971 41.0972ZM72.6086 41.0972C71.8821 41.0972 71.2295 40.9791 70.6507 40.7428C70.0719 40.5066 69.5787 40.1788 69.1712 39.7594C68.7695 39.3342 68.4595 38.841 68.2409 38.2799C68.0283 37.7129 67.922 37.1046 67.922 36.4549V36.1005C67.922 35.3622 68.0283 34.6919 68.2409 34.0894C68.4536 33.4811 68.7548 32.9584 69.1446 32.5213C69.5344 32.0843 70.001 31.7476 70.5444 31.5114C71.0878 31.2751 71.6872 31.157 72.3428 31.157C73.022 31.157 73.6215 31.2722 74.1413 31.5025C74.661 31.7269 75.0951 32.0459 75.4436 32.4593C75.7921 32.8727 76.0549 33.3689 76.2321 33.9477C76.4093 34.5206 76.4979 35.1555 76.4979 35.8525V36.8358H68.9851V35.2234H74.1944V35.0462C74.1826 34.6742 74.1118 34.3345 73.9818 34.0274C73.8519 33.7144 73.6511 33.4663 73.3794 33.2832C73.1077 33.0942 72.7563 32.9997 72.3251 32.9997C71.9766 32.9997 71.6725 33.0765 71.4126 33.2301C71.1586 33.3777 70.946 33.5904 70.7747 33.868C70.6093 34.1396 70.4853 34.4645 70.4026 34.8425C70.3199 35.2205 70.2786 35.6398 70.2786 36.1005V36.4549C70.2786 36.8565 70.3318 37.2286 70.4381 37.5712C70.5503 37.9137 70.7127 38.212 70.9253 38.466C71.1439 38.714 71.4037 38.9089 71.705 39.0507C72.0121 39.1865 72.3605 39.2545 72.7504 39.2545C73.2406 39.2545 73.6835 39.16 74.0793 38.971C74.4809 38.776 74.8294 38.4896 75.1247 38.1116L76.303 39.3342C76.1022 39.6295 75.8305 39.913 75.4879 40.1847C75.1513 40.4564 74.7437 40.6779 74.2653 40.8491C73.7869 41.0145 73.2347 41.0972 72.6086 41.0972ZM81.1505 31.3342V33.0175H75.6577V31.3342H81.1505ZM77.1283 28.9776H79.476V38.1559C79.476 38.4394 79.5144 38.6579 79.5912 38.8115C79.668 38.965 79.7832 39.0684 79.9367 39.1216C80.0903 39.1747 80.2734 39.2013 80.486 39.2013C80.6396 39.2013 80.7813 39.1924 80.9113 39.1747C81.0412 39.157 81.1505 39.1393 81.2391 39.1216L81.2479 40.8757C81.053 40.9407 80.8315 40.9938 80.5835 41.0352C80.3413 41.0765 80.0667 41.0972 79.7595 41.0972C79.2339 41.0972 78.7732 41.0086 78.3775 40.8314C77.9818 40.6483 77.6746 40.356 77.4561 39.9543C77.2376 39.5468 77.1283 39.0093 77.1283 38.3419V28.9776ZM86.0082 28.0208L88.8432 34.0363L91.696 28.0208H94.3715L90.0836 36.198V40.92H87.6118V36.198L83.315 28.0208H86.0082ZM93.0351 36.2245V36.0385C93.0351 35.3357 93.1355 34.6889 93.3364 34.0983C93.5372 33.5018 93.8295 32.985 94.2134 32.5479C94.5973 32.1108 95.0669 31.7712 95.6221 31.5291C96.1773 31.281 96.8092 31.157 97.518 31.157C98.2385 31.157 98.8764 31.281 99.4316 31.5291C99.9927 31.7712 100.465 32.1108 100.849 32.5479C101.233 32.985 101.525 33.5018 101.726 34.0983C101.927 34.6889 102.027 35.3357 102.027 36.0385V36.2245C102.027 36.9215 101.927 37.5682 101.726 38.1647C101.525 38.7554 101.233 39.2722 100.849 39.7151C100.465 40.1522 99.9957 40.4918 99.4405 40.734C98.8853 40.9761 98.2504 41.0972 97.5357 41.0972C96.827 41.0972 96.192 40.9761 95.6309 40.734C95.0698 40.4918 94.5973 40.1522 94.2134 39.7151C93.8295 39.2722 93.5372 38.7554 93.3364 38.1647C93.1355 37.5682 93.0351 36.9215 93.0351 36.2245ZM95.374 36.0385V36.2245C95.374 36.6439 95.4154 37.0367 95.498 37.4028C95.5807 37.769 95.7077 38.0909 95.879 38.3685C96.0503 38.6461 96.2718 38.8646 96.5435 39.0241C96.821 39.1777 97.1518 39.2545 97.5357 39.2545C97.9137 39.2545 98.2385 39.1777 98.5102 39.0241C98.7819 38.8646 99.0034 38.6461 99.1747 38.3685C99.3519 38.0909 99.4818 37.769 99.5645 37.4028C99.6472 37.0367 99.6885 36.6439 99.6885 36.2245V36.0385C99.6885 35.6251 99.6472 35.2382 99.5645 34.8779C99.4818 34.5117 99.3519 34.1898 99.1747 33.9122C99.0034 33.6287 98.779 33.4073 98.5014 33.2478C98.2297 33.0824 97.9019 32.9997 97.518 32.9997C97.14 32.9997 96.8151 33.0824 96.5435 33.2478C96.2718 33.4073 96.0503 33.6287 95.879 33.9122C95.7077 34.1898 95.5807 34.5117 95.498 34.8779C95.4154 35.2382 95.374 35.6251 95.374 36.0385ZM107.982 38.6432V31.3342H110.339V40.92H108.124L107.982 38.6432ZM108.284 36.6587L109.01 36.6409C109.01 37.2847 108.939 37.8783 108.797 38.4217C108.656 38.965 108.434 39.4375 108.133 39.8392C107.838 40.2349 107.463 40.545 107.008 40.7694C106.553 40.9879 106.016 41.0972 105.395 41.0972C104.923 41.0972 104.492 41.0322 104.102 40.9023C103.712 40.7665 103.375 40.5568 103.092 40.2733C102.814 39.9839 102.599 39.6147 102.445 39.1659C102.292 38.7111 102.215 38.1647 102.215 37.5269V31.3342H104.554V37.5446C104.554 37.8635 104.589 38.1293 104.66 38.3419C104.737 38.5546 104.84 38.7288 104.97 38.8646C105.106 38.9946 105.262 39.0891 105.44 39.1481C105.623 39.2013 105.818 39.2279 106.024 39.2279C106.591 39.2279 107.037 39.1157 107.362 38.8912C107.693 38.6609 107.929 38.3537 108.071 37.9698C108.213 37.58 108.284 37.143 108.284 36.6587ZM113.299 33.2921V40.92H110.96V31.3342H113.175L113.299 33.2921ZM116.214 31.2722L116.179 33.4516C116.049 33.4279 115.901 33.4102 115.736 33.3984C115.576 33.3866 115.426 33.3807 115.284 33.3807C114.924 33.3807 114.608 33.4309 114.336 33.5313C114.064 33.6258 113.837 33.7646 113.654 33.9477C113.477 34.1308 113.341 34.3552 113.246 34.621C113.152 34.8809 113.099 35.1762 113.087 35.5069L112.582 35.4449C112.582 34.8366 112.644 34.2725 112.768 33.7528C112.892 33.233 113.072 32.7782 113.308 32.3884C113.544 31.9986 113.84 31.6974 114.194 31.4848C114.554 31.2662 114.968 31.157 115.434 31.157C115.564 31.157 115.703 31.1688 115.851 31.1924C116.004 31.2101 116.126 31.2367 116.214 31.2722ZM124.385 28.0208V40.92H121.958V28.0208H124.385ZM128.39 28.0208V29.9432H117.998V28.0208H128.39ZM130.677 27.312V40.92H128.329V27.312H130.677ZM130.305 35.7816H129.614C129.614 35.1142 129.702 34.4999 129.88 33.9388C130.057 33.3777 130.308 32.8905 130.633 32.477C130.957 32.0577 131.344 31.7328 131.793 31.5025C132.248 31.2722 132.75 31.157 133.299 31.157C133.772 31.157 134.2 31.2249 134.584 31.3607C134.974 31.4907 135.307 31.7004 135.585 31.9898C135.863 32.2792 136.075 32.6572 136.223 33.1238C136.376 33.5845 136.453 34.1455 136.453 34.807V40.92H134.097V34.7893C134.097 34.3464 134.032 33.9979 133.902 33.7439C133.772 33.484 133.586 33.298 133.344 33.1858C133.107 33.0736 132.815 33.0175 132.466 33.0175C132.088 33.0175 131.764 33.0913 131.492 33.2389C131.22 33.3807 130.996 33.5785 130.819 33.8325C130.647 34.0865 130.517 34.3788 130.429 34.7096C130.346 35.0403 130.305 35.3977 130.305 35.7816ZM141.372 41.0972C140.645 41.0972 139.992 40.9791 139.414 40.7428C138.835 40.5066 138.342 40.1788 137.934 39.7594C137.532 39.3342 137.222 38.841 137.004 38.2799C136.791 37.7129 136.685 37.1046 136.685 36.4549V36.1005C136.685 35.3622 136.791 34.6919 137.004 34.0894C137.216 33.4811 137.518 32.9584 137.908 32.5213C138.297 32.0843 138.764 31.7476 139.307 31.5114C139.851 31.2751 140.45 31.157 141.106 31.157C141.785 31.157 142.384 31.2722 142.904 31.5025C143.424 31.7269 143.858 32.0459 144.207 32.4593C144.555 32.8727 144.818 33.3689 144.995 33.9477C145.172 34.5206 145.261 35.1555 145.261 35.8525V36.8358H137.748V35.2234H142.957V35.0462C142.946 34.6742 142.875 34.3345 142.745 34.0274C142.615 33.7144 142.414 33.4663 142.142 33.2832C141.871 33.0942 141.519 32.9997 141.088 32.9997C140.74 32.9997 140.435 33.0765 140.176 33.2301C139.922 33.3777 139.709 33.5904 139.538 33.868C139.372 34.1396 139.248 34.4645 139.166 34.8425C139.083 35.2205 139.042 35.6398 139.042 36.1005V36.4549C139.042 36.8565 139.095 37.2286 139.201 37.5712C139.313 37.9137 139.476 38.212 139.688 38.466C139.907 38.714 140.167 38.9089 140.468 39.0507C140.775 39.1865 141.123 39.2545 141.513 39.2545C142.004 39.2545 142.446 39.16 142.842 38.971C143.244 38.776 143.592 38.4896 143.888 38.1116L145.066 39.3342C144.865 39.6295 144.593 39.913 144.251 40.1847C143.914 40.4564 143.507 40.6779 143.028 40.8491C142.55 41.0145 141.998 41.0972 141.372 41.0972ZM147.716 33.2921V40.92H145.377V31.3342H147.592L147.716 33.2921ZM150.631 31.2722L150.596 33.4516C150.466 33.4279 150.318 33.4102 150.153 33.3984C149.993 33.3866 149.843 33.3807 149.701 33.3807C149.34 33.3807 149.025 33.4309 148.753 33.5313C148.481 33.6258 148.254 33.7646 148.071 33.9477C147.893 34.1308 147.758 34.3552 147.663 34.621C147.569 34.8809 147.515 35.1762 147.504 35.5069L146.999 35.4449C146.999 34.8366 147.061 34.2725 147.185 33.7528C147.309 33.233 147.489 32.7782 147.725 32.3884C147.961 31.9986 148.257 31.6974 148.611 31.4848C148.971 31.2662 149.385 31.157 149.851 31.157C149.981 31.157 150.12 31.1688 150.268 31.1924C150.421 31.2101 150.542 31.2367 150.631 31.2722ZM155.443 38.8824V34.4615C155.443 34.1367 155.387 33.8561 155.275 33.6199C155.163 33.3836 154.991 33.2005 154.761 33.0706C154.531 32.9407 154.238 32.8757 153.884 32.8757C153.571 32.8757 153.296 32.9289 153.06 33.0352C152.83 33.1415 152.652 33.2921 152.528 33.487C152.404 33.676 152.342 33.8945 152.342 34.1426H149.995C149.995 33.7469 150.089 33.3718 150.278 33.0175C150.467 32.6572 150.736 32.3382 151.084 32.0606C151.439 31.7771 151.861 31.5557 152.351 31.3962C152.847 31.2367 153.402 31.157 154.017 31.157C154.743 31.157 155.39 31.281 155.957 31.5291C156.53 31.7712 156.979 32.1374 157.304 32.6276C157.634 33.1179 157.8 33.7351 157.8 34.4792V38.6609C157.8 39.1393 157.829 39.5498 157.888 39.8923C157.953 40.229 158.048 40.5213 158.172 40.7694V40.92H155.789C155.676 40.6779 155.591 40.3707 155.532 39.9986C155.473 39.6206 155.443 39.2485 155.443 38.8824ZM155.771 35.0817L155.789 36.4726H154.309C153.943 36.4726 153.621 36.511 153.343 36.5878C153.066 36.6587 152.838 36.765 152.661 36.9067C152.484 37.0426 152.351 37.2079 152.263 37.4028C152.174 37.5918 152.13 37.8074 152.13 38.0496C152.13 38.2858 152.183 38.4985 152.289 38.6875C152.401 38.8765 152.561 39.0271 152.768 39.1393C152.98 39.2456 153.228 39.2987 153.512 39.2987C153.925 39.2987 154.285 39.2161 154.593 39.0507C154.9 38.8794 155.139 38.6727 155.31 38.4305C155.481 38.1884 155.573 37.958 155.585 37.7395L156.258 38.7495C156.175 38.9916 156.051 39.2485 155.886 39.5202C155.721 39.7919 155.508 40.0459 155.248 40.2821C154.988 40.5184 154.675 40.7133 154.309 40.8669C153.943 41.0204 153.518 41.0972 153.033 41.0972C152.413 41.0972 151.858 40.9732 151.368 40.7251C150.878 40.477 150.491 40.1374 150.207 39.7063C149.924 39.2751 149.782 38.7849 149.782 38.2356C149.782 37.7277 149.876 37.2788 150.065 36.889C150.254 36.4992 150.535 36.1714 150.907 35.9056C151.279 35.6339 151.74 35.4302 152.289 35.2943C152.844 35.1526 153.479 35.0817 154.194 35.0817H155.771ZM160.796 33.1769V44.6055H158.448V31.3342H160.618L160.796 33.1769ZM166.953 36.0296V36.2157C166.953 36.9126 166.87 37.5594 166.705 38.1559C166.545 38.7465 166.309 39.2633 165.996 39.7063C165.683 40.1433 165.293 40.4859 164.827 40.734C164.366 40.9761 163.834 41.0972 163.232 41.0972C162.641 41.0972 162.127 40.985 161.69 40.7605C161.253 40.5302 160.884 40.2054 160.583 39.786C160.282 39.3667 160.04 38.8794 159.856 38.3242C159.679 37.7631 159.546 37.1518 159.458 36.4903V35.8967C159.546 35.1939 159.679 34.556 159.856 33.9831C160.04 33.4043 160.282 32.9052 160.583 32.4859C160.884 32.0606 161.25 31.7328 161.681 31.5025C162.119 31.2722 162.629 31.157 163.214 31.157C163.822 31.157 164.357 31.2722 164.818 31.5025C165.284 31.7328 165.677 32.0636 165.996 32.4947C166.315 32.9259 166.554 33.4397 166.714 34.0363C166.873 34.6328 166.953 35.2973 166.953 36.0296ZM164.605 36.2157V36.0296C164.605 35.6044 164.567 35.2116 164.49 34.8513C164.413 34.4852 164.295 34.1662 164.136 33.8945C163.976 33.6169 163.769 33.4014 163.515 33.2478C163.261 33.0942 162.954 33.0175 162.594 33.0175C162.234 33.0175 161.924 33.0765 161.664 33.1946C161.404 33.3128 161.191 33.4811 161.026 33.6996C160.861 33.9182 160.731 34.178 160.636 34.4792C160.547 34.7746 160.488 35.1024 160.459 35.4626V36.9333C160.512 37.3704 160.615 37.7631 160.769 38.1116C160.923 38.4601 161.147 38.7377 161.442 38.9444C161.743 39.1511 162.133 39.2545 162.612 39.2545C162.972 39.2545 163.279 39.1747 163.533 39.0152C163.787 38.8558 163.994 38.6372 164.153 38.3597C164.313 38.0762 164.428 37.7513 164.499 37.3851C164.57 37.0189 164.605 36.6291 164.605 36.2157ZM169.692 31.3342V40.92H167.344V31.3342H169.692ZM167.185 28.827C167.185 28.4785 167.303 28.1891 167.539 27.9587C167.781 27.7284 168.106 27.6132 168.513 27.6132C168.921 27.6132 169.243 27.7284 169.479 27.9587C169.721 28.1891 169.842 28.4785 169.842 28.827C169.842 29.1695 169.721 29.456 169.479 29.6863C169.243 29.9167 168.921 30.0318 168.513 30.0318C168.106 30.0318 167.781 29.9167 167.539 29.6863C167.303 29.456 167.185 29.1695 167.185 28.827ZM175.744 38.2976C175.744 38.0968 175.691 37.9167 175.585 37.7572C175.478 37.5977 175.278 37.453 174.982 37.3231C174.693 37.1873 174.268 37.0603 173.706 36.9422C173.21 36.8358 172.753 36.703 172.333 36.5435C171.914 36.384 171.554 36.1921 171.252 35.9676C170.951 35.7373 170.715 35.4685 170.544 35.1614C170.378 34.8484 170.296 34.4881 170.296 34.0806C170.296 33.6849 170.381 33.3128 170.553 32.9643C170.724 32.6099 170.972 32.2998 171.297 32.0341C171.622 31.7624 172.017 31.5497 172.484 31.3962C172.95 31.2367 173.476 31.157 174.061 31.157C174.876 31.157 175.576 31.2899 176.161 31.5557C176.751 31.8214 177.203 32.1876 177.516 32.6542C177.829 33.1149 177.986 33.6347 177.986 34.2135H175.647C175.647 33.9595 175.588 33.7292 175.47 33.5224C175.357 33.3157 175.183 33.1503 174.947 33.0263C174.711 32.8964 174.412 32.8314 174.052 32.8314C173.727 32.8314 173.453 32.8846 173.228 32.9909C173.01 33.0972 172.844 33.236 172.732 33.4073C172.62 33.5785 172.564 33.7675 172.564 33.9743C172.564 34.1278 172.593 34.2666 172.652 34.3907C172.717 34.5088 172.821 34.618 172.962 34.7185C173.104 34.8189 173.296 34.9104 173.538 34.9931C173.786 35.0758 174.09 35.1555 174.451 35.2323C175.165 35.374 175.788 35.563 176.32 35.7993C176.857 36.0296 177.277 36.3368 177.578 36.7207C177.879 37.1046 178.03 37.5948 178.03 38.1913C178.03 38.6166 177.938 39.0064 177.755 39.3608C177.572 39.7092 177.306 40.0134 176.958 40.2733C176.609 40.5332 176.193 40.7369 175.709 40.8846C175.224 41.0263 174.678 41.0972 174.07 41.0972C173.19 41.0972 172.446 40.9407 171.837 40.6277C171.229 40.3087 170.768 39.9071 170.455 39.4228C170.142 38.9326 169.986 38.4246 169.986 37.899H172.227C172.245 38.2711 172.345 38.5693 172.528 38.7938C172.711 39.0182 172.942 39.1806 173.219 39.281C173.503 39.3755 173.801 39.4228 174.114 39.4228C174.468 39.4228 174.767 39.3755 175.009 39.281C175.251 39.1806 175.434 39.0477 175.558 38.8824C175.682 38.7111 175.744 38.5162 175.744 38.2976ZM182.895 31.3342V33.0175H177.402V31.3342H182.895ZM178.873 28.9776H181.221V38.1559C181.221 38.4394 181.259 38.6579 181.336 38.8115C181.413 38.965 181.528 39.0684 181.681 39.1216C181.835 39.1747 182.018 39.2013 182.231 39.2013C182.384 39.2013 182.526 39.1924 182.656 39.1747C182.786 39.157 182.895 39.1393 182.984 39.1216L182.993 40.8757C182.798 40.9407 182.576 40.9938 182.328 41.0352C182.086 41.0765 181.811 41.0972 181.504 41.0972C180.978 41.0972 180.518 41.0086 180.122 40.8314C179.726 40.6483 179.419 40.356 179.201 39.9543C178.982 39.5468 178.873 39.0093 178.873 38.3419V28.9776Z" fill="#FCFCFC"/>
<circle cx="21.8754" cy="19.6675" r="5.9535" fill="#FCFCFC" fill-opacity="0.7"/>
<rect x="0.0458984" y="0.105957" width="16.443" height="16.443" rx="8.2215" fill="#FCFCFC"/>
<circle cx="8.26746" cy="8.32746" r="5.67" fill="#045257" stroke="#FCFCFC" stroke-width="0.567"/>
</svg>
