<svg width="104" height="32" viewBox="0 0 104 32" fill="none" xmlns="http://www.w3.org/2000/svg">
<rect x="0.766999" y="0.672242" width="101.978" height="30.0155" rx="15.0077" stroke="#ECECEC" stroke-width="0.870912"/>
<g clip-path="url(#clip0_285_1198)">
<path d="M18.7318 8.36432H16.0703V11.0258H18.7318V8.36432Z" fill="#045257" stroke="#045257" stroke-width="1.39346" stroke-miterlimit="10"/>
<path d="M12.747 8.36432H10.0854V11.0258H12.747V8.36432Z" fill="#045257" stroke="#045257" stroke-width="1.39346" stroke-miterlimit="10"/>
<path d="M24.7172 8.36432H22.0557V11.0258H24.7172V8.36432Z" fill="#045257" stroke="#045257" stroke-width="1.39346" stroke-miterlimit="10"/>
<path d="M18.7318 14.3493H16.0703V17.0108H18.7318V14.3493Z" fill="#045257" stroke="#045257" stroke-width="1.39346" stroke-miterlimit="10"/>
<path d="M12.747 14.3493H10.0854V17.0108H12.747V14.3493Z" fill="#045257" stroke="#045257" stroke-width="1.39346" stroke-miterlimit="10"/>
<path d="M24.7172 14.3493H22.0557V17.0108H24.7172V14.3493Z" fill="#045257" stroke="#045257" stroke-width="1.39346" stroke-miterlimit="10"/>
<path d="M18.7318 20.3341H16.0703V22.9956H18.7318V20.3341Z" fill="#045257" stroke="#045257" stroke-width="1.39346" stroke-miterlimit="10"/>
<path d="M12.747 20.3341H10.0854V22.9956H12.747V20.3341Z" fill="#045257" stroke="#045257" stroke-width="1.39346" stroke-miterlimit="10"/>
<path d="M24.7172 20.3341H22.0557V22.9956H24.7172V20.3341Z" fill="#045257" stroke="#045257" stroke-width="1.39346" stroke-miterlimit="10"/>
</g>
<path d="M42.5084 18.5501C42.5084 18.261 42.4631 18.0058 42.3723 17.7847C42.2873 17.5579 42.1342 17.3538 41.9131 17.1723C41.6976 16.9909 41.3971 16.818 41.0115 16.6535C40.6316 16.4891 40.1497 16.3218 39.5657 16.1517C38.9533 15.9703 38.4005 15.769 37.9072 15.5479C37.4139 15.3211 36.9915 15.0631 36.64 14.7739C36.2884 14.4848 36.0191 14.1531 35.832 13.7788C35.6449 13.4046 35.5513 12.9765 35.5513 12.4946C35.5513 12.0126 35.6506 11.5675 35.849 11.1593C36.0475 10.7511 36.331 10.3967 36.6995 10.0962C37.0737 9.78999 37.5188 9.55185 38.0348 9.38175C38.5508 9.21165 39.1263 9.1266 39.7613 9.1266C40.6912 9.1266 41.4793 9.30521 42.1257 9.66242C42.7777 10.014 43.2739 10.4761 43.6141 11.0487C43.9543 11.6157 44.1244 12.2224 44.1244 12.8688H42.4914C42.4914 12.4039 42.3922 11.9928 42.1937 11.6356C41.9953 11.2727 41.6948 10.9892 41.2922 10.7851C40.8896 10.5753 40.3793 10.4704 39.7613 10.4704C39.1773 10.4704 38.6953 10.5583 38.3155 10.734C37.9356 10.9098 37.6521 11.148 37.465 11.4485C37.2835 11.749 37.1928 12.092 37.1928 12.4776C37.1928 12.7384 37.2467 12.9765 37.3544 13.192C37.4678 13.4018 37.6407 13.5974 37.8732 13.7788C38.1113 13.9603 38.4118 14.1275 38.7747 14.2806C39.1433 14.4337 39.5827 14.5811 40.093 14.7229C40.7961 14.9213 41.4028 15.1425 41.9131 15.3863C42.4234 15.6301 42.8429 15.9051 43.1718 16.2113C43.5063 16.5118 43.753 16.8548 43.9117 17.2404C44.0762 17.6203 44.1584 18.0512 44.1584 18.5331C44.1584 19.0378 44.0563 19.4942 43.8522 19.9024C43.6481 20.3107 43.3561 20.6594 42.9762 20.9486C42.5963 21.2377 42.1399 21.4617 41.6069 21.6204C41.0796 21.7735 40.4899 21.8501 39.8378 21.8501C39.2652 21.8501 38.701 21.7707 38.1454 21.6119C37.5954 21.4532 37.0936 21.215 36.64 20.8975C36.192 20.58 35.832 20.1888 35.5598 19.7238C35.2933 19.2532 35.1601 18.7089 35.1601 18.0909H36.7931C36.7931 18.5161 36.8753 18.8818 37.0397 19.188C37.2041 19.4885 37.4281 19.738 37.7116 19.9365C38.0008 20.1349 38.3268 20.2823 38.6897 20.3787C39.0582 20.4694 39.4409 20.5148 39.8378 20.5148C40.4105 20.5148 40.8953 20.4354 41.2922 20.2767C41.6891 20.1179 41.9896 19.8911 42.1937 19.5963C42.4035 19.3014 42.5084 18.9527 42.5084 18.5501ZM48.4378 21.8501C47.7971 21.8501 47.2159 21.7424 46.6942 21.5269C46.1783 21.3058 45.7332 20.9967 45.359 20.5998C44.9904 20.2029 44.7069 19.7323 44.5085 19.188C44.31 18.6437 44.2108 18.0483 44.2108 17.402V17.0448C44.2108 16.2963 44.3213 15.6301 44.5425 15.0461C44.7636 14.4564 45.0641 13.9574 45.444 13.5492C45.8239 13.141 46.2548 12.8319 46.7368 12.6222C47.2187 12.4124 47.7177 12.3075 48.2336 12.3075C48.8914 12.3075 49.4584 12.4209 49.9346 12.6477C50.4166 12.8745 50.8107 13.192 51.1168 13.6002C51.423 14.0028 51.6498 14.4791 51.7972 15.0291C51.9447 15.5734 52.0184 16.1687 52.0184 16.8151V17.521H45.1463V16.2368H50.4449V16.1177C50.4223 15.7095 50.3372 15.3126 50.1898 14.927C50.048 14.5415 49.8212 14.2239 49.5094 13.9745C49.1975 13.725 48.7723 13.6002 48.2336 13.6002C47.8764 13.6002 47.5476 13.6768 47.2471 13.8299C46.9466 13.9773 46.6886 14.1984 46.4731 14.4933C46.2576 14.7881 46.0904 15.1481 45.9713 15.5734C45.8522 15.9986 45.7927 16.4891 45.7927 17.0448V17.402C45.7927 17.8386 45.8522 18.2496 45.9713 18.6352C46.0961 19.0151 46.2747 19.3496 46.5071 19.6388C46.7453 19.928 47.0316 20.1548 47.3661 20.3192C47.7063 20.4836 48.0919 20.5658 48.5228 20.5658C49.0785 20.5658 49.5491 20.4524 49.9346 20.2256C50.3202 19.9988 50.6576 19.6955 50.9467 19.3156L51.8993 20.0725C51.7008 20.373 51.4485 20.6594 51.1424 20.9315C50.8362 21.2037 50.4591 21.4248 50.0112 21.5949C49.5689 21.765 49.0445 21.8501 48.4378 21.8501ZM54.1715 8.6163V21.68H52.5896V8.6163H54.1715ZM57.6514 21.68H56.078V11.508C56.078 10.8446 56.197 10.2861 56.4352 9.83252C56.679 9.37325 57.0277 9.02738 57.4813 8.79491C57.9349 8.55677 58.4736 8.4377 59.0973 8.4377C59.2787 8.4377 59.4601 8.44904 59.6416 8.47172C59.8287 8.4944 60.0101 8.52842 60.1859 8.57378L60.1008 9.85803C59.9818 9.82968 59.8457 9.80984 59.6926 9.7985C59.5452 9.78716 59.3978 9.78149 59.2503 9.78149C58.9158 9.78149 58.6266 9.84953 58.3828 9.98561C58.1447 10.116 57.9633 10.3088 57.8385 10.5639C57.7138 10.8191 57.6514 11.1338 57.6514 11.508V21.68ZM59.6076 12.4776V13.6853H54.6236V12.4776H59.6076ZM63.2405 15.769V17.0618H59.0901V15.769H63.2405ZM71.1005 17.7422H72.7335C72.6484 18.5246 72.4245 19.2249 72.0616 19.8429C71.6987 20.4609 71.1856 20.9514 70.5222 21.3143C69.8588 21.6715 69.031 21.8501 68.0387 21.8501C67.313 21.8501 66.6524 21.714 66.0571 21.4418C65.4674 21.1697 64.9599 20.7841 64.5347 20.2852C64.1094 19.7805 63.7806 19.1767 63.5481 18.4736C63.3213 17.7648 63.2079 16.9767 63.2079 16.1092V14.876C63.2079 14.0085 63.3213 13.2232 63.5481 12.5201C63.7806 11.8113 64.1123 11.2047 64.5432 10.7C64.9798 10.1954 65.5042 9.807 66.1166 9.53484C66.729 9.26268 67.4179 9.1266 68.1833 9.1266C69.1189 9.1266 69.9098 9.30237 70.5562 9.65391C71.2026 10.0055 71.7044 10.4931 72.0616 11.1168C72.4245 11.7348 72.6484 12.4521 72.7335 13.2685H71.1005C71.0211 12.6902 70.8737 12.1941 70.6583 11.7802C70.4428 11.3606 70.1366 11.0374 69.7397 10.8106C69.3428 10.5838 68.824 10.4704 68.1833 10.4704C67.6333 10.4704 67.1485 10.5753 66.729 10.7851C66.315 10.9949 65.9663 11.2925 65.6828 11.6781C65.405 12.0637 65.1952 12.5258 65.0535 13.0644C64.9117 13.6031 64.8408 14.2013 64.8408 14.859V16.1092C64.8408 16.7159 64.9032 17.2857 65.028 17.8187C65.1584 18.3517 65.354 18.8195 65.6148 19.222C65.8756 19.6246 66.2073 19.9421 66.6099 20.1746C67.0125 20.4014 67.4887 20.5148 68.0387 20.5148C68.7361 20.5148 69.2918 20.4042 69.7057 20.1831C70.1196 19.962 70.4315 19.6445 70.6413 19.2305C70.8567 18.8166 71.0098 18.3205 71.1005 17.7422ZM78.7649 20.1066V15.3693C78.7649 15.0064 78.6912 14.6917 78.5438 14.4252C78.402 14.1531 78.1866 13.9433 77.8974 13.7958C77.6082 13.6484 77.251 13.5747 76.8258 13.5747C76.4289 13.5747 76.0802 13.6428 75.7796 13.7788C75.4848 13.9149 75.2523 14.0935 75.0822 14.3147C74.9178 14.5358 74.8356 14.7739 74.8356 15.0291H73.2622C73.2622 14.7002 73.3472 14.3742 73.5173 14.051C73.6874 13.7278 73.9312 13.4358 74.2487 13.175C74.5719 12.9085 74.9575 12.6987 75.4054 12.5456C75.859 12.3869 76.3637 12.3075 76.9193 12.3075C77.5884 12.3075 78.1781 12.4209 78.6884 12.6477C79.2043 12.8745 79.6069 13.2175 79.8961 13.6768C80.1909 14.1304 80.3383 14.7002 80.3383 15.3863V19.6728C80.3383 19.979 80.3638 20.305 80.4149 20.6509C80.4716 20.9967 80.5538 21.2944 80.6615 21.5439V21.68H79.02C78.9407 21.4985 78.8783 21.2576 78.8329 20.9571C78.7876 20.6509 78.7649 20.3674 78.7649 20.1066ZM79.0371 16.1007L79.0541 17.2064H77.4636C77.0157 17.2064 76.616 17.2432 76.2644 17.3169C75.9129 17.385 75.618 17.4899 75.3799 17.6316C75.1418 17.7734 74.9603 17.952 74.8356 18.1674C74.7108 18.3772 74.6485 18.6239 74.6485 18.9074C74.6485 19.1965 74.7137 19.4602 74.8441 19.6983C74.9745 19.9365 75.1701 20.1264 75.4309 20.2682C75.6974 20.4042 76.0234 20.4723 76.409 20.4723C76.891 20.4723 77.3162 20.3702 77.6848 20.1661C78.0533 19.962 78.3453 19.7125 78.5608 19.4177C78.7819 19.1228 78.901 18.8365 78.918 18.5586L79.5899 19.3156C79.5502 19.5537 79.4425 19.8174 79.2667 20.1066C79.0909 20.3957 78.8556 20.6736 78.5608 20.94C78.2716 21.2009 77.9257 21.4192 77.5232 21.5949C77.1263 21.765 76.6783 21.8501 76.1794 21.8501C75.5557 21.8501 75.0085 21.7282 74.5379 21.4844C74.073 21.2406 73.7101 20.9145 73.4493 20.5063C73.1941 20.0924 73.0665 19.6303 73.0665 19.12C73.0665 18.6267 73.1629 18.1929 73.3557 17.8187C73.5485 17.4388 73.8263 17.1241 74.1892 16.8747C74.5521 16.6195 74.9887 16.4267 75.499 16.2963C76.0093 16.1659 76.5791 16.1007 77.2085 16.1007H79.0371ZM82.9932 13.9234V21.68H81.4198V12.4776H82.9507L82.9932 13.9234ZM85.8679 12.4265L85.8594 13.8894C85.729 13.8611 85.6043 13.844 85.4852 13.8384C85.3718 13.827 85.2414 13.8214 85.094 13.8214C84.7311 13.8214 84.4107 13.8781 84.1329 13.9915C83.8551 14.1049 83.6198 14.2636 83.427 14.4677C83.2342 14.6719 83.0811 14.9157 82.9677 15.1992C82.86 15.477 82.7891 15.7832 82.7551 16.1177L82.3128 16.3729C82.3128 15.8172 82.3667 15.2956 82.4744 14.8079C82.5878 14.3203 82.7608 13.8894 82.9932 13.5152C83.2257 13.1353 83.5206 12.8405 83.8778 12.6307C84.2406 12.4152 84.6716 12.3075 85.1705 12.3075C85.2839 12.3075 85.4143 12.3216 85.5618 12.35C85.7092 12.3727 85.8112 12.3982 85.8679 12.4265ZM89.5775 21.8501C88.9368 21.8501 88.3556 21.7424 87.8339 21.5269C87.318 21.3058 86.8729 20.9967 86.4987 20.5998C86.1301 20.2029 85.8466 19.7323 85.6482 19.188C85.4497 18.6437 85.3505 18.0483 85.3505 17.402V17.0448C85.3505 16.2963 85.4611 15.6301 85.6822 15.0461C85.9033 14.4564 86.2038 13.9574 86.5837 13.5492C86.9636 13.141 87.3945 12.8319 87.8765 12.6222C88.3584 12.4124 88.8574 12.3075 89.3734 12.3075C90.0311 12.3075 90.5981 12.4209 91.0744 12.6477C91.5563 12.8745 91.9504 13.192 92.2566 13.6002C92.5627 14.0028 92.7895 14.4791 92.937 15.0291C93.0844 15.5734 93.1581 16.1687 93.1581 16.8151V17.521H86.286V16.2368H91.5847V16.1177C91.562 15.7095 91.4769 15.3126 91.3295 14.927C91.1878 14.5415 90.961 14.2239 90.6491 13.9745C90.3373 13.725 89.912 13.6002 89.3734 13.6002C89.0161 13.6002 88.6873 13.6768 88.3868 13.8299C88.0863 13.9773 87.8283 14.1984 87.6128 14.4933C87.3974 14.7881 87.2301 15.1481 87.111 15.5734C86.992 15.9986 86.9324 16.4891 86.9324 17.0448V17.402C86.9324 17.8386 86.992 18.2496 87.111 18.6352C87.2358 19.0151 87.4144 19.3496 87.6468 19.6388C87.885 19.928 88.1713 20.1548 88.5058 20.3192C88.846 20.4836 89.2316 20.5658 89.6625 20.5658C90.2182 20.5658 90.6888 20.4524 91.0744 20.2256C91.4599 19.9988 91.7973 19.6955 92.0865 19.3156L93.039 20.0725C92.8406 20.373 92.5882 20.6594 92.2821 20.9315C91.9759 21.2037 91.5988 21.4248 91.1509 21.5949C90.7086 21.765 90.1842 21.8501 89.5775 21.8501Z" fill="black"/>
<defs>
<clipPath id="clip0_285_1198">
<rect width="16.7215" height="16.7215" fill="white" transform="translate(9.04053 7.31923)"/>
</clipPath>
</defs>
</svg>
