<svg width="141" height="72" viewBox="0 0 141 72" fill="none" xmlns="http://www.w3.org/2000/svg">
<path d="M33.842 66.8948C50.0755 66.8948 63.2353 53.735 63.2353 37.5015C63.2353 21.2681 50.0755 8.10825 33.842 8.10825C17.6085 8.10825 4.44873 21.2681 4.44873 37.5015C4.44873 53.735 17.6085 66.8948 33.842 66.8948Z" stroke="black" stroke-width="1.04976" stroke-miterlimit="10"/>
<path d="M33.842 66.8948C50.0755 66.8948 63.2353 53.735 63.2353 37.5015C63.2353 21.2681 50.0755 8.10825 33.842 8.10825C17.6085 8.10825 4.44873 21.2681 4.44873 37.5015C4.44873 53.735 17.6085 66.8948 33.842 66.8948Z" stroke="black" stroke-width="1.04976" stroke-miterlimit="10"/>
<path d="M33.8425 40.1609C35.3112 40.1609 36.5019 38.9703 36.5019 37.5015C36.5019 36.0328 35.3112 34.8421 33.8425 34.8421C32.3738 34.8421 31.1831 36.0328 31.1831 37.5015C31.1831 38.9703 32.3738 40.1609 33.8425 40.1609Z" stroke="black" stroke-width="1.04976" stroke-miterlimit="10"/>
<path d="M33.8418 16.1144V34.8421" stroke="black" stroke-width="1.04976" stroke-miterlimit="10"/>
<path d="M19.1456 47.9991L31.8755 39.8349" stroke="black" stroke-width="1.04976" stroke-miterlimit="10"/>
<rect x="41.5405" y="0.410011" width="99.3773" height="41.9904" rx="13.9968" fill="#FCFCFC"/>
<path d="M55.1345 8.46419H56.6435V16.8705C56.6435 17.7671 56.4713 18.4861 56.1268 19.0274C55.7824 19.5687 55.3286 19.9623 54.7654 20.2084C54.2077 20.449 53.6063 20.5692 52.9611 20.5692C52.2722 20.5692 51.6517 20.449 51.0994 20.2084C50.5472 19.9623 50.1071 19.5687 49.779 19.0274C49.4565 18.4861 49.2952 17.7671 49.2952 16.8705V8.46419H50.796V16.8705C50.796 17.4938 50.8835 17.9804 51.0584 18.3303C51.2389 18.6802 51.4904 18.9263 51.8129 19.0684C52.141 19.2106 52.5237 19.2816 52.9611 19.2816C53.404 19.2816 53.7867 19.2106 54.1093 19.0684C54.4373 18.9263 54.6889 18.6802 54.8638 18.3303C55.0442 17.9804 55.1345 17.4938 55.1345 16.8705V8.46419ZM60.2028 13.2373V23.8169H58.7512V11.5315H60.0716L60.2028 13.2373ZM65.1646 15.5665V16.3948C65.1646 17.0946 65.099 17.707 64.9678 18.2319C64.842 18.7513 64.6534 19.186 64.4019 19.5359C64.1558 19.8803 63.8524 20.14 63.4915 20.315C63.1307 20.4845 62.7179 20.5692 62.2531 20.5692C61.7884 20.5692 61.3838 20.4818 61.0394 20.3068C60.7004 20.1264 60.4133 19.8667 60.1782 19.5277C59.9486 19.1887 59.7654 18.7814 59.6287 18.3057C59.4975 17.8246 59.4073 17.286 59.3581 16.69V15.4271C59.4073 14.7983 59.4975 14.2351 59.6287 13.7376C59.76 13.2346 59.9404 12.8081 60.17 12.4582C60.4051 12.1028 60.6922 11.8322 61.0312 11.6463C61.3756 11.4604 61.7775 11.3674 62.2367 11.3674C62.7124 11.3674 63.1307 11.4494 63.4915 11.6135C63.8579 11.7775 64.164 12.0317 64.4101 12.3762C64.6616 12.7152 64.8502 13.1498 64.976 13.6802C65.1017 14.2051 65.1646 14.8338 65.1646 15.5665ZM63.713 16.3948V15.5665C63.713 15.0744 63.6747 14.6452 63.5981 14.2789C63.5271 13.9126 63.4122 13.6091 63.2537 13.3685C63.0951 13.128 62.8956 12.9475 62.655 12.8273C62.4144 12.707 62.1247 12.6468 61.7857 12.6468C61.4959 12.6468 61.2389 12.707 61.0148 12.8273C60.7961 12.9475 60.6074 13.1116 60.4489 13.3193C60.2903 13.5216 60.1591 13.754 60.0552 14.0164C59.9513 14.2734 59.8748 14.5413 59.8256 14.8202V17.3051C59.9185 17.6551 60.0415 17.9858 60.1946 18.2975C60.3477 18.6037 60.5527 18.8524 60.8097 19.0438C61.0722 19.2352 61.4029 19.3308 61.8021 19.3308C62.1356 19.3308 62.4226 19.2707 62.6632 19.1504C62.9038 19.0301 63.1006 18.8497 63.2537 18.6091C63.4122 18.3631 63.5271 18.0569 63.5981 17.6906C63.6747 17.3188 63.713 16.8869 63.713 16.3948ZM70.1099 19.3308C70.3997 19.3308 70.6622 19.2734 70.8973 19.1586C71.1378 19.0383 71.3347 18.8524 71.4877 18.6009C71.6408 18.344 71.7283 18.0104 71.7502 17.6004H73.1116C73.0897 18.1909 72.9394 18.7103 72.6605 19.1586C72.3872 19.6015 72.0263 19.9487 71.578 20.2002C71.1351 20.4462 70.6458 20.5692 70.1099 20.5692C69.5358 20.5692 69.0356 20.4763 68.6091 20.2904C68.1881 20.1045 67.8382 19.8366 67.5593 19.4867C67.286 19.1313 67.0809 18.7021 66.9443 18.1991C66.8076 17.6906 66.7392 17.1138 66.7392 16.4686V15.4681C66.7392 14.8229 66.8076 14.2488 66.9443 13.7458C67.0809 13.2373 67.286 12.8081 67.5593 12.4582C67.8382 12.1028 68.1881 11.8322 68.6091 11.6463C69.0356 11.4604 69.5358 11.3674 70.1099 11.3674C70.7114 11.3674 71.2308 11.4959 71.6682 11.7529C72.111 12.0044 72.4555 12.3707 72.7015 12.8519C72.953 13.3275 73.0897 13.9044 73.1116 14.5823H71.7502C71.7283 14.1449 71.649 13.7813 71.5124 13.4916C71.3757 13.1963 71.1898 12.9776 70.9547 12.8355C70.7196 12.6878 70.438 12.614 70.1099 12.614C69.7272 12.614 69.4101 12.6824 69.1586 12.8191C68.9126 12.9503 68.7185 13.1416 68.5763 13.3931C68.4341 13.6446 68.333 13.9454 68.2729 14.2953C68.2182 14.6452 68.1908 15.0361 68.1908 15.4681V16.4686C68.1908 16.9005 68.2182 17.2942 68.2729 17.6496C68.333 17.9995 68.4314 18.3002 68.5681 18.5517C68.7103 18.8032 68.9071 18.9973 69.1586 19.134C69.4101 19.2652 69.7272 19.3308 70.1099 19.3308ZM74.4894 16.3948V15.5501C74.4894 14.8612 74.5769 14.257 74.7518 13.7376C74.9268 13.2127 75.1701 12.7753 75.4818 12.4254C75.7934 12.0755 76.157 11.813 76.5725 11.6381C76.9881 11.4576 77.4337 11.3674 77.9093 11.3674C78.3959 11.3674 78.847 11.4576 79.2625 11.6381C79.6781 11.813 80.0416 12.0755 80.3533 12.4254C80.6704 12.7753 80.9164 13.2127 81.0914 13.7376C81.2664 14.257 81.3538 14.8612 81.3538 15.5501V16.3948C81.3538 17.0837 81.2664 17.6906 81.0914 18.2155C80.9164 18.7349 80.6731 19.1696 80.3615 19.5195C80.0499 19.8694 79.6863 20.1318 79.2707 20.3068C78.8552 20.4818 78.4069 20.5692 77.9257 20.5692C77.4446 20.5692 76.9963 20.4818 76.5807 20.3068C76.1652 20.1318 75.7989 19.8694 75.4818 19.5195C75.1701 19.1696 74.9268 18.7349 74.7518 18.2155C74.5769 17.6906 74.4894 17.0837 74.4894 16.3948ZM75.941 15.5501V16.3948C75.941 16.8814 75.9902 17.3079 76.0886 17.6742C76.1871 18.0405 76.3265 18.3467 76.5069 18.5927C76.6873 18.8388 76.8978 19.0247 77.1384 19.1504C77.379 19.2707 77.6414 19.3308 77.9257 19.3308C78.2538 19.3308 78.5408 19.2707 78.7869 19.1504C79.0384 19.0247 79.2461 18.8388 79.4102 18.5927C79.5742 18.3467 79.6972 18.0405 79.7792 17.6742C79.8612 17.3079 79.9022 16.8814 79.9022 16.3948V15.5501C79.9022 15.0635 79.853 14.6397 79.7546 14.2789C79.6562 13.9126 79.5168 13.6064 79.3363 13.3603C79.1559 13.1088 78.9427 12.9229 78.6966 12.8027C78.4561 12.6769 78.1936 12.614 77.9093 12.614C77.6305 12.614 77.3708 12.6769 77.1302 12.8027C76.8896 12.9229 76.6791 13.1088 76.4987 13.3603C76.3237 13.6064 76.1871 13.9126 76.0886 14.2789C75.9902 14.6397 75.941 15.0635 75.941 15.5501ZM84.6754 13.2947V20.4052H83.2319V11.5315H84.5933L84.6754 13.2947ZM84.3801 15.6321L83.7076 15.6075C83.7021 15.0006 83.7623 14.4402 83.888 13.9262C84.0138 13.4068 84.2024 12.9557 84.4539 12.573C84.7109 12.1903 85.0307 11.895 85.4135 11.6873C85.8017 11.4741 86.2527 11.3674 86.7667 11.3674C87.1057 11.3674 87.42 11.4276 87.7098 11.5479C88.0051 11.6627 88.262 11.8458 88.4807 12.0973C88.6994 12.3489 88.8689 12.6714 88.9892 13.0651C89.115 13.4588 89.1778 13.9344 89.1778 14.4921V20.4052H87.7262V14.5659C87.7262 14.1012 87.6633 13.7294 87.5376 13.4506C87.4173 13.1717 87.2451 12.9694 87.0209 12.8437C86.7967 12.7124 86.5288 12.6468 86.2172 12.6468C85.8618 12.6468 85.5638 12.7261 85.3233 12.8847C85.0882 13.0432 84.8995 13.2619 84.7574 13.5408C84.6207 13.8196 84.5223 14.1395 84.4621 14.5003C84.4074 14.8557 84.3801 15.233 84.3801 15.6321ZM89.1614 14.7956L88.1937 15.1072C88.1882 14.6206 88.2484 14.1531 88.3741 13.7048C88.4999 13.2565 88.6858 12.8573 88.9318 12.5074C89.1833 12.1575 89.495 11.8814 89.8667 11.6791C90.2385 11.4713 90.6705 11.3674 91.1625 11.3674C91.5671 11.3674 91.9253 11.4303 92.2369 11.5561C92.5486 11.6818 92.811 11.8759 93.0242 12.1384C93.2429 12.3953 93.407 12.7261 93.5163 13.1307C93.6257 13.5353 93.6803 14.0164 93.6803 14.5741V20.4052H92.2287V14.5577C92.2287 14.0602 92.1658 13.6747 92.0401 13.4013C91.9198 13.1225 91.7476 12.9284 91.5234 12.8191C91.2992 12.7042 91.0313 12.6468 90.7197 12.6468C90.4682 12.6468 90.244 12.7042 90.0472 12.8191C89.8558 12.9339 89.6945 13.0924 89.5633 13.2947C89.4321 13.4916 89.3309 13.7185 89.2599 13.9754C89.1942 14.2324 89.1614 14.5058 89.1614 14.7956ZM97.4283 11.5315V20.4052H95.9849V11.5315H97.4283ZM95.9029 9.1777C95.9029 8.93167 95.9712 8.7239 96.1079 8.55441C96.2446 8.38492 96.4496 8.30017 96.723 8.30017C96.9964 8.30017 97.2014 8.38492 97.3381 8.55441C97.4802 8.7239 97.5513 8.93167 97.5513 9.1777C97.5513 9.41281 97.4802 9.6151 97.3381 9.7846C97.2014 9.94862 96.9964 10.0306 96.723 10.0306C96.4496 10.0306 96.2446 9.94862 96.1079 9.7846C95.9712 9.6151 95.9029 9.41281 95.9029 9.1777ZM101.176 13.4259V20.4052H99.7246V11.5315H101.094L101.176 13.4259ZM100.824 15.6321L100.233 15.6075C100.228 15.0006 100.296 14.4402 100.438 13.9262C100.586 13.4068 100.794 12.9557 101.061 12.573C101.335 12.1903 101.66 11.895 102.037 11.6873C102.415 11.4741 102.833 11.3674 103.292 11.3674C103.653 11.3674 103.981 11.4276 104.276 11.5479C104.572 11.6627 104.823 11.8486 105.031 12.1055C105.239 12.3625 105.397 12.696 105.507 13.1061C105.621 13.5107 105.679 14.0055 105.679 14.5905V20.4052H104.227V14.5741C104.227 14.1094 104.175 13.7376 104.071 13.4588C103.973 13.1744 103.82 12.9694 103.612 12.8437C103.41 12.7124 103.153 12.6468 102.841 12.6468C102.557 12.6468 102.292 12.7261 102.046 12.8847C101.8 13.0432 101.584 13.2619 101.398 13.5408C101.217 13.8196 101.075 14.1395 100.971 14.5003C100.873 14.8557 100.824 15.233 100.824 15.6321ZM112.666 11.5315H113.97V20.479C113.97 21.2609 113.834 21.906 113.56 22.4145C113.292 22.923 112.918 23.2975 112.437 23.5381C111.955 23.7841 111.4 23.9071 110.772 23.9071C110.548 23.9071 110.266 23.8661 109.927 23.7841C109.588 23.7021 109.249 23.5764 108.91 23.4069C108.571 23.2428 108.292 23.0351 108.074 22.7836L108.672 21.7748C108.984 22.0919 109.315 22.3188 109.665 22.4555C110.014 22.5922 110.348 22.6606 110.665 22.6606C111.042 22.6606 111.37 22.5922 111.649 22.4555C111.928 22.3188 112.144 22.0947 112.297 21.783C112.45 21.4768 112.527 21.0668 112.527 20.5528V13.4834L112.666 11.5315ZM107.565 16.3948V15.5665C107.565 14.8338 107.633 14.2051 107.77 13.6802C107.907 13.1498 108.104 12.7152 108.361 12.3762C108.623 12.0317 108.937 11.7775 109.304 11.6135C109.67 11.4494 110.08 11.3674 110.534 11.3674C110.993 11.3674 111.39 11.4604 111.723 11.6463C112.057 11.8322 112.333 12.1028 112.551 12.4582C112.776 12.8081 112.951 13.2346 113.076 13.7376C113.208 14.2351 113.298 14.7983 113.347 15.4271V16.5342C113.298 17.1575 113.208 17.7179 113.076 18.2155C112.951 18.713 112.773 19.1368 112.543 19.4867C112.319 19.8366 112.04 20.1045 111.707 20.2904C111.373 20.4763 110.977 20.5692 110.517 20.5692C110.069 20.5692 109.665 20.4845 109.304 20.315C108.943 20.14 108.631 19.8803 108.369 19.5359C108.112 19.186 107.912 18.7513 107.77 18.2319C107.633 17.707 107.565 17.0946 107.565 16.3948ZM109.017 15.5665V16.3948C109.017 16.8869 109.052 17.3161 109.123 17.6824C109.194 18.0433 109.304 18.344 109.451 18.5845C109.604 18.8196 109.799 18.9946 110.034 19.1094C110.274 19.2242 110.561 19.2816 110.895 19.2816C111.299 19.2816 111.63 19.1832 111.887 18.9864C112.144 18.7896 112.349 18.5299 112.502 18.2073C112.661 17.8792 112.787 17.5266 112.879 17.1493V14.8202C112.825 14.5413 112.745 14.2734 112.642 14.0164C112.543 13.754 112.415 13.5216 112.256 13.3193C112.098 13.1116 111.906 12.9475 111.682 12.8273C111.463 12.707 111.206 12.6468 110.911 12.6468C110.578 12.6468 110.291 12.707 110.05 12.8273C109.809 12.9475 109.613 13.128 109.46 13.3685C109.306 13.6091 109.194 13.9126 109.123 14.2789C109.052 14.6452 109.017 15.0744 109.017 15.5665ZM53.3876 23.5222L50.1235 34.4052H48.5817L52.428 22.4642H53.3958L53.3876 23.5222ZM56.0284 34.4052L52.7643 23.5222L52.7479 22.4642H53.7238L57.5702 34.4052H56.0284ZM56.0284 29.9847V31.2805H50.2711V29.9847H56.0284ZM60.4653 27.2373V37.8169H59.0136V25.5315H60.334L60.4653 27.2373ZM65.427 29.5665V30.3948C65.427 31.0946 65.3614 31.707 65.2302 32.2319C65.1044 32.7513 64.9158 33.186 64.6643 33.5359C64.4183 33.8803 64.1148 34.14 63.754 34.315C63.3931 34.4845 62.9803 34.5692 62.5156 34.5692C62.0508 34.5692 61.6462 34.4818 61.3018 34.3068C60.9628 34.1264 60.6758 33.8667 60.4407 33.5277C60.211 33.1887 60.0279 32.7814 59.8912 32.3057C59.76 31.8246 59.6697 31.286 59.6205 30.69V29.4271C59.6697 28.7983 59.76 28.2351 59.8912 27.7376C60.0224 27.2346 60.2028 26.8081 60.4325 26.4582C60.6676 26.1028 60.9546 25.8322 61.2936 25.6463C61.638 25.4604 62.0399 25.3674 62.4992 25.3674C62.9748 25.3674 63.3931 25.4494 63.754 25.6135C64.1203 25.7775 64.4265 26.0317 64.6725 26.3762C64.924 26.7152 65.1126 27.1498 65.2384 27.6802C65.3641 28.2051 65.427 28.8338 65.427 29.5665ZM63.9754 30.3948V29.5665C63.9754 29.0744 63.9371 28.6452 63.8606 28.2789C63.7895 27.9126 63.6747 27.6091 63.5161 27.3685C63.3576 27.128 63.158 26.9475 62.9174 26.8273C62.6769 26.707 62.3871 26.6468 62.0481 26.6468C61.7583 26.6468 61.5014 26.707 61.2772 26.8273C61.0585 26.9475 60.8699 27.1116 60.7113 27.3193C60.5527 27.5216 60.4215 27.754 60.3176 28.0164C60.2138 28.2734 60.1372 28.5413 60.088 28.8202V31.3051C60.181 31.6551 60.304 31.9858 60.4571 32.2975C60.6102 32.6037 60.8152 32.8524 61.0722 33.0438C61.3346 33.2352 61.6654 33.3308 62.0645 33.3308C62.398 33.3308 62.6851 33.2707 62.9256 33.1504C63.1662 33.0301 63.363 32.8497 63.5161 32.6091C63.6747 32.3631 63.7895 32.0569 63.8606 31.6906C63.9371 31.3188 63.9754 30.8869 63.9754 30.3948ZM68.7485 27.2373V37.8169H67.2969V25.5315H68.6173L68.7485 27.2373ZM73.7103 29.5665V30.3948C73.7103 31.0946 73.6447 31.707 73.5135 32.2319C73.3877 32.7513 73.1991 33.186 72.9476 33.5359C72.7015 33.8803 72.3981 34.14 72.0372 34.315C71.6764 34.4845 71.2636 34.5692 70.7988 34.5692C70.3341 34.5692 69.9295 34.4818 69.5851 34.3068C69.2461 34.1264 68.959 33.8667 68.7239 33.5277C68.4943 33.1887 68.3111 32.7814 68.1744 32.3057C68.0432 31.8246 67.953 31.286 67.9038 30.69V29.4271C67.953 28.7983 68.0432 28.2351 68.1744 27.7376C68.3057 27.2346 68.4861 26.8081 68.7157 26.4582C68.9508 26.1028 69.2379 25.8322 69.5769 25.6463C69.9213 25.4604 70.3232 25.3674 70.7824 25.3674C71.2581 25.3674 71.6764 25.4494 72.0372 25.6135C72.4036 25.7775 72.7097 26.0317 72.9558 26.3762C73.2073 26.7152 73.3959 27.1498 73.5217 27.6802C73.6474 28.2051 73.7103 28.8338 73.7103 29.5665ZM72.2587 30.3948V29.5665C72.2587 29.0744 72.2204 28.6452 72.1438 28.2789C72.0728 27.9126 71.958 27.6091 71.7994 27.3685C71.6408 27.128 71.4413 26.9475 71.2007 26.8273C70.9601 26.707 70.6704 26.6468 70.3314 26.6468C70.0416 26.6468 69.7846 26.707 69.5605 26.8273C69.3418 26.9475 69.1531 27.1116 68.9946 27.3193C68.836 27.5216 68.7048 27.754 68.6009 28.0164C68.497 28.2734 68.4205 28.5413 68.3713 28.8202V31.3051C68.4642 31.6551 68.5872 31.9858 68.7403 32.2975C68.8934 32.6037 69.0984 32.8524 69.3554 33.0438C69.6179 33.2352 69.9486 33.3308 70.3478 33.3308C70.6813 33.3308 70.9683 33.2707 71.2089 33.1504C71.4495 33.0301 71.6463 32.8497 71.7994 32.6091C71.958 32.3631 72.0728 32.0569 72.1438 31.6906C72.2204 31.3188 72.2587 30.8869 72.2587 30.3948ZM75.2767 30.3948V29.5501C75.2767 28.8612 75.3642 28.257 75.5392 27.7376C75.7141 27.2127 75.9574 26.7753 76.2691 26.4254C76.5807 26.0755 76.9443 25.813 77.3598 25.6381C77.7754 25.4576 78.221 25.3674 78.6966 25.3674C79.1833 25.3674 79.6343 25.4576 80.0498 25.6381C80.4654 25.813 80.829 26.0755 81.1406 26.4254C81.4577 26.7753 81.7038 27.2127 81.8787 27.7376C82.0537 28.257 82.1412 28.8612 82.1412 29.5501V30.3948C82.1412 31.0837 82.0537 31.6906 81.8787 32.2155C81.7038 32.7349 81.4605 33.1696 81.1488 33.5195C80.8372 33.8694 80.4736 34.1318 80.0581 34.3068C79.6425 34.4818 79.1942 34.5692 78.713 34.5692C78.2319 34.5692 77.7836 34.4818 77.368 34.3068C76.9525 34.1318 76.5862 33.8694 76.2691 33.5195C75.9574 33.1696 75.7141 32.7349 75.5392 32.2155C75.3642 31.6906 75.2767 31.0837 75.2767 30.3948ZM76.7283 29.5501V30.3948C76.7283 30.8814 76.7776 31.3079 76.876 31.6742C76.9744 32.0405 77.1138 32.3467 77.2942 32.5927C77.4747 32.8388 77.6852 33.0247 77.9257 33.1504C78.1663 33.2707 78.4287 33.3308 78.713 33.3308C79.0411 33.3308 79.3281 33.2707 79.5742 33.1504C79.8257 33.0247 80.0334 32.8388 80.1975 32.5927C80.3615 32.3467 80.4845 32.0405 80.5665 31.6742C80.6485 31.3079 80.6895 30.8814 80.6895 30.3948V29.5501C80.6895 29.0635 80.6403 28.6397 80.5419 28.2789C80.4435 27.9126 80.3041 27.6064 80.1237 27.3603C79.9432 27.1088 79.73 26.9229 79.484 26.8027C79.2434 26.6769 78.981 26.614 78.6966 26.614C78.4178 26.614 78.1581 26.6769 77.9175 26.8027C77.677 26.9229 77.4665 27.1088 77.286 27.3603C77.1111 27.6064 76.9744 27.9126 76.876 28.2789C76.7776 28.6397 76.7283 29.0635 76.7283 29.5501ZM85.5693 25.5315V34.4052H84.1259V25.5315H85.5693ZM84.0439 23.1777C84.0439 22.9317 84.1122 22.7239 84.2489 22.5544C84.3856 22.3849 84.5906 22.3002 84.864 22.3002C85.1374 22.3002 85.3424 22.3849 85.4791 22.5544C85.6212 22.7239 85.6923 22.9317 85.6923 23.1777C85.6923 23.4128 85.6212 23.6151 85.4791 23.7846C85.3424 23.9486 85.1374 24.0306 84.864 24.0306C84.5906 24.0306 84.3856 23.9486 84.2489 23.7846C84.1122 23.6151 84.0439 23.4128 84.0439 23.1777ZM89.3173 27.4259V34.4052H87.8656V25.5315H89.2353L89.3173 27.4259ZM88.9646 29.6321L88.3741 29.6075C88.3687 29.0006 88.437 28.4402 88.5792 27.9262C88.7268 27.4068 88.9345 26.9557 89.2024 26.573C89.4758 26.1903 89.8011 25.895 90.1784 25.6873C90.5557 25.4741 90.9739 25.3674 91.4332 25.3674C91.794 25.3674 92.1221 25.4276 92.4173 25.5479C92.7126 25.6627 92.9641 25.8486 93.1718 26.1055C93.3796 26.3625 93.5382 26.696 93.6475 27.1061C93.7623 27.5107 93.8197 28.0055 93.8197 28.5905V34.4052H92.3681V28.5741C92.3681 28.1094 92.3162 27.7376 92.2123 27.4588C92.1139 27.1744 91.9608 26.9694 91.753 26.8437C91.5507 26.7124 91.2938 26.6468 90.9821 26.6468C90.6978 26.6468 90.4326 26.7261 90.1866 26.8847C89.9406 27.0432 89.7246 27.2619 89.5387 27.5408C89.3583 27.8196 89.2161 28.1395 89.1122 28.5003C89.0138 28.8557 88.9646 29.233 88.9646 29.6321ZM99.2408 25.5315V26.696H95.0991V25.5315H99.2408ZM96.4523 23.3745H97.904V32.2073C97.904 32.508 97.9395 32.7349 98.0106 32.888C98.0871 33.0411 98.1828 33.1422 98.2976 33.1914C98.4124 33.2406 98.5355 33.2652 98.6667 33.2652C98.7651 33.2652 98.8745 33.2543 98.9947 33.2324C99.115 33.2051 99.197 33.1832 99.2408 33.1668L99.2326 34.4052C99.1342 34.4435 99.0029 34.479 98.8389 34.5118C98.6749 34.5501 98.4671 34.5692 98.2156 34.5692C97.904 34.5692 97.6142 34.4954 97.3463 34.3478C97.0784 34.2002 96.8624 33.9541 96.6984 33.6097C96.5344 33.2598 96.4523 32.7896 96.4523 32.1991V23.3745ZM102.423 27.2947V34.4052H100.979V25.5315H102.341L102.423 27.2947ZM102.128 29.6321L101.455 29.6075C101.45 29.0006 101.51 28.4402 101.636 27.9262C101.761 27.4068 101.95 26.9557 102.201 26.573C102.458 26.1903 102.778 25.895 103.161 25.6873C103.549 25.4741 104 25.3674 104.514 25.3674C104.853 25.3674 105.168 25.4276 105.457 25.5479C105.753 25.6627 106.01 25.8458 106.228 26.0973C106.447 26.3489 106.616 26.6714 106.737 27.0651C106.862 27.4588 106.925 27.9344 106.925 28.4921V34.4052H105.474V28.5659C105.474 28.1012 105.411 27.7294 105.285 27.4506C105.165 27.1717 104.993 26.9694 104.768 26.8437C104.544 26.7124 104.276 26.6468 103.965 26.6468C103.609 26.6468 103.311 26.7261 103.071 26.8847C102.836 27.0432 102.647 27.2619 102.505 27.5408C102.368 27.8196 102.27 28.1395 102.21 28.5003C102.155 28.8557 102.128 29.233 102.128 29.6321ZM106.909 28.7956L105.941 29.1072C105.936 28.6206 105.996 28.1531 106.122 27.7048C106.247 27.2565 106.433 26.8573 106.679 26.5074C106.931 26.1575 107.242 25.8814 107.614 25.6791C107.986 25.4713 108.418 25.3674 108.91 25.3674C109.315 25.3674 109.673 25.4303 109.984 25.5561C110.296 25.6818 110.558 25.8759 110.772 26.1384C110.99 26.3953 111.154 26.7261 111.264 27.1307C111.373 27.5353 111.428 28.0164 111.428 28.5741V34.4052H109.976V28.5577C109.976 28.0602 109.913 27.6747 109.788 27.4013C109.667 27.1225 109.495 26.9284 109.271 26.8191C109.047 26.7042 108.779 26.6468 108.467 26.6468C108.216 26.6468 107.992 26.7042 107.795 26.8191C107.603 26.9339 107.442 27.0924 107.311 27.2947C107.18 27.4916 107.078 27.7185 107.007 27.9754C106.942 28.2324 106.909 28.5058 106.909 28.7956ZM116.791 34.5692C116.261 34.5692 115.783 34.49 115.356 34.3314C114.93 34.1728 114.566 33.9323 114.265 33.6097C113.965 33.2816 113.735 32.8688 113.577 32.3713C113.418 31.8738 113.339 31.286 113.339 30.608V29.6075C113.339 28.8256 113.429 28.1641 113.609 27.6228C113.795 27.0815 114.044 26.6468 114.356 26.3188C114.667 25.9853 115.02 25.7447 115.414 25.5971C115.807 25.444 116.212 25.3674 116.627 25.3674C117.185 25.3674 117.661 25.4576 118.054 25.6381C118.448 25.8185 118.768 26.0864 119.014 26.4418C119.26 26.7972 119.44 27.2346 119.555 27.754C119.676 28.2734 119.736 28.8721 119.736 29.5501V30.3948H114.192V29.1564H118.284V28.9514C118.262 28.4921 118.199 28.0875 118.095 27.7376C117.997 27.3877 117.833 27.1143 117.603 26.9175C117.374 26.7152 117.048 26.614 116.627 26.614C116.36 26.614 116.111 26.6605 115.881 26.7534C115.657 26.8409 115.463 26.9968 115.299 27.2209C115.14 27.4396 115.015 27.7431 114.922 28.1313C114.834 28.5194 114.79 29.0115 114.79 29.6075V30.608C114.79 31.0837 114.834 31.4938 114.922 31.8382C115.015 32.1772 115.148 32.4588 115.323 32.683C115.504 32.9017 115.723 33.0657 115.98 33.175C116.242 33.2789 116.54 33.3308 116.873 33.3308C117.36 33.3308 117.762 33.2379 118.079 33.052C118.396 32.8606 118.672 32.6173 118.907 32.3221L119.67 33.2324C119.512 33.4566 119.304 33.6726 119.047 33.8803C118.795 34.0826 118.484 34.2494 118.112 34.3806C117.746 34.5064 117.305 34.5692 116.791 34.5692ZM122.942 27.4259V34.4052H121.491V25.5315H122.86L122.942 27.4259ZM122.59 29.6321L121.999 29.6075C121.994 29.0006 122.062 28.4402 122.204 27.9262C122.352 27.4068 122.56 26.9557 122.828 26.573C123.101 26.1903 123.426 25.895 123.804 25.6873C124.181 25.4741 124.599 25.3674 125.058 25.3674C125.419 25.3674 125.747 25.4276 126.042 25.5479C126.338 25.6627 126.589 25.8486 126.797 26.1055C127.005 26.3625 127.163 26.696 127.273 27.1061C127.387 27.5107 127.445 28.0055 127.445 28.5905V34.4052H125.993V28.5741C125.993 28.1094 125.941 27.7376 125.837 27.4588C125.739 27.1744 125.586 26.9694 125.378 26.8437C125.176 26.7124 124.919 26.6468 124.607 26.6468C124.323 26.6468 124.058 26.7261 123.812 26.8847C123.566 27.0432 123.35 27.2619 123.164 27.5408C122.983 27.8196 122.841 28.1395 122.737 28.5003C122.639 28.8557 122.59 29.233 122.59 29.6321ZM132.866 25.5315V26.696H128.724V25.5315H132.866ZM130.077 23.3745H131.529V32.2073C131.529 32.508 131.565 32.7349 131.636 32.888C131.712 33.0411 131.808 33.1422 131.923 33.1914C132.038 33.2406 132.161 33.2652 132.292 33.2652C132.39 33.2652 132.5 33.2543 132.62 33.2324C132.74 33.2051 132.822 33.1832 132.866 33.1668L132.858 34.4052C132.759 34.4435 132.628 34.479 132.464 34.5118C132.3 34.5501 132.092 34.5692 131.841 34.5692C131.529 34.5692 131.239 34.4954 130.971 34.3478C130.704 34.2002 130.488 33.9541 130.324 33.6097C130.159 33.2598 130.077 32.7896 130.077 32.1991V23.3745Z" fill="black"/>
</svg>
